SplineFontDB: 3.0
FontName: SixCaps
FullName: Six Caps
FamilyName: Six Caps
Weight: Book
Copyright: Copyright (c) 2010 by vernon adams. All rights reserved.
Version: 001.000
ItalicAngle: 0
UnderlinePosition: -232
UnderlineWidth: 41
Ascent: 1638
Descent: 410
LayerCount: 2
Layer: 0 1 "Back"  1
Layer: 1 1 "Fore"  0
XUID: [1021 423 1553708084 2169475]
FSType: 0
OS2Version: 0
OS2_WeightWidthSlopeOnly: 0
OS2_UseTypoMetrics: 1
CreationTime: 1290423263
ModificationTime: 1296003833
PfmFamily: 17
TTFWeight: 400
TTFWidth: 5
LineGap: 0
VLineGap: 0
Panose: 2 0 5 8 2 0 0 2 0 4
OS2TypoAscent: 2600
OS2TypoAOffset: 0
OS2TypoDescent: -490
OS2TypoDOffset: 0
OS2TypoLinegap: 0
OS2WinAscent: 2600
OS2WinAOffset: 0
OS2WinDescent: 490
OS2WinDOffset: 0
HheadAscent: 2600
HheadAOffset: 0
HheadDescent: -490
HheadDOffset: 0
OS2SubXSize: 1434
OS2SubYSize: 1331
OS2SubXOff: 0
OS2SubYOff: 287
OS2SupXSize: 1434
OS2SupYSize: 1331
OS2SupXOff: 0
OS2SupYOff: 977
OS2StrikeYSize: 102
OS2StrikeYPos: 512
OS2Vendor: 'FFOR'
OS2CodePages: 20000001.00000000
OS2UnicodeRanges: a00002af.40002048.00000000.00000000
Lookup: 258 0 0 "'kern' Horizontal Kerning in Latin lookup 0"  {"'kern' Horizontal Kerning in Latin lookup 0 subtable"  } ['kern' ('latn' <'dflt' > ) ]
MarkAttachClasses: 1
DEI: 91125
ShortTable: maxp 16
  0
  0
  0
  0
  0
  0
  0
  2
  1
  2
  22
  0
  256
  0
  0
  0
EndShort
TtTable: prep
PUSHW_1
 511
SCANCTRL
PUSHB_1
 1
SCANTYPE
SVTCA[y-axis]
MPPEM
PUSHB_1
 8
LT
IF
PUSHB_2
 1
 1
INSTCTRL
EIF
PUSHB_2
 70
 6
CALL
IF
POP
PUSHB_1
 16
EIF
MPPEM
PUSHB_1
 20
GT
IF
POP
PUSHB_1
 128
EIF
SCVTCI
PUSHB_1
 6
CALL
NOT
IF
SVTCA[y-axis]
PUSHB_1
 5
DUP
RCVT
PUSHB_1
 3
CALL
WCVTP
PUSHB_1
 6
DUP
RCVT
PUSHB_3
 5
 35
 2
CALL
PUSHB_1
 3
CALL
WCVTP
PUSHB_1
 7
DUP
RCVT
PUSHB_3
 6
 34
 2
CALL
PUSHB_1
 3
CALL
WCVTP
PUSHB_1
 8
DUP
RCVT
PUSHB_3
 7
 30
 2
CALL
PUSHB_1
 3
CALL
WCVTP
SVTCA[x-axis]
PUSHB_1
 9
DUP
RCVT
PUSHB_1
 3
CALL
WCVTP
PUSHB_1
 10
DUP
RCVT
PUSHB_3
 9
 217
 2
CALL
PUSHB_2
 3
 70
SROUND
CALL
WCVTP
PUSHB_1
 11
DUP

StartChar: B
Encoding: 66 66 4
Width: 543
Flags: W
HStem: 0 132<220 323.811> 988 138<220 322.776> 1912 136<220 323.811>
VStem: 64 156<132 988 1126 1912> 330 157<150.283 987.513 1146.11 1892.72>
LayerCount: 2
Fore
SplineSet
487 175 m 2,0,1
 487 139 487 139 470.5 107.5 c 128,-1,2
 454 76 454 76 425 52 c 128,-1,3
 396 28 396 28 357.5 14 c 128,-1,4
 319 0 319 0 276 0 c 2,5,-1
 64 0 l 1,6,-1
 64 2048 l 1,7,-1
 276 2048 l 2,8,9
 325 2048 325 2048 364 2034.5 c 128,-1,10
 403 2021 403 2021 430.5 1997.5 c 128,-1,11
 458 1974 458 1974 472.5 1943 c 128,-1,12
 487 1912 487 1912 487 1876 c 2,13,-1
 487 1208 l 2,14,15
 487 1163 487 1163 460 1118 c 0,16,17
 434 1074 434 1074 378 1057 c 1,18,19
 406 1049 406 1049 426.5 1034 c 128,-1,20
 447 1019 447 1019 460.5 999 c 128,-1,21
 474 979 474 979 480.5 956 c 128,-1,22
 487 933 487 933 487 911 c 2,23,-1
 487 175 l 2,0,1
220 1126 m 1,24,-1
 287 1126 l 2,25,26
 316 1126 316 1126 323 1145.5 c 128,-1,27
 330 1165 330 1165 330 1194 c 2,28,-1
 330 1866 l 2,29,30
 330 1884 330 1884 324 1893 c 128,-1,31
 318 1902 318 1902 304.5 1906.5 c 128,-1,32
 291 1911 291 1911 270.5 1911.5 c 128,-1,33
 250 1912 250 1912 220 1912 c 1,34,-1
 220 1126 l 1,24,-1
330 931 m 2,35,36
 330 937 330 937 328 946.5 c 128,-1,37
 326 956 326 956 320.5 965 c 128,-1,38
 315 974 315 974 305 981 c 128,-1,39
 295 988 295 988 279 988 c 2,40,-1
 220 988 l 1,41,-1
 220 132 l 1,42,43
 250 132 250 132 270.5 132.5 c 128,-1,44
 291 133 291 133 304.5 137 c 128,-1,45
 318 141 318 141 324 150 c 128,-1,46
 330 159 330 159 330 175 c 2,47,-1
 330 931 l 2,35,36
EndSplineSet
Validated: 1
EndChar

StartChar: C
Encoding: 67 67 5
Width: 543
Flags: W
HStem: -24 126<224.575 328.571> 1938 137<224.681 320.632>
VStem: 60 156<115.923 1924.59> 329 157<103.898 1002 1148 1924.59>
LayerCount: 2
Fore
SplineSet
486 1148 m 1,0,-1
 329 1148 l 1,1,-1
 329 1893 l 2,2,3
 329 1912 329 1912 313 1925 c 128,-1,4
 297 1938 297 1938 274 1938 c 0,5,6
 248 1938 248 1938 232 1925 c 128,-1,7
 216 1912 216 1912 216 1893 c 2,8,-1
 216 148 l 2,9,10
 216 129 216 129 232.5 115.5 c 128,-1,11
 249 102 249 102 273 102 c 0,12,13
 295 102 295 102 312 115.5 c 128,-1,14
 329 129 329 129 329 148 c 2,15,-1
 329 1002 l 1,16,-1
 486 1002 l 1,17,-1
 486 148 l 2,18,19
 486 111 486 111 470.5 79.5 c 128,-1,20
 455 48 455 48 427 25 c 128,-1,21
 399 2 399 2 360 -11 c 128,-1,22
 321 -24 321 -24 273 -24 c 0,23,24
 229 -24 229 -24 190 -10.5 c 128,-1,25
 151 3 151 3 122 26.5 c 128,-1,26
 93 50 93 50 76.5 82 c 128,-1,27
 60 114 60 114 60 151 c 2,28,-1
 60 1900 l 2,29,30
 60 1937 60 1937 75.5 1969 c 128,-1,31
 91 2001 91 2001 119.5 2024.5 c 128,-1,32
 148 2048 148 2048 187.5 2061.5 c 128,-1,33
 227 2075 227 2075 274 2075 c 0,34,35
 320 2075 320 2075 359 2061.5 c 128,-1,36
 398 2048 398 2048 426.5 2025 c 128,-1,37
 455 2002 455 2002 470.5 1971 c 128,-1,38
 486 1940 486 1940 486 1905 c 2,39,-1
 486 1148 l 1,0,-1
EndSplineSet
Validated: 1
EndChar

StartChar: D
Encoding: 68 68 6
Width: 550
Flags: W
HStem: 0 132<220 325.779> 1912 136<220 326.295>
VStem: 64 156<132 1912> 333 157<150.283 1892.72>
LayerCount: 2
Fore
SplineSet
333 1866 m 2,0,1
 333 1884 333 1884 326.5 1893 c 128,-1,2
 320 1902 320 1902 306 1906.5 c 128,-1,3
 292 1911 292 1911 271 1911.5 c 128,-1,4
 250 1912 250 1912 220 1912 c 1,5,-1
 220 132 l 1,6,7
 248 132 248 132 269 132.5 c 128,-1,8
 290 133 290 133 304.5 137 c 128,-1,9
 319 141 319 141 326 150 c 128,-1,10
 333 159 333 159 333 175 c 2,11,-1
 333 1866 l 2,0,1
490 175 m 2,12,13
 490 139 490 139 473.5 107.5 c 128,-1,14
 457 76 457 76 429 52 c 128,-1,15
 401 28 401 28 362.5 14 c 128,-1,16
 324 0 324 0 281 0 c 2,17,-1
 64 0 l 1,18,-1
 64 2048 l 1,19,-1
 281 2048 l 2,20,21
 323 2048 323 2048 361 2035 c 128,-1,22
 399 2022 399 2022 427.5 1998.5 c 128,-1,23
 456 1975 456 1975 473 1943.5 c 128,-1,24
 490 1912 490 1912 490 1876 c 2,25,-1
 490 175 l 2,12,13
EndSplineSet
Validated: 1
EndChar

StartChar: E
Encoding: 69 69 7
Width: 438
Flags: W
HStem: 0 130<220 428> 1019 139<220 375> 1912 136<220 428>
VStem: 64 364<0 130 1912 2048> 64 156<130 1019 1158 1912>
LayerCount: 2
Fore
SplineSet
428 1912 m 1,0,-1
 220 1912 l 1,1,-1
 220 1158 l 1,2,-1
 375 1158 l 1,3,-1
 375 1019 l 1,4,-1
 220 1019 l 1,5,-1
 220 130 l 1,6,-1
 428 130 l 1,7,-1
 428 0 l 1,8,-1
 64 0 l 1,9,-1
 64 2048 l 1,10,-1
 428 2048 l 1,11,-1
 428 1912 l 1,0,-1
EndSplineSet
Validated: 1
EndChar

StartChar: F
Encoding: 70 70 8
Width: 434
Flags: W
HStem: 0 21G<64 220> 1019 139<220 370> 1912 136<220 421>
VStem: 64 156<0 1019 1158 1912>
LayerCount: 2
Fore
SplineSet
421 1912 m 1,0,-1
 220 1912 l 1,1,-1
 220 1158 l 1,2,-1
 370 1158 l 1,3,-1
 370 1019 l 1,4,-1
 220 1019 l 1,5,-1
 220 0 l 1,6,-1
 64 0 l 1,7,-1
 64 2048 l 1,8,-1
 421 2048 l 1,9,-1
 421 1912 l 1,0,-1
EndSplineSet
Validated: 1
EndChar

StartChar: G
Encoding: 71 71 9
Width: 549
Flags: W
HStem: -24 126<220.422 322.198> 897 135<258 330> 1939 136<220.415 322.198>
VStem: 64 156<102.903 1937.97> 258 229<897 1032> 330 157<116.438 897 1166 1926.11>
LayerCount: 2
Fore
SplineSet
487 1166 m 1,0,-1
 330 1166 l 1,1,-1
 330 1898 l 2,2,3
 330 1914 330 1914 315 1926.5 c 128,-1,4
 300 1939 300 1939 273 1939 c 0,5,6
 252 1939 252 1939 236 1926.5 c 128,-1,7
 220 1914 220 1914 220 1898 c 2,8,-1
 220 148 l 2,9,10
 220 130 220 130 236 116 c 128,-1,11
 252 102 252 102 273 102 c 0,12,13
 300 102 300 102 315 116 c 128,-1,14
 330 130 330 130 330 148 c 2,15,-1
 330 897 l 1,16,-1
 258 897 l 1,17,-1
 258 1032 l 1,18,-1
 487 1032 l 1,19,-1
 487 144 l 2,20,21
 487 110 487 110 470 79.5 c 128,-1,22
 453 49 453 49 424 26 c 128,-1,23
 395 3 395 3 356 -10.5 c 128,-1,24
 317 -24 317 -24 273 -24 c 0,25,26
 231 -24 231 -24 193 -10.5 c 128,-1,27
 155 3 155 3 126.5 26.5 c 128,-1,28
 98 50 98 50 81 81 c 128,-1,29
 64 112 64 112 64 148 c 2,30,-1
 64 1905 l 2,31,32
 64 1940 64 1940 81 1971 c 128,-1,33
 98 2002 98 2002 126.5 2025 c 128,-1,34
 155 2048 155 2048 193 2061.5 c 128,-1,35
 231 2075 231 2075 273 2075 c 0,36,37
 317 2075 317 2075 356 2062 c 128,-1,38
 395 2049 395 2049 424 2026 c 128,-1,39
 453 2003 453 2003 470 1972 c 128,-1,40
 487 1941 487 1941 487 1905 c 2,41,-1
 487 1166 l 1,0,-1
EndSplineSet
Validated: 1
EndChar

StartChar: H
Encoding: 72 72 10
Width: 552
Flags: W
HStem: 0 21G<64 220 330 487> 974 122<220 330> 2028 20G<64 220 330 487>
VStem: 64 156<0 974 1096 2048> 330 157<0 974 1096 2048>
LayerCount: 2
Fore
SplineSet
220 1096 m 1,0,-1
 330 1096 l 1,1,-1
 330 2048 l 1,2,-1
 487 2048 l 1,3,-1
 487 0 l 1,4,-1
 330 0 l 1,5,-1
 330 974 l 1,6,-1
 220 974 l 1,7,-1
 220 0 l 1,8,-1
 64 0 l 1,9,-1
 64 2048 l 1,10,-1
 220 2048 l 1,11,-1
 220 1096 l 1,0,-1
EndSplineSet
Validated: 1
EndChar

StartChar: I
Encoding: 73 73 11
Width: 287
Flags: W
HStem: 0 21G<67 223> 2028 20G<67 223>
VStem: 67 156<0 2048>
LayerCount: 2
Fore
SplineSet
223 2048 m 1,0,-1
 223 0 l 1,1,-1
 67 0 l 1,2,-1
 67 2048 l 1,3,-1
 223 2048 l 1,0,-1
EndSplineSet
Validated: 1
EndChar

StartChar: J
Encoding: 74 74 12
Width: 538
Flags: W
HStem: -24 126<215.456 308.297> 2028 20G<316 473>
VStem: 50 156<112.832 952> 316 157<115.923 2048>
LayerCount: 2
Fore
SplineSet
473 151 m 2,0,1
 473 114 473 114 456.5 82 c 128,-1,2
 440 50 440 50 412 26.5 c 128,-1,3
 384 3 384 3 346 -10.5 c 128,-1,4
 308 -24 308 -24 265 -24 c 0,5,6
 221 -24 221 -24 182 -10.5 c 128,-1,7
 143 3 143 3 113.5 26.5 c 128,-1,8
 84 50 84 50 67 81 c 128,-1,9
 50 112 50 112 50 148 c 2,10,-1
 50 952 l 1,11,-1
 206 952 l 1,12,-1
 206 148 l 2,13,14
 206 123 206 123 223.5 112.5 c 128,-1,15
 241 102 241 102 265 102 c 0,16,17
 287 102 287 102 301.5 115.5 c 128,-1,18
 316 129 316 129 316 148 c 2,19,-1
 316 2048 l 1,20,-1
 473 2048 l 1,21,-1
 473 151 l 2,0,1
EndSplineSet
Validated: 1
EndChar

StartChar: K
Encoding: 75 75 13
Width: 536
Flags: W
HStem: 0 21G<64 220 344.505 507> 2028 20G<64 220 330.729 494>
VStem: 64 156<0 1018 1053 2048>
LayerCount: 2
Fore
SplineSet
507 0 m 1,0,-1
 347 0 l 1,1,-1
 220 1018 l 1,2,-1
 220 0 l 1,3,-1
 64 0 l 1,4,-1
 64 2048 l 1,5,-1
 220 2048 l 1,6,-1
 220 1053 l 1,7,-1
 333 2048 l 1,8,-1
 494 2048 l 1,9,-1
 374 1042 l 1,10,-1
 507 0 l 1,0,-1
EndSplineSet
Validated: 1
EndChar

StartChar: L
Encoding: 76 76 14
Width: 396
Flags: W
HStem: 0 129<220 388> 2028 20G<64 220>
VStem: 64 156<129 2048>
LayerCount: 2
Fore
SplineSet
220 2048 m 1,0,-1
 220 129 l 1,1,-1
 388 129 l 1,2,-1
 388 0 l 1,3,-1
 64 0 l 1,4,-1
 64 2048 l 1,5,-1
 220 2048 l 1,0,-1
EndSplineSet
Validated: 1
EndChar

StartChar: M
Encoding: 77 77 15
Width: 703
Flags: W
HStem: 0 21G<64 220 479 638> 2028 20G<64 222.935 475.125 638>
VStem: 64 156<0 1079 1941.96 2048> 315 71<123 261.437> 479 159<0 1079 1939.47 2048>
LayerCount: 2
Fore
SplineSet
477 2048 m 1,0,-1
 638 2048 l 1,1,-1
 638 0 l 1,2,-1
 479 0 l 1,3,-1
 483 1079 l 1,4,-1
 386 123 l 1,5,-1
 315 123 l 1,6,-1
 216 1079 l 1,7,-1
 220 0 l 1,8,-1
 64 0 l 1,9,-1
 64 2048 l 1,10,-1
 221 2048 l 1,11,-1
 351 704 l 1,12,-1
 477 2048 l 1,0,-1
EndSplineSet
Validated: 1
EndChar

StartChar: N
Encoding: 78 78 16
Width: 557
Flags: W
HStem: 0 21G<64 220 333.968 493> 2028 20G<64 220.151 346 493>
VStem: 64 156<0 1142 1931.49 2048> 346 147<0 129.934 858 2048>
LayerCount: 2
Fore
SplineSet
493 0 m 1,0,-1
 336 0 l 1,1,-1
 220 1142 l 1,2,-1
 220 0 l 1,3,-1
 64 0 l 1,4,-1
 64 2048 l 1,5,-1
 218 2048 l 1,6,-1
 346 858 l 1,7,-1
 346 2048 l 1,8,-1
 493 2048 l 1,9,-1
 493 0 l 1,0,-1
EndSplineSet
Validated: 1
EndChar

StartChar: O
Encoding: 79 79 17
Width: 543
Flags: W
HStem: -24 126<223.892 324.791> 1952 123<223.892 324.765>
VStem: 60 156<116.438 1937.56> 325 158<103.538 1950.52>
LayerCount: 2
Fore
SplineSet
60 1903 m 2,0,1
 60 1938 60 1938 77 1969.5 c 128,-1,2
 94 2001 94 2001 122.5 2024.5 c 128,-1,3
 151 2048 151 2048 189 2061.5 c 128,-1,4
 227 2075 227 2075 269 2075 c 0,5,6
 313 2075 313 2075 352 2061 c 128,-1,7
 391 2047 391 2047 420 2023 c 128,-1,8
 449 1999 449 1999 466 1967.5 c 128,-1,9
 483 1936 483 1936 483 1901 c 2,10,-1
 483 151 l 2,11,12
 483 114 483 114 466 82 c 128,-1,13
 449 50 449 50 420 26.5 c 128,-1,14
 391 3 391 3 352 -10.5 c 128,-1,15
 313 -24 313 -24 269 -24 c 0,16,17
 227 -24 227 -24 189 -10.5 c 128,-1,18
 151 3 151 3 122.5 26 c 128,-1,19
 94 49 94 49 77 79.5 c 128,-1,20
 60 110 60 110 60 144 c 2,21,-1
 60 1903 l 2,0,1
216 148 m 2,22,23
 216 130 216 130 230.5 116 c 128,-1,24
 245 102 245 102 269 102 c 256,25,26
 293 102 293 102 309 116 c 128,-1,27
 325 130 325 130 325 148 c 2,28,-1
 325 1905 l 2,29,30
 325 1924 325 1924 308 1938 c 128,-1,31
 291 1952 291 1952 269 1952 c 0,32,33
 245 1952 245 1952 230.5 1938 c 128,-1,34
 216 1924 216 1924 216 1905 c 2,35,-1
 216 148 l 2,22,23
EndSplineSet
Validated: 1
EndChar

StartChar: P
Encoding: 80 80 18
Width: 510
Flags: W
HStem: 0 21G<64 220> 952 134<220 296.758> 1925 123<220 320.754>
VStem: 64 156<0 952 1086 1925> 321 159<1094.77 1914.68>
LayerCount: 2
Fore
SplineSet
480 1128 m 2,0,1
 480 1030 480 1030 413.5 991 c 128,-1,2
 347 952 347 952 220 952 c 1,3,-1
 220 0 l 1,4,-1
 64 0 l 1,5,-1
 64 2048 l 1,6,-1
 267 2048 l 2,7,8
 311 2048 311 2048 349.5 2035 c 128,-1,9
 388 2022 388 2022 417 1998 c 128,-1,10
 446 1974 446 1974 463 1939.5 c 128,-1,11
 480 1905 480 1905 480 1861 c 2,12,-1
 480 1128 l 2,0,1
321 1875 m 2,13,14
 321 1905 321 1905 293 1915 c 128,-1,15
 265 1925 265 1925 220 1925 c 1,16,-1
 220 1086 l 1,17,18
 274 1086 274 1086 297.5 1094.5 c 128,-1,19
 321 1103 321 1103 321 1137 c 2,20,-1
 321 1875 l 2,13,14
EndSplineSet
Validated: 1
EndChar

StartChar: Q
Encoding: 81 81 19
Width: 560
Flags: W
HStem: 1952 123<223.892 324.765>
VStem: 60 156<116.438 1937.56> 325 158<102.875 1950.52>
LayerCount: 2
Fore
SplineSet
463 -193 m 1,0,-1
 182 -11 l 1,1,2
 172 -11 172 -11 152 -1.5 c 128,-1,3
 132 8 132 8 111.5 27 c 128,-1,4
 91 46 91 46 75.5 75 c 128,-1,5
 60 104 60 104 60 144 c 2,6,-1
 60 1903 l 2,7,8
 60 1938 60 1938 77 1969.5 c 128,-1,9
 94 2001 94 2001 122.5 2024.5 c 128,-1,10
 151 2048 151 2048 189 2061.5 c 128,-1,11
 227 2075 227 2075 269 2075 c 0,12,13
 313 2075 313 2075 352 2061 c 128,-1,14
 391 2047 391 2047 420 2023 c 128,-1,15
 449 1999 449 1999 466 1967.5 c 128,-1,16
 483 1936 483 1936 483 1901 c 2,17,-1
 483 164 l 2,18,19
 483 110 483 110 451.5 68.5 c 128,-1,20
 420 27 420 27 360 13 c 1,21,-1
 525 -90 l 1,22,-1
 463 -193 l 1,0,-1
216 148 m 2,23,24
 216 130 216 130 230.5 116 c 128,-1,25
 245 102 245 102 269 102 c 256,26,27
 293 102 293 102 309 116 c 128,-1,28
 325 130 325 130 325 148 c 2,29,-1
 325 1905 l 2,30,31
 325 1924 325 1924 308 1938 c 128,-1,32
 291 1952 291 1952 269 1952 c 0,33,34
 245 1952 245 1952 230.5 1938 c 128,-1,35
 216 1924 216 1924 216 1905 c 2,36,-1
 216 148 l 2,23,24
EndSplineSet
Validated: 1
EndChar

StartChar: R
Encoding: 82 82 20
Width: 531
Flags: W
HStem: 0 21G<64 220 318 475> 998 91<220 292.728> 1912 136<220 292.728>
VStem: 64 156<0 998 1089 1912> 318 157<0 986.296 1094.68 1905.81>
LayerCount: 2
Fore
SplineSet
475 1173 m 2,0,1
 475 1134 475 1134 461 1109.5 c 128,-1,2
 447 1085 447 1085 430 1070 c 0,3,4
 411 1054 411 1054 386 1043 c 1,5,6
 412 1035 412 1035 430 1021 c 0,7,8
 447 1007 447 1007 461 983 c 128,-1,9
 475 959 475 959 475 921 c 2,10,-1
 475 0 l 1,11,-1
 318 0 l 1,12,-1
 318 941 l 2,13,14
 318 958 318 958 316.5 969 c 128,-1,15
 315 980 315 980 306 986.5 c 128,-1,16
 297 993 297 993 277 995.5 c 128,-1,17
 257 998 257 998 220 998 c 1,18,-1
 220 0 l 1,19,-1
 64 0 l 1,20,-1
 64 2048 l 1,21,-1
 273 2048 l 2,22,23
 313 2048 313 2048 349.5 2034 c 128,-1,24
 386 2020 386 2020 414 1996 c 128,-1,25
 442 1972 442 1972 458.5 1939.5 c 128,-1,26
 475 1907 475 1907 475 1870 c 2,27,-1
 475 1173 l 2,0,1
318 1870 m 2,28,29
 318 1900 318 1900 293.5 1906 c 128,-1,30
 269 1912 269 1912 220 1912 c 1,31,-1
 220 1089 l 1,32,33
 269 1089 269 1089 293.5 1094.5 c 128,-1,34
 318 1100 318 1100 318 1128 c 2,35,-1
 318 1870 l 2,28,29
EndSplineSet
Validated: 1
EndChar

StartChar: S
Encoding: 83 83 21
Width: 519
Flags: W
HStem: -24 126<217.779 301.651> 1936 136<218.653 302.105>
VStem: 53 157<115.924 857 1282.31 1921.56> 309 159<115.924 872.07 1288 1922.59>
LayerCount: 2
Fore
SplineSet
309 489 m 2,0,1
 309 612 309 612 298 701 c 128,-1,2
 287 790 287 790 269 856 c 128,-1,3
 251 922 251 922 228 970.5 c 128,-1,4
 205 1019 205 1019 181 1062.5 c 128,-1,5
 157 1106 157 1106 134 1149.5 c 128,-1,6
 111 1193 111 1193 93 1247.5 c 128,-1,7
 75 1302 75 1302 64 1374 c 128,-1,8
 53 1446 53 1446 53 1547 c 2,9,-1
 53 1889 l 2,10,11
 53 1926 53 1926 68.5 1959 c 128,-1,12
 84 1992 84 1992 111.5 2017 c 128,-1,13
 139 2042 139 2042 177.5 2057 c 128,-1,14
 216 2072 216 2072 262 2072 c 256,15,16
 308 2072 308 2072 346 2057.5 c 128,-1,17
 384 2043 384 2043 411 2018 c 128,-1,18
 438 1993 438 1993 453 1961 c 128,-1,19
 468 1929 468 1929 468 1893 c 2,20,-1
 468 1288 l 1,21,-1
 309 1288 l 1,22,-1
 309 1891 l 2,23,24
 309 1910 309 1910 296 1923 c 128,-1,25
 283 1936 283 1936 263 1936 c 0,26,27
 241 1936 241 1936 225.5 1922 c 128,-1,28
 210 1908 210 1908 210 1889 c 2,29,-1
 210 1600 l 2,30,31
 210 1501 210 1501 221 1427.5 c 128,-1,32
 232 1354 232 1354 250 1296.5 c 128,-1,33
 268 1239 268 1239 291.5 1193.5 c 128,-1,34
 315 1148 315 1148 339 1105.5 c 128,-1,35
 363 1063 363 1063 386.5 1019.5 c 128,-1,36
 410 976 410 976 428 922 c 128,-1,37
 446 868 446 868 457 800 c 128,-1,38
 468 732 468 732 468 640 c 2,39,-1
 468 227 l 2,40,41
 468 170 468 170 459.5 123.5 c 128,-1,42
 451 77 451 77 428 44.5 c 128,-1,43
 405 12 405 12 365 -6 c 128,-1,44
 325 -24 325 -24 262 -24 c 0,45,46
 218 -24 218 -24 180 -10 c 128,-1,47
 142 4 142 4 114 30 c 128,-1,48
 86 56 86 56 69.5 92.5 c 128,-1,49
 53 129 53 129 53 174 c 2,50,-1
 53 857 l 1,51,-1
 210 857 l 1,52,-1
 210 151 l 2,53,54
 210 129 210 129 224.5 115.5 c 128,-1,55
 239 102 239 102 263 102 c 0,56,57
 283 102 283 102 296 115.5 c 128,-1,58
 309 129 309 129 309 151 c 2,59,-1
 309 489 l 2,0,1
EndSplineSet
Validated: 1
EndChar

StartChar: T
Encoding: 84 84 22
Width: 423
Flags: W
HStem: 0 21G<132 288> 1912 136<-1 132 288 423>
VStem: 132 156<0 1912>
LayerCount: 2
Fore
SplineSet
423 2048 m 1,0,-1
 423 1912 l 1,1,-1
 288 1912 l 1,2,-1
 288 0 l 1,3,-1
 132 0 l 1,4,-1
 132 1912 l 1,5,-1
 -1 1912 l 1,6,-1
 -1 2048 l 1,7,-1
 423 2048 l 1,0,-1
EndSplineSet
Validated: 1
EndChar

StartChar: U
Encoding: 85 85 23
Width: 522
Flags: W
HStem: -24 126<213.444 298.406> 2028 20G<57 213 305 462>
VStem: 57 156<102.37 2048> 305 157<113.86 2048>
LayerCount: 2
Fore
SplineSet
305 2048 m 1,0,-1
 462 2048 l 1,1,-1
 462 147 l 2,2,3
 462 110 462 110 446 79 c 128,-1,4
 430 48 430 48 402.5 25 c 128,-1,5
 375 2 375 2 338.5 -11 c 128,-1,6
 302 -24 302 -24 262 -24 c 0,7,8
 220 -24 220 -24 183 -11 c 128,-1,9
 146 2 146 2 118 26 c 128,-1,10
 90 50 90 50 73.5 82.5 c 128,-1,11
 57 115 57 115 57 154 c 2,12,-1
 57 2048 l 1,13,-1
 213 2048 l 1,14,-1
 213 141 l 2,15,16
 213 125 213 125 228.5 113.5 c 128,-1,17
 244 102 244 102 262 102 c 256,18,19
 280 102 280 102 292.5 113.5 c 128,-1,20
 305 125 305 125 305 141 c 2,21,-1
 305 2048 l 1,0,-1
EndSplineSet
Validated: 1
EndChar

StartChar: V
Encoding: 86 86 24
Width: 507
Flags: W
HStem: 0 21G<128.906 357.201> 2028 20G<18 181.795 311.193 479>
VStem: 18 163<1785.86 2048> 130 226<0 238.7> 312 167<1809.3 2048>
LayerCount: 2
Fore
SplineSet
312 2048 m 1,0,-1
 479 2048 l 1,1,-1
 356 0 l 1,2,-1
 130 0 l 1,3,-1
 18 2048 l 1,4,-1
 181 2048 l 1,5,-1
 246 412 l 1,6,-1
 312 2048 l 1,0,-1
EndSplineSet
Validated: 1
EndChar

StartChar: W
Encoding: 87 87 25
Width: 836
Flags: W
HStem: 0 21G<118.141 333.065 479.095 691.064> 2028 20G<31 209.443 318.089 498.924 621.397 799>
VStem: 31 178<1714.36 2048> 319 179<1737.58 2048> 622 177<1778.64 2048>
LayerCount: 2
Fore
SplineSet
573 424 m 1,0,-1
 622 2048 l 1,1,-1
 799 2048 l 1,2,-1
 690 0 l 1,3,-1
 480 0 l 1,4,-1
 412 1502 l 1,5,-1
 332 0 l 1,6,-1
 119 0 l 1,7,-1
 31 2048 l 1,8,-1
 209 2048 l 1,9,-1
 245 424 l 1,10,-1
 319 2048 l 1,11,-1
 498 2048 l 1,12,-1
 573 424 l 1,0,-1
EndSplineSet
Validated: 1
EndChar

StartChar: X
Encoding: 88 88 26
Width: 472
Flags: W
HStem: 0 21G<11 180.296 294.665 458> 2028 20G<14 179.944 295.023 458>
VStem: 11 447
LayerCount: 2
Fore
SplineSet
458 0 m 1,0,-1
 297 0 l 1,1,-1
 237 514 l 1,2,-1
 178 0 l 1,3,-1
 11 0 l 1,4,-1
 146 1011 l 1,5,-1
 14 2048 l 1,6,-1
 178 2048 l 1,7,-1
 237 1441 l 1,8,-1
 297 2048 l 1,9,-1
 458 2048 l 1,10,-1
 329 1011 l 1,11,-1
 458 0 l 1,0,-1
EndSplineSet
Validated: 1
EndChar

StartChar: Y
Encoding: 89 89 27
Width: 480
Flags: W
HStem: 0 21G<161 318> 2028 20G<11 175.79 307.014 468>
VStem: 11 163<1927.96 2048> 161 157<0 912.04> 309 159<1927.96 2048>
LayerCount: 2
Fore
SplineSet
318 792 m 1,0,-1
 318 0 l 1,1,-1
 161 0 l 1,2,-1
 161 792 l 1,3,-1
 11 2048 l 1,4,-1
 174 2048 l 1,5,-1
 238 1333 l 1,6,-1
 309 2048 l 1,7,-1
 468 2048 l 1,8,-1
 318 792 l 1,0,-1
EndSplineSet
Validated: 1
EndChar

StartChar: Z
Encoding: 90 90 28
Width: 382
Flags: W
HStem: 0 130<192 364> 1912 136<21 196>
VStem: 18 346<0 130 1912 2048>
LayerCount: 2
Fore
SplineSet
360 2048 m 1,0,-1
 192 130 l 1,1,-1
 364 130 l 1,2,-1
 364 0 l 1,3,-1
 18 0 l 1,4,-1
 196 1912 l 1,5,-1
 21 1912 l 1,6,-1
 21 2048 l 1,7,-1
 360 2048 l 1,0,-1
EndSplineSet
Validated: 1
EndChar

StartChar: a
Encoding: 97 97 29
Width: 479
Flags: W
HStem: 0 21G<13 165.347 319.601 466> 386 121<203 279> 1748 20G<144.495 355.267> 1748 20G<144.495 355.267>
LayerCount: 2
Fore
SplineSet
466 0 m 1,0,-1
 321 0 l 1,1,-1
 294 386 l 1,2,-1
 190 386 l 1,3,-1
 164 0 l 1,4,-1
 13 0 l 1,5,-1
 146 1768 l 1,6,-1
 354 1768 l 1,7,-1
 466 0 l 1,0,-1
279 507 m 1,8,-1
 249 1407 l 1,9,-1
 203 507 l 1,10,-1
 279 507 l 1,8,-1
EndSplineSet
Validated: 1
EndChar

StartChar: b
Encoding: 98 98 30
Width: 505
Flags: W
HStem: 0 21G<64 110.5> 2 117<207 295.811> 857 122<207 298.386> 1662 104<207 276.791> 1748 20G<64 110.5> 1748 20G<64 110.5>
VStem: 64 143<119 857 979 1662> 302 154<136.767 856.93 993.439 1656.84>
LayerCount: 2
Fore
SplineSet
456 154 m 2,0,1
 456 95 456 95 429.5 63.5 c 128,-1,2
 403 32 403 32 352.5 18 c 128,-1,3
 302 4 302 4 229.5 2 c 128,-1,4
 157 0 157 0 64 0 c 1,5,-1
 64 1768 l 1,6,7
 157 1768 157 1768 229.5 1766 c 128,-1,8
 302 1764 302 1764 352.5 1750.5 c 128,-1,9
 403 1737 403 1737 429.5 1707.5 c 128,-1,10
 456 1678 456 1678 456 1623 c 2,11,-1
 456 1044 l 2,12,13
 456 996 456 996 429 964 c 128,-1,14
 402 932 402 932 351 916 c 1,15,16
 402 899 402 899 429 868 c 128,-1,17
 456 837 456 837 456 792 c 2,18,-1
 456 154 l 2,0,1
207 979 m 1,19,-1
 272 979 l 2,20,21
 295 979 295 979 298.5 993 c 128,-1,22
 302 1007 302 1007 302 1029 c 2,23,-1
 302 1623 l 1,24,25
 300 1652 300 1652 277.5 1657 c 128,-1,26
 255 1662 255 1662 207 1662 c 1,27,-1
 207 979 l 1,19,-1
302 811 m 2,28,29
 302 821 302 821 297 839 c 256,30,31
 292 857 292 857 273 857 c 2,32,-1
 207 857 l 1,33,-1
 207 119 l 1,34,35
 231 119 231 119 249 119.5 c 128,-1,36
 267 120 267 120 278.5 124 c 128,-1,37
 290 128 290 128 296 136.5 c 128,-1,38
 302 145 302 145 302 160 c 2,39,-1
 302 811 l 2,28,29
EndSplineSet
Validated: 1
EndChar

StartChar: c
Encoding: 99 99 31
Width: 498
Flags: W
HStem: -24 119<221.639 299.917> 1681 115<216.223 299.917>
VStem: 60 156<105.828 1680.44> 300 151<95.0503 829 1032 1680.75>
LayerCount: 2
Fore
SplineSet
451 1032 m 1,0,-1
 300 1032 l 1,1,-1
 300 1649 l 2,2,3
 300 1663 300 1663 287 1672 c 128,-1,4
 274 1681 274 1681 259 1681 c 0,5,6
 216 1681 216 1681 216 1649 c 2,7,-1
 216 127 l 2,8,9
 216 116 216 116 226.5 105.5 c 128,-1,10
 237 95 237 95 259 95 c 0,11,12
 274 95 274 95 287 105.5 c 128,-1,13
 300 116 300 116 300 127 c 2,14,-1
 300 829 l 1,15,-1
 451 829 l 1,16,-1
 451 127 l 2,17,18
 451 96 451 96 435 68.5 c 128,-1,19
 419 41 419 41 392 20.5 c 128,-1,20
 365 0 365 0 330.5 -12 c 128,-1,21
 296 -24 296 -24 259 -24 c 0,22,23
 219 -24 219 -24 183 -12 c 128,-1,24
 147 0 147 0 119.5 20.5 c 128,-1,25
 92 41 92 41 76 68.5 c 128,-1,26
 60 96 60 96 60 127 c 2,27,-1
 60 1642 l 2,28,29
 60 1674 60 1674 76 1702 c 128,-1,30
 92 1730 92 1730 119.5 1751 c 128,-1,31
 147 1772 147 1772 183 1784 c 128,-1,32
 219 1796 219 1796 259 1796 c 0,33,34
 296 1796 296 1796 330.5 1784 c 128,-1,35
 365 1772 365 1772 392 1752 c 128,-1,36
 419 1732 419 1732 435 1704 c 128,-1,37
 451 1676 451 1676 451 1645 c 2,38,-1
 451 1032 l 1,0,-1
EndSplineSet
Validated: 1
EndChar

StartChar: d
Encoding: 100 100 32
Width: 515
Flags: W
HStem: 0 21G<64 111> 2.5 116.5<220 278.855> 1662 104<220 278.855> 1748 20G<64 111> 1748 20G<64 111>
VStem: 64 156<119 1662> 300 155<125.707 1655.29>
LayerCount: 2
Fore
SplineSet
300 1627 m 2,0,1
 300 1649 300 1649 279.5 1655.5 c 128,-1,2
 259 1662 259 1662 220 1662 c 1,3,-1
 220 119 l 1,4,5
 259 119 259 119 279.5 125.5 c 128,-1,6
 300 132 300 132 300 155 c 2,7,-1
 300 1627 l 2,0,1
455 157 m 2,8,9
 455 98 455 98 429.5 66 c 128,-1,10
 404 34 404 34 354 19.5 c 128,-1,11
 304 5 304 5 231 2.5 c 128,-1,12
 158 0 158 0 64 0 c 1,13,-1
 64 1768 l 1,14,15
 158 1768 158 1768 231 1766 c 128,-1,16
 304 1764 304 1764 354 1750 c 128,-1,17
 404 1736 404 1736 429.5 1705.5 c 128,-1,18
 455 1675 455 1675 455 1618 c 2,19,-1
 455 157 l 2,8,9
EndSplineSet
Validated: 1
EndChar

StartChar: e
Encoding: 101 101 33
Width: 433
Flags: W
HStem: 0 118<217 412> 874 124<217 363> 1662 106<217 412>
VStem: 66 346<0 118 1662 1768> 66 151<118 874 998 1662>
LayerCount: 2
Fore
SplineSet
412 1662 m 1,0,-1
 217 1662 l 1,1,-1
 217 998 l 1,2,-1
 363 998 l 1,3,-1
 363 874 l 1,4,-1
 217 874 l 1,5,-1
 217 118 l 1,6,-1
 412 118 l 1,7,-1
 412 0 l 1,8,-1
 66 0 l 1,9,-1
 66 1768 l 1,10,-1
 412 1768 l 1,11,-1
 412 1662 l 1,0,-1
EndSplineSet
Validated: 1
EndChar

StartChar: f
Encoding: 102 102 34
Width: 413
Flags: W
HStem: 0 21G<64 216> 882 123<216 354> 1662 106<216 407>
VStem: 64 152<0 882 1005 1662>
LayerCount: 2
Fore
SplineSet
407 1662 m 1,0,-1
 216 1662 l 1,1,-1
 216 1005 l 1,2,-1
 354 1005 l 1,3,-1
 354 882 l 1,4,-1
 216 882 l 1,5,-1
 216 0 l 1,6,-1
 64 0 l 1,7,-1
 64 1768 l 1,8,-1
 407 1768 l 1,9,-1
 407 1662 l 1,0,-1
EndSplineSet
Validated: 1
EndChar

StartChar: g
Encoding: 103 103 35
Width: 487
Flags: W
HStem: -24 114<190.462 285.934> 743 125<223 286> 1686 110<190.084 285.861>
VStem: 48 142<90.4188 1685.19> 223 207<743 868> 286 144<90.5156 743 1029 1685.24>
LayerCount: 2
Fore
SplineSet
430 1029 m 1,0,-1
 286 1029 l 1,1,-1
 286 1651 l 2,2,3
 286 1662 286 1662 273 1674 c 128,-1,4
 260 1686 260 1686 241 1686 c 0,5,6
 218 1686 218 1686 204 1674 c 128,-1,7
 190 1662 190 1662 190 1651 c 2,8,-1
 190 125 l 2,9,10
 190 113 190 113 205 101.5 c 128,-1,11
 220 90 220 90 239 90 c 0,12,13
 259 90 259 90 272.5 101.5 c 128,-1,14
 286 113 286 113 286 125 c 2,15,-1
 286 743 l 1,16,-1
 223 743 l 1,17,-1
 223 868 l 1,18,-1
 430 868 l 1,19,-1
 430 134 l 2,20,21
 430 101 430 101 414.5 72 c 128,-1,22
 399 43 399 43 373 21.5 c 128,-1,23
 347 0 347 0 313.5 -12 c 128,-1,24
 280 -24 280 -24 244 -24 c 0,25,26
 206 -24 206 -24 171 -11.5 c 128,-1,27
 136 1 136 1 108.5 23 c 128,-1,28
 81 45 81 45 64.5 74.5 c 128,-1,29
 48 104 48 104 48 137 c 2,30,-1
 48 1637 l 2,31,32
 48 1670 48 1670 64 1699 c 128,-1,33
 80 1728 80 1728 106.5 1749.5 c 128,-1,34
 133 1771 133 1771 168 1783.5 c 128,-1,35
 203 1796 203 1796 241 1796 c 0,36,37
 280 1796 280 1796 314.5 1783.5 c 128,-1,38
 349 1771 349 1771 374.5 1749.5 c 128,-1,39
 400 1728 400 1728 415 1699 c 128,-1,40
 430 1670 430 1670 430 1638 c 2,41,-1
 430 1029 l 1,0,-1
EndSplineSet
Validated: 1
EndChar

StartChar: h
Encoding: 104 104 36
Width: 519
Flags: W
HStem: 0 21G<64 216 300 455> 867 117<216 300> 1748 20G<64 216 300 455> 1748 20G<64 216 300 455>
VStem: 64 152<0 867 984 1768> 300 155<0 867 984 1768>
LayerCount: 2
Fore
SplineSet
300 1768 m 1,0,-1
 455 1768 l 1,1,-1
 455 0 l 1,2,-1
 300 0 l 1,3,-1
 300 867 l 1,4,-1
 216 867 l 1,5,-1
 216 0 l 1,6,-1
 64 0 l 1,7,-1
 64 1768 l 1,8,-1
 216 1768 l 1,9,-1
 216 984 l 1,10,-1
 300 984 l 1,11,-1
 300 1768 l 1,0,-1
EndSplineSet
Validated: 1
EndChar

StartChar: i
Encoding: 105 105 37
Width: 284
Flags: W
HStem: 0 21G<64 220> 1748 20G<64 220> 1748 20G<64 220>
VStem: 64 156<0 1768>
LayerCount: 2
Fore
SplineSet
220 1768 m 1,0,-1
 220 0 l 1,1,-1
 64 0 l 1,2,-1
 64 1768 l 1,3,-1
 220 1768 l 1,0,-1
EndSplineSet
Validated: 1
EndChar

StartChar: j
Encoding: 106 106 38
Width: 510
Flags: W
HStem: -24 119<206.116 281.632> 1748 20G<288 445> 1748 20G<288 445>
VStem: 53 153<95.0503 829> 288 157<104.282 1768>
LayerCount: 2
Fore
SplineSet
445 127 m 2,0,1
 445 96 445 96 429 68.5 c 128,-1,2
 413 41 413 41 386 20.5 c 128,-1,3
 359 0 359 0 323.5 -12 c 128,-1,4
 288 -24 288 -24 249 -24 c 256,5,6
 210 -24 210 -24 174.5 -12 c 128,-1,7
 139 0 139 0 112 20.5 c 128,-1,8
 85 41 85 41 69 68.5 c 128,-1,9
 53 96 53 96 53 127 c 2,10,-1
 53 829 l 1,11,-1
 204 829 l 1,12,-1
 204 746 l 2,13,14
 204 692 204 692 205 624.5 c 128,-1,15
 206 557 206 557 206 482 c 2,16,-1
 206 127 l 2,17,18
 206 113 206 113 219 104 c 128,-1,19
 232 95 232 95 249 95 c 0,20,21
 265 95 265 95 276.5 104 c 128,-1,22
 288 113 288 113 288 127 c 2,23,-1
 288 1768 l 1,24,-1
 445 1768 l 1,25,-1
 445 127 l 2,0,1
EndSplineSet
Validated: 1
EndChar

StartChar: k
Encoding: 107 107 39
Width: 489
Flags: W
HStem: 0 21G<64 220 312.05 469> 1748 20G<64 220 305.115 463> 1748 20G<64 220 305.115 463>
VStem: 64 156<0 644 1158 1768>
LayerCount: 2
Fore
SplineSet
469 0 m 1,0,-1
 315 0 l 1,1,-1
 220 644 l 1,2,-1
 220 0 l 1,3,-1
 64 0 l 1,4,-1
 64 1768 l 1,5,-1
 220 1768 l 1,6,-1
 220 1158 l 1,7,-1
 308 1768 l 1,8,-1
 463 1768 l 1,9,-1
 349 897 l 1,10,-1
 469 0 l 1,0,-1
EndSplineSet
Validated: 1
EndChar

StartChar: l
Encoding: 108 108 40
Width: 363
Flags: W
HStem: 0 118<216 363> 1748 20G<64 216> 1748 20G<64 216>
VStem: 64 152<118 1768>
LayerCount: 2
Fore
SplineSet
216 1768 m 1,0,-1
 216 118 l 1,1,-1
 363 118 l 1,2,-1
 363 0 l 1,3,-1
 64 0 l 1,4,-1
 64 1768 l 1,5,-1
 216 1768 l 1,0,-1
EndSplineSet
Validated: 1
EndChar

StartChar: m
Encoding: 109 109 41
Width: 645
Flags: W
HStem: 0 21G<64 216 431 581> 1748 20G<64 231.764 414.159 581> 1748 20G<64 231.764 414.159 581>
VStem: 64 166<1605.42 1768> 64 152<0 980> 295 58<35 182.256> 416 165<1612.27 1768> 431 150<0 980>
LayerCount: 2
Fore
SplineSet
416 1768 m 1,0,-1
 581 1768 l 1,1,-1
 581 0 l 1,2,-1
 431 0 l 1,3,-1
 444 980 l 1,4,-1
 353 35 l 1,5,-1
 295 35 l 1,6,-1
 203 980 l 1,7,-1
 216 0 l 1,8,-1
 64 0 l 1,9,-1
 64 1768 l 1,10,-1
 230 1768 l 1,11,-1
 321 736 l 1,12,-1
 416 1768 l 1,0,-1
EndSplineSet
Validated: 1
EndChar

StartChar: n
Encoding: 110 110 42
Width: 524
Flags: W
HStem: 0 21G<64 216 316.646 459> 1748 20G<64 205.434 319 459> 1748 20G<64 205.434 319 459>
VStem: 64 152<0 994 1764.92 1768> 319 140<0 45.3332 741 1768>
LayerCount: 2
Fore
SplineSet
459 0 m 1,0,-1
 319 0 l 1,1,-1
 202 994 l 1,2,-1
 216 0 l 1,3,-1
 64 0 l 1,4,-1
 64 1768 l 1,5,-1
 203 1768 l 1,6,-1
 328 741 l 1,7,-1
 319 1768 l 1,8,-1
 459 1768 l 1,9,-1
 459 0 l 1,0,-1
EndSplineSet
Validated: 1
EndChar

StartChar: o
Encoding: 111 111 43
Width: 532
Flags: W
HStem: -24 115<220.508 304.055> 1686 110<220.508 304.055>
VStem: 60 160<91.1868 1685.48> 311 161<101.829 1674.14>
LayerCount: 2
Fore
SplineSet
472 151 m 2,0,1
 472 115 472 115 455 83.5 c 128,-1,2
 438 52 438 52 410 28 c 128,-1,3
 382 4 382 4 344.5 -10 c 128,-1,4
 307 -24 307 -24 267 -24 c 0,5,6
 225 -24 225 -24 187 -10 c 128,-1,7
 149 4 149 4 121 28.5 c 128,-1,8
 93 53 93 53 76.5 86 c 128,-1,9
 60 119 60 119 60 157 c 2,10,-1
 60 1617 l 2,11,12
 60 1654 60 1654 76.5 1686.5 c 128,-1,13
 93 1719 93 1719 121 1743.5 c 128,-1,14
 149 1768 149 1768 187 1782 c 128,-1,15
 225 1796 225 1796 267 1796 c 0,16,17
 307 1796 307 1796 344.5 1783 c 128,-1,18
 382 1770 382 1770 410 1746.5 c 128,-1,19
 438 1723 438 1723 455 1690.5 c 128,-1,20
 472 1658 472 1658 472 1620 c 2,21,-1
 472 151 l 2,0,1
311 1645 m 2,22,23
 311 1663 311 1663 298.5 1674.5 c 128,-1,24
 286 1686 286 1686 267 1686 c 0,25,26
 249 1686 249 1686 234.5 1674.5 c 128,-1,27
 220 1663 220 1663 220 1645 c 2,28,-1
 220 127 l 2,29,30
 220 118 220 118 232 104.5 c 128,-1,31
 244 91 244 91 267 91 c 0,32,33
 286 91 286 91 298.5 101.5 c 128,-1,34
 311 112 311 112 311 127 c 2,35,-1
 311 1645 l 2,22,23
EndSplineSet
Validated: 1
EndChar

StartChar: p
Encoding: 112 112 44
Width: 496
Flags: W
HStem: 0 21G<64 216> 820 124<220 300> 1662 106<220 278.855>
VStem: 64 152<0 820 944 1662> 300 151<948.645 1656.32>
LayerCount: 2
Fore
SplineSet
451 1299 m 2,0,1
 451 1239 451 1239 450 1182.5 c 128,-1,2
 449 1126 449 1126 449 1081 c 2,3,-1
 449 981 l 2,4,5
 449 937 449 937 430 907.5 c 128,-1,6
 411 878 411 878 379 859 c 128,-1,7
 347 840 347 840 304.5 831 c 128,-1,8
 262 822 262 822 216 820 c 1,9,-1
 216 0 l 1,10,-1
 64 0 l 1,11,-1
 64 1768 l 1,12,-1
 259 1768 l 2,13,14
 298 1768 298 1768 333 1756.5 c 128,-1,15
 368 1745 368 1745 394.5 1724.5 c 128,-1,16
 421 1704 421 1704 436 1676.5 c 128,-1,17
 451 1649 451 1649 451 1618 c 2,18,-1
 451 1299 l 2,0,1
300 1627 m 2,19,20
 300 1651 300 1651 279.5 1656.5 c 128,-1,21
 259 1662 259 1662 220 1662 c 1,22,-1
 220 944 l 1,23,24
 260 944 260 944 280 948.5 c 128,-1,25
 300 953 300 953 300 977 c 2,26,-1
 300 1627 l 2,19,20
EndSplineSet
Validated: 1
EndChar

StartChar: r
Encoding: 114 114 46
Width: 503
Flags: W
HStem: 0 21G<64 213 307 455> 857 87<213 276.791> 1662 104<210 276.791> 1748 20G<64 110> 1748 20G<64 110>
VStem: 64 149<0 857 944 1662> 307 148<0 846.746 948.645 1656.84>
LayerCount: 2
Fore
SplineSet
455 1053 m 2,0,1
 455 1008 455 1008 441 979.5 c 128,-1,2
 427 951 427 951 410 934 c 0,3,4
 389 913 389 913 365 903 c 1,5,6
 389 896 389 896 410 878 c 1,7,8
 427 862 427 862 441 837 c 128,-1,9
 455 812 455 812 455 773 c 2,10,-1
 455 0 l 1,11,-1
 307 0 l 1,12,-1
 307 816 l 2,13,14
 307 839 307 839 288.5 847 c 128,-1,15
 270 855 270 855 213 857 c 1,16,-1
 213 0 l 1,17,-1
 64 0 l 1,18,-1
 64 1768 l 1,19,20
 156 1768 156 1768 228.5 1766 c 128,-1,21
 301 1764 301 1764 351.5 1750 c 128,-1,22
 402 1736 402 1736 428.5 1705.5 c 128,-1,23
 455 1675 455 1675 455 1618 c 2,24,-1
 455 1053 l 2,0,1
300 1627 m 2,25,26
 300 1652 300 1652 277.5 1657 c 128,-1,27
 255 1662 255 1662 210 1662 c 1,28,-1
 210 944 l 1,29,30
 255 944 255 944 277.5 948.5 c 128,-1,31
 300 953 300 953 300 977 c 2,32,-1
 300 1627 l 2,25,26
EndSplineSet
Validated: 1
EndChar

StartChar: s
Encoding: 115 115 47
Width: 472
Flags: W
HStem: -24 118<204.571 297.437> 1681 115<192.532 275.468>
VStem: 31 154<1181.14 1671.2> 46 151<105.346 644 1126.55 1671.2> 283 150<140.836 632.787 1155 1671.2> 298 151<94.2812 572.426>
LayerCount: 2
Fore
SplineSet
311 902 m 0,0,1
 329 854 329 854 353 787 c 128,-1,2
 377 720 377 720 398 627 c 128,-1,3
 419 534 419 534 434 412.5 c 128,-1,4
 449 291 449 291 449 136 c 0,5,6
 449 101 449 101 434 71.5 c 128,-1,7
 419 42 419 42 392 21 c 128,-1,8
 365 0 365 0 328 -12 c 128,-1,9
 291 -24 291 -24 248 -24 c 0,10,11
 204 -24 204 -24 167 -12.5 c 128,-1,12
 130 -1 130 -1 103 20 c 128,-1,13
 76 41 76 41 61 69.5 c 128,-1,14
 46 98 46 98 46 133 c 2,15,-1
 46 644 l 1,16,-1
 197 644 l 1,17,-1
 197 136 l 2,18,19
 197 116 197 116 210.5 105 c 128,-1,20
 224 94 224 94 248 94 c 0,21,22
 296 94 296 94 298 136 c 1,23,24
 298 288 298 288 282 406.5 c 128,-1,25
 266 525 266 525 242.5 617 c 128,-1,26
 219 709 219 709 192.5 778.5 c 128,-1,27
 166 848 166 848 144 902 c 256,28,29
 122 956 122 956 101 1028.5 c 128,-1,30
 80 1101 80 1101 63.5 1192.5 c 128,-1,31
 47 1284 47 1284 38 1395.5 c 128,-1,32
 29 1507 29 1507 31 1638 c 0,33,34
 31 1677 31 1677 49.5 1706.5 c 128,-1,35
 68 1736 68 1736 97 1756 c 128,-1,36
 126 1776 126 1776 162 1786 c 128,-1,37
 198 1796 198 1796 234 1796 c 256,38,39
 270 1796 270 1796 306 1786 c 128,-1,40
 342 1776 342 1776 370 1756.5 c 128,-1,41
 398 1737 398 1737 415.5 1708 c 128,-1,42
 433 1679 433 1679 433 1641 c 2,43,-1
 433 1155 l 1,44,-1
 283 1155 l 1,45,-1
 283 1642 l 2,46,47
 283 1662 283 1662 269 1671.5 c 128,-1,48
 255 1681 255 1681 234 1681 c 256,49,50
 213 1681 213 1681 199 1671.5 c 128,-1,51
 185 1662 185 1662 185 1642 c 0,52,53
 185 1518 185 1518 195.5 1409.5 c 128,-1,54
 206 1301 206 1301 224 1208.5 c 128,-1,55
 242 1116 242 1116 264.5 1039.5 c 128,-1,56
 287 963 287 963 311 902 c 0,0,1
EndSplineSet
Validated: 33
EndChar

StartChar: t
Encoding: 116 116 48
Width: 407
Flags: W
HStem: 0 21G<130 277> 1662 106<0 130 277 405>
VStem: 130 147<0 1662>
LayerCount: 2
Fore
SplineSet
405 1768 m 1,0,-1
 405 1662 l 1,1,-1
 277 1662 l 1,2,-1
 277 0 l 1,3,-1
 130 0 l 1,4,-1
 130 1662 l 1,5,-1
 0 1662 l 1,6,-1
 0 1768 l 1,7,-1
 405 1768 l 1,0,-1
EndSplineSet
Validated: 1
EndChar

StartChar: u
Encoding: 117 117 49
Width: 511
Flags: W
HStem: -24 119<214.305 287.279> 1748 20G<59 214 294 449> 1748 20G<59 214 294 449>
VStem: 59 155<95.3478 1768> 294 155<104.283 1768>
LayerCount: 2
Fore
SplineSet
294 1768 m 1,0,-1
 449 1768 l 1,1,-1
 449 125 l 2,2,3
 449 93 449 93 433 66 c 128,-1,4
 417 39 417 39 390 19 c 128,-1,5
 363 -1 363 -1 327.5 -12.5 c 128,-1,6
 292 -24 292 -24 253 -24 c 0,7,8
 215 -24 215 -24 180 -12 c 128,-1,9
 145 0 145 0 118 21 c 128,-1,10
 91 42 91 42 75 70.5 c 128,-1,11
 59 99 59 99 59 132 c 2,12,-1
 59 1768 l 1,13,-1
 214 1768 l 1,14,-1
 214 130 l 2,15,16
 214 115 214 115 226 105 c 128,-1,17
 238 95 238 95 253 95 c 0,18,19
 269 95 269 95 281.5 104 c 128,-1,20
 294 113 294 113 294 130 c 2,21,-1
 294 1768 l 1,0,-1
EndSplineSet
Validated: 1
EndChar

StartChar: v
Encoding: 118 118 50
Width: 500
Flags: W
HStem: 0 21G<141.744 361.165> 1748 20G<32 196.983 306.034 463> 1748 20G<32 196.983 306.034 463>
VStem: 32 164<1539.66 1768> 143 217<0 228.343> 307 156<1521.92 1768>
LayerCount: 2
Fore
SplineSet
307 1768 m 1,0,-1
 463 1768 l 1,1,-1
 360 0 l 1,2,-1
 143 0 l 1,3,-1
 32 1768 l 1,4,-1
 196 1768 l 1,5,-1
 252 629 l 1,6,-1
 307 1768 l 1,0,-1
EndSplineSet
Validated: 1
EndChar

StartChar: w
Encoding: 119 119 51
Width: 755
Flags: W
HStem: 0 21G<110.106 303.367 447.614 643.871> 1748 20G<32 200.522 297.06 454.954 552.478 720> 1748 20G<32 200.522 297.06 454.954 552.478 720>
VStem: 32 168<1447.16 1768> 298 156<1467.62 1768> 553 167<1438.83 1768>
LayerCount: 2
Fore
SplineSet
518 427 m 1,0,-1
 553 1768 l 1,1,-1
 720 1768 l 1,2,-1
 643 0 l 1,3,-1
 449 0 l 1,4,-1
 375 1068 l 1,5,-1
 302 0 l 1,6,-1
 111 0 l 1,7,-1
 32 1768 l 1,8,-1
 200 1768 l 1,9,-1
 235 427 l 1,10,-1
 298 1768 l 1,11,-1
 454 1768 l 1,12,-1
 518 427 l 1,0,-1
EndSplineSet
Validated: 1
EndChar

StartChar: x
Encoding: 120 120 52
Width: 458
Flags: W
HStem: 0 21G<21 175 282.5 435> 1748 20G<21 176.872 283.5 435> 1748 20G<21 176.872 283.5 435>
VStem: 21 414
LayerCount: 2
Fore
SplineSet
435 0 m 1,0,-1
 284 0 l 1,1,2
 281 21 281 21 277 47.5 c 128,-1,3
 273 74 273 74 268.5 103.5 c 128,-1,4
 264 133 264 133 259 163 c 128,-1,5
 254 193 254 193 250 222 c 0,6,7
 245 251 245 251 241.5 275.5 c 128,-1,8
 238 300 238 300 234 320 c 0,9,10
 228 360 228 360 228 360 c 1,11,12
 223 324 223 324 217 289.5 c 128,-1,13
 211 255 211 255 206 221 c 0,14,15
 201 192 201 192 196 162 c 128,-1,16
 191 132 191 132 187 102.5 c 128,-1,17
 183 73 183 73 179.5 47 c 128,-1,18
 176 21 176 21 174 0 c 1,19,-1
 21 0 l 1,20,-1
 154 875 l 1,21,-1
 21 1768 l 1,22,-1
 174 1768 l 1,23,-1
 228 1392 l 1,24,25
 229 1401 229 1401 233.5 1430 c 128,-1,26
 238 1459 238 1459 243.5 1498 c 128,-1,27
 249 1537 249 1537 256 1580.5 c 128,-1,28
 263 1624 263 1624 268.5 1662.5 c 128,-1,29
 274 1701 274 1701 278.5 1730 c 128,-1,30
 283 1759 283 1759 284 1768 c 1,31,-1
 435 1768 l 1,32,-1
 304 875 l 1,33,-1
 435 0 l 1,0,-1
EndSplineSet
Validated: 16385
EndChar

StartChar: y
Encoding: 121 121 53
Width: 490
Flags: W
HStem: 0 21G<167 321> 1748 20G<29 187.428 302.49 458> 1748 20G<29 187.428 302.49 458>
VStem: 167 154<0 799.299>
LayerCount: 2
Fore
SplineSet
321 687 m 1,0,-1
 321 0 l 1,1,-1
 167 0 l 1,2,-1
 167 687 l 1,3,-1
 29 1768 l 1,4,-1
 185 1768 l 1,5,-1
 244 1282 l 1,6,-1
 305 1768 l 1,7,-1
 458 1768 l 1,8,-1
 321 687 l 1,0,-1
EndSplineSet
Validated: 1
EndChar

StartChar: z
Encoding: 122 122 54
Width: 379
Flags: W
HStem: 0 118<195 357> 1662 106<29 206>
VStem: 28 329<0 118 1662 1768>
LayerCount: 2
Fore
SplineSet
354 1768 m 1,0,-1
 195 118 l 1,1,-1
 357 118 l 1,2,-1
 357 0 l 1,3,-1
 28 0 l 1,4,-1
 206 1662 l 1,5,-1
 29 1662 l 1,6,-1
 29 1768 l 1,7,-1
 354 1768 l 1,0,-1
EndSplineSet
Validated: 1
EndChar

StartChar: Oslash
Encoding: 216 216 55
Width: 543
Flags: W
HStem: -24 126<223.892 324.791> 1952 123<223.892 324.765>
VStem: 60 156<116.438 315.955 627 1937.56> 325 158<103.538 1425 1736.91 1950.52>
LayerCount: 2
Fore
SplineSet
60 1903 m 2,0,1
 60 1938 60 1938 77 1969.5 c 128,-1,2
 94 2001 94 2001 122.5 2024.5 c 128,-1,3
 151 2048 151 2048 189 2061.5 c 128,-1,4
 227 2075 227 2075 269 2075 c 0,5,6
 313 2075 313 2075 352 2061 c 128,-1,7
 391 2047 391 2047 420 2023 c 128,-1,8
 449 1999 449 1999 466 1967.5 c 128,-1,9
 483 1936 483 1936 483 1901 c 2,10,-1
 483 151 l 2,11,12
 483 114 483 114 466 82 c 128,-1,13
 449 50 449 50 420 26.5 c 128,-1,14
 391 3 391 3 352 -10.5 c 128,-1,15
 313 -24 313 -24 269 -24 c 0,16,17
 227 -24 227 -24 189 -10.5 c 128,-1,18
 151 3 151 3 122.5 26 c 128,-1,19
 94 49 94 49 77 79.5 c 128,-1,20
 60 110 60 110 60 144 c 2,21,-1
 60 1903 l 2,0,1
216 148 m 1,22,23
 216 130 216 130 230.5 116 c 128,-1,24
 245 102 245 102 269 102 c 256,25,26
 293 102 293 102 309 116 c 128,-1,27
 325 130 325 130 325 148 c 2,28,-1
 325 1425 l 1,29,-1
 216 148 l 1,22,23
325 1905 m 1,30,31
 325 1924 325 1924 308 1938 c 128,-1,32
 291 1952 291 1952 269 1952 c 0,33,34
 245 1952 245 1952 230.5 1938 c 128,-1,35
 216 1924 216 1924 216 1905 c 2,36,-1
 216 627 l 1,37,-1
 325 1905 l 1,30,31
EndSplineSet
Validated: 1
EndChar

StartChar: oslash
Encoding: 248 248 56
Width: 532
Flags: W
HStem: -24 115<221.06 305.271> 1686 110<221.06 305.271>
VStem: 62 159<91.1868 544.557 846 1685.48> 312 161<101.829 970 1287.45 1674.14>
LayerCount: 2
Fore
SplineSet
473 151 m 2,0,1
 473 115 473 115 456.5 83.5 c 128,-1,2
 440 52 440 52 412 28 c 128,-1,3
 384 4 384 4 347 -10 c 128,-1,4
 310 -24 310 -24 269 -24 c 0,5,6
 226 -24 226 -24 188.5 -10 c 128,-1,7
 151 4 151 4 123 28.5 c 128,-1,8
 95 53 95 53 78.5 86 c 128,-1,9
 62 119 62 119 62 157 c 2,10,-1
 62 1617 l 2,11,12
 62 1654 62 1654 78.5 1686.5 c 128,-1,13
 95 1719 95 1719 123 1743.5 c 128,-1,14
 151 1768 151 1768 188.5 1782 c 128,-1,15
 226 1796 226 1796 269 1796 c 0,16,17
 310 1796 310 1796 347 1783 c 128,-1,18
 384 1770 384 1770 412 1746.5 c 128,-1,19
 440 1723 440 1723 456.5 1690.5 c 128,-1,20
 473 1658 473 1658 473 1620 c 2,21,-1
 473 151 l 2,0,1
312 970 m 1,22,-1
 221 465 l 1,23,-1
 221 127 l 2,24,25
 221 118 221 118 233 104.5 c 128,-1,26
 245 91 245 91 269 91 c 0,27,28
 287 91 287 91 299.5 101.5 c 128,-1,29
 312 112 312 112 312 127 c 2,30,-1
 312 970 l 1,22,-1
312 1370 m 1,31,-1
 312 1645 l 2,32,33
 312 1663 312 1663 299.5 1674.5 c 128,-1,34
 287 1686 287 1686 269 1686 c 256,35,36
 251 1686 251 1686 236 1674.5 c 128,-1,37
 221 1663 221 1663 221 1645 c 2,38,-1
 221 846 l 1,39,-1
 312 1370 l 1,31,-1
EndSplineSet
Validated: 1
EndChar

StartChar: A
Encoding: 65 65 58
Width: 489
Flags: W
HStem: 0 21G<20 170.159 316.927 469> 466 104<204 283> 2028 20G<131.896 355.123>
VStem: 133 221<1792.69 2048>
LayerCount: 2
Fore
SplineSet
469 0 m 1,0,-1
 318 0 l 1,1,-1
 293 466 l 1,2,-1
 196 466 l 1,3,-1
 169 0 l 1,4,-1
 20 0 l 1,5,-1
 133 2048 l 1,6,-1
 354 2048 l 1,7,-1
 469 0 l 1,0,-1
283 570 m 1,8,-1
 244 1715 l 1,9,-1
 204 570 l 1,10,-1
 283 570 l 1,8,-1
EndSplineSet
Validated: 1
EndChar

StartChar: bracketright
Encoding: 93 93 60
Width: 456
Flags: W
HStem: -127 134<-1 169> 2044 137<-1 169>
VStem: -1 329<-127 7 2044 2181> 169 159<7 2044>
LayerCount: 2
Fore
SplineSet
328 2181 m 1,0,-1
 328 -127 l 1,1,-1
 -1 -127 l 1,2,-1
 -1 7 l 1,3,-1
 169 7 l 1,4,-1
 169 2044 l 1,5,-1
 -1 2044 l 1,6,-1
 -1 2181 l 1,7,-1
 328 2181 l 1,0,-1
EndSplineSet
Validated: 1
EndChar

StartChar: eight
Encoding: 56 56 64
Width: 508
Flags: W
HStem: -13 138<215.87 300.757> 1918 136<216.355 294.179>
VStem: 52 158<142.016 906.992 1234.81 1903.56> 301 154<125.375 919.104 1230.79 1903.56>
LayerCount: 2
Fore
SplineSet
455 1551 m 2,0,1
 455 1454 455 1454 445 1382 c 128,-1,2
 435 1310 435 1310 418 1254.5 c 128,-1,3
 401 1199 401 1199 379 1155.5 c 128,-1,4
 357 1112 357 1112 332 1072 c 1,5,6
 356 1033 356 1033 378 992 c 128,-1,7
 400 951 400 951 417 900.5 c 128,-1,8
 434 850 434 850 444.5 787.5 c 128,-1,9
 455 725 455 725 455 643 c 2,10,-1
 455 161 l 2,11,12
 455 124 455 124 439.5 92.5 c 128,-1,13
 424 61 424 61 397 37.5 c 128,-1,14
 370 14 370 14 333.5 0.5 c 128,-1,15
 297 -13 297 -13 256 -13 c 0,16,17
 217 -13 217 -13 180 1 c 128,-1,18
 143 15 143 15 114.5 38.5 c 128,-1,19
 86 62 86 62 69 93.5 c 128,-1,20
 52 125 52 125 52 161 c 0,21,22
 52 313 52 313 53 427.5 c 128,-1,23
 54 542 54 542 58.5 629 c 128,-1,24
 63 716 63 716 71 780 c 128,-1,25
 79 844 79 844 93 894.5 c 128,-1,26
 107 945 107 945 127.5 987 c 128,-1,27
 148 1029 148 1029 178 1072 c 1,28,29
 152 1115 152 1115 129.5 1158.5 c 128,-1,30
 107 1202 107 1202 89.5 1256.5 c 128,-1,31
 72 1311 72 1311 62 1383 c 128,-1,32
 52 1455 52 1455 52 1554 c 2,33,-1
 52 1879 l 2,34,35
 52 1915 52 1915 68 1946.5 c 128,-1,36
 84 1978 84 1978 112 2002 c 128,-1,37
 140 2026 140 2026 177 2040 c 128,-1,38
 214 2054 214 2054 256 2054 c 0,39,40
 296 2054 296 2054 332 2040.5 c 128,-1,41
 368 2027 368 2027 395.5 2003.5 c 128,-1,42
 423 1980 423 1980 439 1949 c 128,-1,43
 455 1918 455 1918 455 1883 c 2,44,-1
 455 1551 l 2,0,1
209 174 m 1,45,46
 210 158 210 158 221 141.5 c 128,-1,47
 232 125 232 125 256 125 c 0,48,49
 277 125 277 125 289 141.5 c 128,-1,50
 301 158 301 158 301 174 c 2,51,-1
 301 458 l 2,52,53
 301 530 301 530 297.5 605.5 c 128,-1,54
 294 681 294 681 288 747.5 c 128,-1,55
 282 814 282 814 274 865.5 c 128,-1,56
 266 917 266 917 256 941 c 1,57,58
 245 916 245 916 236.5 865.5 c 128,-1,59
 228 815 228 815 222 749 c 128,-1,60
 216 683 216 683 212.5 607 c 128,-1,61
 209 531 209 531 209 455 c 2,62,-1
 209 174 l 1,45,46
301 1868 m 2,63,64
 301 1890 301 1890 289 1904 c 128,-1,65
 277 1918 277 1918 256 1918 c 0,66,67
 234 1918 234 1918 222 1904 c 128,-1,68
 210 1890 210 1890 210 1868 c 2,69,-1
 210 1534 l 2,70,71
 210 1486 210 1486 213.5 1434.5 c 128,-1,72
 217 1383 217 1383 223 1335.5 c 128,-1,73
 229 1288 229 1288 237.5 1249.5 c 128,-1,74
 246 1211 246 1211 256 1189 c 1,75,76
 277 1238 277 1238 289 1332 c 0,77,78
 301 1425 301 1425 301 1534 c 2,79,-1
 301 1868 l 2,63,64
EndSplineSet
Validated: 1
EndChar

StartChar: six
Encoding: 54 54 65
Width: 524
Flags: W
HStem: -13 139<216.56 301.331> 1049 134<216 307.763> 1919 135<216.356 301.331>
VStem: 60 156<126.958 1036 1173 1917.9> 308 155<137.345 1048.06 1406 1907.65>
LayerCount: 2
Fore
SplineSet
216 1173 m 1,0,1
 218 1173 218 1173 236.5 1178 c 128,-1,2
 255 1183 255 1183 274 1183 c 0,3,4
 315 1183 315 1183 350 1169.5 c 128,-1,5
 385 1156 385 1156 410 1132.5 c 128,-1,6
 435 1109 435 1109 449 1078 c 128,-1,7
 463 1047 463 1047 463 1012 c 2,8,-1
 463 160 l 2,9,10
 463 123 463 123 447 91.5 c 128,-1,11
 431 60 431 60 404 36.5 c 128,-1,12
 377 13 377 13 341 0 c 128,-1,13
 305 -13 305 -13 265 -13 c 0,14,15
 222 -13 222 -13 184.5 1 c 128,-1,16
 147 15 147 15 119.5 39 c 128,-1,17
 92 63 92 63 76 95.5 c 128,-1,18
 60 128 60 128 60 165 c 2,19,-1
 60 1880 l 2,20,21
 60 1917 60 1917 76 1949 c 128,-1,22
 92 1981 92 1981 120 2004 c 128,-1,23
 148 2027 148 2027 185.5 2040.5 c 128,-1,24
 223 2054 223 2054 265 2054 c 0,25,26
 305 2054 305 2054 341 2040.5 c 128,-1,27
 377 2027 377 2027 404 2004 c 128,-1,28
 431 1981 431 1981 447 1949 c 128,-1,29
 463 1917 463 1917 463 1880 c 2,30,-1
 463 1406 l 1,31,-1
 308 1406 l 1,32,-1
 308 1880 l 2,33,34
 308 1897 308 1897 295.5 1908 c 128,-1,35
 283 1919 283 1919 265 1919 c 0,36,37
 246 1919 246 1919 231 1908 c 128,-1,38
 216 1897 216 1897 216 1880 c 2,39,-1
 216 1173 l 1,0,1
265 1049 m 0,40,41
 245 1049 245 1049 231.5 1042.5 c 128,-1,42
 218 1036 218 1036 216 1036 c 1,43,-1
 216 165 l 2,44,45
 216 148 216 148 231 137 c 128,-1,46
 246 126 246 126 265 126 c 0,47,48
 283 126 283 126 295.5 137 c 128,-1,49
 308 148 308 148 308 165 c 2,50,-1
 308 1007 l 2,51,52
 308 1021 308 1021 294.5 1035 c 128,-1,53
 281 1049 281 1049 265 1049 c 0,40,41
EndSplineSet
Validated: 1
EndChar

StartChar: nine
Encoding: 57 57 66
Width: 525
Flags: W
HStem: -14 136<216.223 307.644> 857 137<216.897 308> 1917 135<216.225 307.44>
VStem: 60 156<122.099 637 994.879 1916.38> 308 157<122.766 871 1007 1916.01>
LayerCount: 2
Fore
SplineSet
308 871 m 1,0,1
 305 871 305 871 287.5 864 c 128,-1,2
 270 857 270 857 251 857 c 0,3,4
 209 857 209 857 174.5 870.5 c 128,-1,5
 140 884 140 884 115.5 908 c 128,-1,6
 91 932 91 932 76.5 964 c 128,-1,7
 62 996 62 996 60 1032 c 1,8,-1
 60 1880 l 2,9,10
 60 1918 60 1918 76 1949.5 c 128,-1,11
 92 1981 92 1981 119.5 2004 c 128,-1,12
 147 2027 147 2027 183 2039.5 c 128,-1,13
 219 2052 219 2052 259 2052 c 0,14,15
 302 2052 302 2052 339.5 2038.5 c 128,-1,16
 377 2025 377 2025 405 2001.5 c 128,-1,17
 433 1978 433 1978 449 1945.5 c 128,-1,18
 465 1913 465 1913 465 1875 c 2,19,-1
 465 162 l 2,20,21
 465 126 465 126 448.5 94 c 128,-1,22
 432 62 432 62 404 38 c 128,-1,23
 376 14 376 14 338.5 0 c 128,-1,24
 301 -14 301 -14 259 -14 c 0,25,26
 219 -14 219 -14 183 -0.5 c 128,-1,27
 147 13 147 13 119.5 36 c 128,-1,28
 92 59 92 59 76 91 c 128,-1,29
 60 123 60 123 60 160 c 2,30,-1
 60 637 l 1,31,-1
 216 637 l 1,32,-1
 216 162 l 2,33,34
 216 146 216 146 229 134 c 128,-1,35
 242 122 242 122 259 122 c 0,36,37
 277 122 277 122 292.5 134 c 128,-1,38
 308 146 308 146 308 162 c 2,39,-1
 308 871 l 1,0,1
259 994 m 0,40,41
 280 994 280 994 292.5 1000.5 c 128,-1,42
 305 1007 305 1007 308 1007 c 1,43,-1
 308 1875 l 2,44,45
 308 1891 308 1891 292.5 1904 c 128,-1,46
 277 1917 277 1917 259 1917 c 0,47,48
 242 1917 242 1917 229 1904 c 128,-1,49
 216 1891 216 1891 216 1875 c 2,50,-1
 216 1035 l 2,51,52
 216 1019 216 1019 230 1006.5 c 128,-1,53
 244 994 244 994 259 994 c 0,40,41
EndSplineSet
Validated: 1
EndChar

StartChar: zero
Encoding: 48 48 67
Width: 525
Flags: W
HStem: 0 137<224.317 301.663> 1903 134<227.769 301.663>
VStem: 60 156<148.861 1891.14> 308 157<149.376 1891.14>
LayerCount: 2
Fore
SplineSet
465 172 m 2,0,1
 465 136 465 136 449 105 c 128,-1,2
 433 74 433 74 405.5 50.5 c 128,-1,3
 378 27 378 27 341.5 13.5 c 128,-1,4
 305 0 305 0 265 0 c 0,5,6
 223 0 223 0 185.5 14 c 128,-1,7
 148 28 148 28 120 52 c 128,-1,8
 92 76 92 76 76 108.5 c 128,-1,9
 60 141 60 141 60 178 c 2,10,-1
 60 1862 l 2,11,12
 60 1898 60 1898 76 1929.5 c 128,-1,13
 92 1961 92 1961 120 1985 c 128,-1,14
 148 2009 148 2009 185.5 2023 c 128,-1,15
 223 2037 223 2037 265 2037 c 0,16,17
 305 2037 305 2037 341.5 2023.5 c 128,-1,18
 378 2010 378 2010 405.5 1987 c 128,-1,19
 433 1964 433 1964 449 1932 c 128,-1,20
 465 1900 465 1900 465 1863 c 2,21,-1
 465 172 l 2,0,1
308 1862 m 2,22,23
 308 1880 308 1880 296 1891.5 c 128,-1,24
 284 1903 284 1903 265 1903 c 256,25,26
 246 1903 246 1903 233.5 1891.5 c 128,-1,27
 221 1880 221 1880 221 1862 c 0,28,29
 221 1846 221 1846 221 1793 c 128,-1,30
 221 1740 221 1740 220.5 1658.5 c 128,-1,31
 220 1577 220 1577 219.5 1471 c 128,-1,32
 219 1365 219 1365 218.5 1242.5 c 128,-1,33
 218 1120 218 1120 217.5 986 c 128,-1,34
 217 852 217 852 216.5 715 c 128,-1,35
 216 578 216 578 216 441.5 c 128,-1,36
 216 305 216 305 216 178 c 1,37,38
 218 160 218 160 231.5 148.5 c 128,-1,39
 245 137 245 137 265 137 c 0,40,41
 284 137 284 137 296 149 c 128,-1,42
 308 161 308 161 308 178 c 2,43,-1
 308 1862 l 2,22,23
EndSplineSet
Validated: 1
EndChar

StartChar: registered
Encoding: 174 174 69
Width: 1714
Flags: W
HStem: 413 143<614.399 1097.87> 1204 85<802 866.822> 1700 112<801 866.822> 1928 143<613.999 1097.87>
VStem: 28 153<995.177 1487.89> 659 143<694 1204 1289 1700> 903 140<694 1200.68 1294.16 1694.84> 1533 153<995.57 1487.89>
LayerCount: 2
Fore
SplineSet
1043 1400 m 2,0,1
 1043 1355 1043 1355 1028.5 1326.5 c 128,-1,2
 1014 1298 1014 1298 997 1281 c 0,3,4
 976 1260 976 1260 952 1250 c 1,5,6
 965 1245 965 1245 976 1238.5 c 128,-1,7
 987 1232 987 1232 997 1224 c 1,8,9
 1014 1208 1014 1208 1028.5 1183.5 c 128,-1,10
 1043 1159 1043 1159 1043 1119 c 2,11,-1
 1043 694 l 1,12,-1
 903 694 l 1,13,-1
 903 1162 l 2,14,15
 903 1173 903 1173 899.5 1181 c 128,-1,16
 896 1189 896 1189 885.5 1194 c 128,-1,17
 875 1199 875 1199 855 1201.5 c 128,-1,18
 835 1204 835 1204 802 1204 c 1,19,-1
 802 694 l 1,20,-1
 659 694 l 1,21,-1
 659 1814 l 1,22,23
 750 1814 750 1814 821.5 1812 c 128,-1,24
 893 1810 893 1810 942 1796 c 128,-1,25
 991 1782 991 1782 1017 1752 c 128,-1,26
 1043 1722 1043 1722 1043 1666 c 2,27,-1
 1043 1400 l 2,0,1
889 1666 m 2,28,29
 889 1690 889 1690 867.5 1695 c 128,-1,30
 846 1700 846 1700 801 1700 c 1,31,-1
 801 1289 l 1,32,33
 846 1289 846 1289 867.5 1294 c 128,-1,34
 889 1299 889 1299 889 1324 c 2,35,-1
 889 1666 l 2,28,29
28 1242 m 256,36,37
 28 1356 28 1356 57.5 1462 c 128,-1,38
 87 1568 87 1568 141 1660 c 128,-1,39
 195 1752 195 1752 271 1827.5 c 128,-1,40
 347 1903 347 1903 439 1957 c 128,-1,41
 531 2011 531 2011 637 2041 c 128,-1,42
 743 2071 743 2071 857 2071 c 256,43,44
 971 2071 971 2071 1077 2041 c 128,-1,45
 1183 2011 1183 2011 1275 1957 c 128,-1,46
 1367 1903 1367 1903 1442.5 1827.5 c 128,-1,47
 1518 1752 1518 1752 1572 1660 c 128,-1,48
 1626 1568 1626 1568 1656 1462 c 128,-1,49
 1686 1356 1686 1356 1686 1242 c 256,50,51
 1686 1128 1686 1128 1656 1022 c 128,-1,52
 1626 916 1626 916 1572 824 c 128,-1,53
 1518 732 1518 732 1442.5 656 c 128,-1,54
 1367 580 1367 580 1275 526 c 128,-1,55
 1183 472 1183 472 1077 442.5 c 128,-1,56
 971 413 971 413 857 413 c 256,57,58
 743 413 743 413 637 442.5 c 128,-1,59
 531 472 531 472 439 526 c 128,-1,60
 347 580 347 580 271 656 c 128,-1,61
 195 732 195 732 141 824 c 128,-1,62
 87 916 87 916 57.5 1022 c 128,-1,63
 28 1128 28 1128 28 1242 c 256,36,37
181 1242 m 0,64,65
 181 1100 181 1100 233.5 975 c 128,-1,66
 286 850 286 850 377 757 c 128,-1,67
 468 664 468 664 591.5 610 c 128,-1,68
 715 556 715 556 857 556 c 0,69,70
 951 556 951 556 1038 580.5 c 128,-1,71
 1125 605 1125 605 1200 649.5 c 128,-1,72
 1275 694 1275 694 1336.5 756.5 c 128,-1,73
 1398 819 1398 819 1441.5 895.5 c 128,-1,74
 1485 972 1485 972 1509 1059.5 c 128,-1,75
 1533 1147 1533 1147 1533 1242 c 0,76,77
 1533 1336 1533 1336 1509 1423.5 c 128,-1,78
 1485 1511 1485 1511 1441.5 1587 c 128,-1,79
 1398 1663 1398 1663 1336.5 1726 c 128,-1,80
 1275 1789 1275 1789 1200 1834 c 128,-1,81
 1125 1879 1125 1879 1038 1903.5 c 128,-1,82
 951 1928 951 1928 857 1928 c 0,83,84
 762 1928 762 1928 675 1903.5 c 128,-1,85
 588 1879 588 1879 513 1834 c 128,-1,86
 438 1789 438 1789 377 1726 c 128,-1,87
 316 1663 316 1663 272.5 1587 c 128,-1,88
 229 1511 229 1511 205 1423.5 c 128,-1,89
 181 1336 181 1336 181 1242 c 0,64,65
EndSplineSet
Validated: 1
EndChar

StartChar: copyright
Encoding: 169 169 70
Width: 1714
Flags: W
HStem: 413 143<614.399 1097.87> 676 119<798.695 902> 1679 117<798.695 902> 1928 143<613.999 1097.87>
VStem: 28 153<995.177 1487.89> 643 155<795.962 1677.66> 902 151<795.962 1134 1337 1678.01> 1533 153<995.57 1487.89>
LayerCount: 2
Fore
SplineSet
1053 1337 m 1,0,-1
 902 1337 l 1,1,-1
 902 1642 l 2,2,3
 902 1650 902 1650 896.5 1656.5 c 128,-1,4
 891 1663 891 1663 883 1668 c 128,-1,5
 875 1673 875 1673 866 1676 c 128,-1,6
 857 1679 857 1679 851 1679 c 0,7,8
 832 1679 832 1679 815 1668.5 c 128,-1,9
 798 1658 798 1658 798 1642 c 2,10,-1
 798 827 l 2,11,12
 798 816 798 816 814 805.5 c 128,-1,13
 830 795 830 795 851 795 c 0,14,15
 859 795 859 795 868 798 c 128,-1,16
 877 801 877 801 884.5 805.5 c 128,-1,17
 892 810 892 810 897 815.5 c 128,-1,18
 902 821 902 821 902 827 c 2,19,-1
 902 1134 l 1,20,-1
 1053 1134 l 1,21,-1
 1053 827 l 2,22,23
 1053 796 1053 796 1035.5 768.5 c 128,-1,24
 1018 741 1018 741 989.5 720.5 c 128,-1,25
 961 700 961 700 924.5 688 c 128,-1,26
 888 676 888 676 851 676 c 0,27,28
 810 676 810 676 772.5 688 c 128,-1,29
 735 700 735 700 706.5 720.5 c 128,-1,30
 678 741 678 741 660.5 768.5 c 128,-1,31
 643 796 643 796 643 827 c 2,32,-1
 643 1642 l 2,33,34
 643 1674 643 1674 660.5 1702 c 128,-1,35
 678 1730 678 1730 706.5 1751 c 128,-1,36
 735 1772 735 1772 772.5 1784 c 128,-1,37
 810 1796 810 1796 851 1796 c 0,38,39
 888 1796 888 1796 924.5 1784 c 128,-1,40
 961 1772 961 1772 989.5 1752 c 128,-1,41
 1018 1732 1018 1732 1035.5 1704 c 128,-1,42
 1053 1676 1053 1676 1053 1645 c 2,43,-1
 1053 1337 l 1,0,-1
28 1242 m 256,44,45
 28 1356 28 1356 57.5 1462 c 128,-1,46
 87 1568 87 1568 141 1660 c 128,-1,47
 195 1752 195 1752 271 1827.5 c 128,-1,48
 347 1903 347 1903 439 1957 c 128,-1,49
 531 2011 531 2011 637 2041 c 128,-1,50
 743 2071 743 2071 857 2071 c 256,51,52
 971 2071 971 2071 1077 2041 c 128,-1,53
 1183 2011 1183 2011 1275 1957 c 128,-1,54
 1367 1903 1367 1903 1442.5 1827.5 c 128,-1,55
 1518 1752 1518 1752 1572 1660 c 128,-1,56
 1626 1568 1626 1568 1656 1462 c 128,-1,57
 1686 1356 1686 1356 1686 1242 c 256,58,59
 1686 1128 1686 1128 1656 1022 c 128,-1,60
 1626 916 1626 916 1572 824 c 128,-1,61
 1518 732 1518 732 1442.5 656 c 128,-1,62
 1367 580 1367 580 1275 526 c 128,-1,63
 1183 472 1183 472 1077 442.5 c 128,-1,64
 971 413 971 413 857 413 c 256,65,66
 743 413 743 413 637 442.5 c 128,-1,67
 531 472 531 472 439 526 c 128,-1,68
 347 580 347 580 271 656 c 128,-1,69
 195 732 195 732 141 824 c 128,-1,70
 87 916 87 916 57.5 1022 c 128,-1,71
 28 1128 28 1128 28 1242 c 256,44,45
181 1242 m 0,72,73
 181 1100 181 1100 233.5 975 c 128,-1,74
 286 850 286 850 377 757 c 128,-1,75
 468 664 468 664 591.5 610 c 128,-1,76
 715 556 715 556 857 556 c 0,77,78
 951 556 951 556 1038 580.5 c 128,-1,79
 1125 605 1125 605 1200 649.5 c 128,-1,80
 1275 694 1275 694 1336.5 756.5 c 128,-1,81
 1398 819 1398 819 1441.5 895.5 c 128,-1,82
 1485 972 1485 972 1509 1059.5 c 128,-1,83
 1533 1147 1533 1147 1533 1242 c 0,84,85
 1533 1336 1533 1336 1509 1423.5 c 128,-1,86
 1485 1511 1485 1511 1441.5 1587 c 128,-1,87
 1398 1663 1398 1663 1336.5 1726 c 128,-1,88
 1275 1789 1275 1789 1200 1834 c 128,-1,89
 1125 1879 1125 1879 1038 1903.5 c 128,-1,90
 951 1928 951 1928 857 1928 c 0,91,92
 762 1928 762 1928 675 1903.5 c 128,-1,93
 588 1879 588 1879 513 1834 c 128,-1,94
 438 1789 438 1789 377 1726 c 128,-1,95
 316 1663 316 1663 272.5 1587 c 128,-1,96
 229 1511 229 1511 205 1423.5 c 128,-1,97
 181 1336 181 1336 181 1242 c 0,72,73
EndSplineSet
Validated: 1
EndChar

StartChar: one
Encoding: 49 49 71
Width: 462
Flags: W
HStem: 0 134<14 162 321 451> 1908 136<14 162>
VStem: 162 159<134 1908>
LayerCount: 2
Fore
SplineSet
14 134 m 1,0,-1
 162 134 l 1,1,-1
 162 1908 l 1,2,-1
 14 1908 l 1,3,-1
 14 2044 l 1,4,-1
 321 2044 l 1,5,-1
 321 134 l 1,6,-1
 451 134 l 1,7,-1
 451 0 l 1,8,-1
 14 0 l 1,9,-1
 14 134 l 1,0,-1
EndSplineSet
Validated: 1
EndChar

StartChar: exclam
Encoding: 33 33 72
Width: 301
Flags: W
HStem: 0 175<70 228> 2028 20G<52 248>
VStem: 52 196<1578.97 2048> 70 158<0 175> 105 90<314 783.031>
LayerCount: 2
Fore
SplineSet
248 2048 m 1,0,-1
 195 314 l 1,1,-1
 105 314 l 1,2,-1
 52 2048 l 1,3,-1
 248 2048 l 1,0,-1
228 175 m 1,4,-1
 228 0 l 1,5,-1
 70 0 l 1,6,-1
 70 175 l 1,7,-1
 228 175 l 1,4,-1
EndSplineSet
Validated: 1
EndChar

StartChar: ampersand
Encoding: 38 38 73
Width: 571
Flags: W
HStem: -24 126<216.422 317.94> 739 132<483 584> 996 137<222.813 328> 1946 129<216.415 317.94>
VStem: 60 156<102.903 993.517 1138.29 1945.15> 326 258<742 871> 326 157<116.438 739 1252 1933.11>
LayerCount: 2
Fore
SplineSet
483 1252 m 1,0,-1
 326 1252 l 1,1,-1
 326 1905 l 2,2,3
 326 1921 326 1921 310.5 1933.5 c 128,-1,4
 295 1946 295 1946 269 1946 c 0,5,6
 248 1946 248 1946 232 1933.5 c 128,-1,7
 216 1921 216 1921 216 1905 c 2,8,-1
 216 1235 l 2,9,10
 216 1196 216 1196 223.5 1175.5 c 128,-1,11
 231 1155 231 1155 245 1145.5 c 128,-1,12
 259 1136 259 1136 280 1134.5 c 128,-1,13
 301 1133 301 1133 328 1133 c 1,14,-1
 328 997 l 1,15,16
 301 997 301 997 280 996 c 128,-1,17
 259 995 259 995 245 989 c 128,-1,18
 231 983 231 983 223.5 968.5 c 128,-1,19
 216 954 216 954 216 927 c 2,20,-1
 216 148 l 2,21,22
 216 130 216 130 232 116 c 128,-1,23
 248 102 248 102 269 102 c 0,24,25
 295 102 295 102 310.5 116 c 128,-1,26
 326 130 326 130 326 148 c 2,27,-1
 326 871 l 1,28,-1
 585 871 l 1,29,-1
 584 742 l 1,30,-1
 483 739 l 1,31,-1
 483 144 l 2,32,33
 483 110 483 110 466 79.5 c 128,-1,34
 449 49 449 49 420 26 c 128,-1,35
 391 3 391 3 352 -10.5 c 128,-1,36
 313 -24 313 -24 269 -24 c 0,37,38
 227 -24 227 -24 189 -10.5 c 128,-1,39
 151 3 151 3 122.5 26.5 c 128,-1,40
 94 50 94 50 77 81 c 128,-1,41
 60 112 60 112 60 148 c 2,42,-1
 60 931 l 2,43,44
 60 977 60 977 78.5 1006 c 128,-1,45
 97 1035 97 1035 120 1050 c 1,46,47
 145 1068 145 1068 181 1077 c 1,48,49
 147 1084 147 1084 120 1105 c 1,50,51
 97 1121 97 1121 78.5 1152 c 128,-1,52
 60 1183 60 1183 60 1235 c 2,53,-1
 60 1905 l 2,54,55
 60 1940 60 1940 77 1971 c 128,-1,56
 94 2002 94 2002 122.5 2025 c 128,-1,57
 151 2048 151 2048 189 2061.5 c 128,-1,58
 227 2075 227 2075 269 2075 c 0,59,60
 313 2075 313 2075 352 2062 c 128,-1,61
 391 2049 391 2049 420 2026 c 128,-1,62
 449 2003 449 2003 466 1972 c 128,-1,63
 483 1941 483 1941 483 1905 c 2,64,-1
 483 1252 l 1,0,-1
EndSplineSet
Validated: 1
EndChar

StartChar: Thorn
Encoding: 222 222 76
Width: 522
Flags: W
HStem: 0 21G<64 220> 532 134<220 296.758> 1645 123<220 320.754> 2028 20G<64 220>
VStem: 64 156<0 532 666 1645 1768 2048> 321 159<674.772 1634.68>
LayerCount: 2
Fore
SplineSet
480 708 m 2,0,1
 480 610 480 610 413.5 571 c 128,-1,2
 347 532 347 532 220 532 c 1,3,-1
 220 0 l 1,4,-1
 64 0 l 1,5,-1
 64 2048 l 1,6,-1
 220 2048 l 1,7,-1
 220 1768 l 1,8,-1
 267 1768 l 2,9,10
 311 1768 311 1768 349.5 1755 c 128,-1,11
 388 1742 388 1742 417 1718 c 128,-1,12
 446 1694 446 1694 463 1659.5 c 128,-1,13
 480 1625 480 1625 480 1581 c 2,14,-1
 480 708 l 2,0,1
321 1595 m 2,15,16
 321 1625 321 1625 293 1635 c 128,-1,17
 265 1645 265 1645 220 1645 c 1,18,-1
 220 666 l 1,19,20
 274 666 274 666 297.5 674.5 c 128,-1,21
 321 683 321 683 321 717 c 2,22,-1
 321 1595 l 2,15,16
EndSplineSet
Validated: 1
EndChar

StartChar: germandbls
Encoding: 223 223 77
Width: 543
Flags: W
HStem: 0 132<216 318.811> 1128 138<216 317.776> 1952 123<217.15 315.953>
VStem: 60 156<-237 0 132 1128 1266 1951.14> 325 158<150.283 1127.51 1286.11 1937.56>
LayerCount: 2
Fore
SplineSet
60 1873 m 2,0,1
 60 1925 60 1925 79.5 1963.5 c 128,-1,2
 99 2002 99 2002 129.5 2026.5 c 128,-1,3
 160 2051 160 2051 197 2063 c 128,-1,4
 234 2075 234 2075 269 2075 c 0,5,6
 303 2075 303 2075 341 2063.5 c 128,-1,7
 379 2052 379 2052 410.5 2027.5 c 128,-1,8
 442 2003 442 2003 462.5 1965.5 c 128,-1,9
 483 1928 483 1928 483 1876 c 2,10,-1
 483 1348 l 2,11,12
 483 1303 483 1303 456 1258 c 0,13,14
 430 1214 430 1214 374 1197 c 1,15,16
 402 1189 402 1189 422.5 1174 c 128,-1,17
 443 1159 443 1159 456.5 1139 c 128,-1,18
 470 1119 470 1119 476.5 1096 c 128,-1,19
 483 1073 483 1073 483 1051 c 2,20,-1
 483 175 l 2,21,22
 483 139 483 139 466 107.5 c 128,-1,23
 449 76 449 76 420.5 52 c 128,-1,24
 392 28 392 28 353.5 14 c 128,-1,25
 315 0 315 0 272 0 c 2,26,-1
 216 0 l 1,27,-1
 216 -237 l 1,28,-1
 60 -237 l 1,29,-1
 60 1873 l 2,0,1
325 1071 m 2,30,31
 325 1077 325 1077 323 1086.5 c 128,-1,32
 321 1096 321 1096 315.5 1105 c 128,-1,33
 310 1114 310 1114 300 1121 c 128,-1,34
 290 1128 290 1128 274 1128 c 2,35,-1
 216 1128 l 1,36,-1
 216 132 l 1,37,38
 245 132 245 132 265.5 132.5 c 128,-1,39
 286 133 286 133 299.5 137 c 128,-1,40
 313 141 313 141 319 150 c 128,-1,41
 325 159 325 159 325 175 c 2,42,-1
 325 1071 l 2,30,31
216 1266 m 1,43,-1
 281 1266 l 2,44,45
 311 1266 311 1266 318 1285.5 c 128,-1,46
 325 1305 325 1305 325 1334 c 2,47,-1
 325 1896 l 2,48,49
 325 1924 325 1924 309 1938 c 128,-1,50
 293 1952 293 1952 270 1952 c 0,51,52
 216 1952 216 1952 216 1896 c 2,53,-1
 216 1266 l 1,43,-1
EndSplineSet
Validated: 1
EndChar

StartChar: OE
Encoding: 338 338 78
Width: 701
Flags: W
HStem: -24 126<223.892 324.57> 0 130<483 692> 1019 139<483 637> 1912 136<483 692> 1952 123<223.892 324.462>
VStem: 60 156<116.438 1937.56> 325 158<130.004 1019 1158 1911.95>
LayerCount: 2
Fore
SplineSet
60 1903 m 2,0,1
 60 1938 60 1938 77 1969.5 c 128,-1,2
 94 2001 94 2001 122.5 2024.5 c 128,-1,3
 151 2048 151 2048 189 2061.5 c 128,-1,4
 227 2075 227 2075 269 2075 c 0,5,6
 330 2075 330 2075 381 2048 c 1,7,-1
 692 2048 l 1,8,-1
 692 1912 l 1,9,-1
 483 1912 l 1,10,-1
 483 1158 l 1,11,-1
 637 1158 l 1,12,-1
 637 1019 l 1,13,-1
 483 1019 l 1,14,-1
 483 130 l 1,15,-1
 692 130 l 1,16,-1
 692 0 l 1,17,-1
 377 0 l 1,18,19
 351 -12 351 -12 325 -18 c 0,20,21
 298 -24 298 -24 269 -24 c 0,22,23
 227 -24 227 -24 189 -10.5 c 128,-1,24
 151 3 151 3 122.5 26 c 128,-1,25
 94 49 94 49 77 79.5 c 128,-1,26
 60 110 60 110 60 144 c 2,27,-1
 60 1903 l 2,0,1
216 148 m 2,28,29
 216 130 216 130 230.5 116 c 128,-1,30
 245 102 245 102 269 102 c 256,31,32
 293 102 293 102 309 116 c 128,-1,33
 325 130 325 130 325 148 c 2,34,-1
 325 1905 l 2,35,36
 325 1924 325 1924 308 1938 c 128,-1,37
 291 1952 291 1952 269 1952 c 0,38,39
 245 1952 245 1952 230.5 1938 c 128,-1,40
 216 1924 216 1924 216 1905 c 2,41,-1
 216 148 l 2,28,29
EndSplineSet
Validated: 1
EndChar

StartChar: Eth
Encoding: 208 208 80
Width: 566
Flags: W
HStem: 0 140<230 333.748> 948 141<14 69 230 288> 1912 136<230 340.68>
VStem: 14 274<948 1089> 69 161<140 948 1089 1912> 342 156<162.346 1907.31>
LayerCount: 2
Fore
SplineSet
498 192 m 2,0,1
 498 145 498 145 478.5 109 c 128,-1,2
 459 73 459 73 427 49 c 128,-1,3
 395 25 395 25 354.5 12.5 c 128,-1,4
 314 0 314 0 272 0 c 2,5,-1
 69 0 l 1,6,-1
 69 948 l 1,7,-1
 14 948 l 1,8,-1
 14 1089 l 1,9,-1
 69 1089 l 1,10,-1
 69 2048 l 1,11,-1
 272 2048 l 2,12,13
 311 2048 311 2048 351 2037 c 128,-1,14
 391 2026 391 2026 424 2002 c 128,-1,15
 457 1978 457 1978 477.5 1940.5 c 128,-1,16
 498 1903 498 1903 498 1849 c 2,17,-1
 498 192 l 2,0,1
288 948 m 1,18,-1
 230 948 l 1,19,-1
 230 140 l 1,20,21
 255 140 255 140 276 140.5 c 128,-1,22
 297 141 297 141 311.5 146 c 128,-1,23
 326 151 326 151 334 162 c 128,-1,24
 342 173 342 173 342 193 c 2,25,-1
 342 1851 l 2,26,27
 342 1873 342 1873 334 1885.5 c 128,-1,28
 326 1898 326 1898 311.5 1904 c 128,-1,29
 297 1910 297 1910 276 1911 c 128,-1,30
 255 1912 255 1912 230 1912 c 1,31,-1
 230 1089 l 1,32,-1
 288 1089 l 1,33,-1
 288 948 l 1,18,-1
EndSplineSet
Validated: 1
EndChar

StartChar: AE
Encoding: 198 198 82
Width: 686
Flags: W
HStem: 0 130<472 676> 445 139<235 311> 1019 139<472 624> 1912 136<475 676>
VStem: 312 160<130 445 584 1019> 343 129<1206.66 1712>
LayerCount: 2
Fore
SplineSet
676 1912 m 1,0,-1
 475 1912 l 1,1,-1
 472 1158 l 1,2,-1
 624 1158 l 1,3,-1
 624 1019 l 1,4,-1
 472 1019 l 1,5,-1
 472 130 l 1,6,-1
 676 130 l 1,7,-1
 676 0 l 1,8,-1
 319 0 l 1,9,-1
 312 445 l 1,10,-1
 221 445 l 1,11,-1
 168 0 l 1,12,-1
 7 0 l 1,13,-1
 248 2048 l 1,14,-1
 676 2048 l 1,15,-1
 676 1912 l 1,0,-1
311 584 m 1,16,-1
 343 1712 l 1,17,-1
 235 584 l 1,18,-1
 311 584 l 1,16,-1
EndSplineSet
Validated: 1
EndChar

StartChar: oe
Encoding: 339 339 83
Width: 685
Flags: W
HStem: -24 115<221.946 304.37> 0 118<472 666> 874 124<472 617> 1662 106<472 666> 1686 110<223.235 307.788>
VStem: 60 160<91.1868 1685.48> 311 161<118.064 874 998 1661.92>
LayerCount: 2
Fore
SplineSet
666 1662 m 1,0,-1
 472 1662 l 1,1,-1
 472 998 l 1,2,-1
 617 998 l 1,3,-1
 617 874 l 1,4,-1
 472 874 l 1,5,-1
 472 118 l 1,6,-1
 666 118 l 1,7,-1
 666 0 l 1,8,-1
 368 0 l 1,9,10
 346 -12 346 -12 319 -18 c 0,11,12
 295 -24 295 -24 267 -24 c 0,13,14
 225 -24 225 -24 187 -10 c 128,-1,15
 149 4 149 4 121 28.5 c 128,-1,16
 93 53 93 53 76.5 86 c 128,-1,17
 60 119 60 119 60 157 c 2,18,-1
 60 1617 l 2,19,20
 60 1654 60 1654 76.5 1686.5 c 128,-1,21
 93 1719 93 1719 121 1743.5 c 128,-1,22
 149 1768 149 1768 187 1782 c 128,-1,23
 225 1796 225 1796 267 1796 c 0,24,25
 297 1796 297 1796 325.5 1788.5 c 128,-1,26
 354 1781 354 1781 378 1768 c 1,27,-1
 666 1768 l 1,28,-1
 666 1662 l 1,0,-1
311 1597 m 2,29,30
 311 1614 311 1614 309.5 1630 c 128,-1,31
 308 1646 308 1646 303.5 1658.5 c 128,-1,32
 299 1671 299 1671 290.5 1678.5 c 128,-1,33
 282 1686 282 1686 267 1686 c 0,34,35
 251 1686 251 1686 241.5 1678.5 c 128,-1,36
 232 1671 232 1671 227.5 1658.5 c 128,-1,37
 223 1646 223 1646 221.5 1630 c 128,-1,38
 220 1614 220 1614 220 1597 c 2,39,-1
 220 176 l 2,40,41
 220 163 220 163 220.5 148 c 128,-1,42
 221 133 221 133 225.5 120.5 c 128,-1,43
 230 108 230 108 239.5 99.5 c 128,-1,44
 249 91 249 91 267 91 c 0,45,46
 286 91 286 91 298.5 101.5 c 128,-1,47
 311 112 311 112 311 127 c 2,48,-1
 311 1597 l 2,29,30
EndSplineSet
Validated: 1
EndChar

StartChar: eth
Encoding: 240 240 85
Width: 545
Flags: W
HStem: -14 137<214.133 300.871> 1046 136<218.651 307> 1918 134<57 192>
VStem: 59 155<123.803 1026.4> 295 153<1625 1791.53> 307 156<142.079 1032 1169 1464>
LayerCount: 2
Fore
SplineSet
559 1536 m 1,0,-1
 458 1506 l 1,1,2
 462 1428 462 1428 462.5 1344.5 c 128,-1,3
 463 1261 463 1261 463 1168 c 2,4,-1
 463 164 l 2,5,6
 463 126 463 126 447 93.5 c 128,-1,7
 431 61 431 61 403 37 c 128,-1,8
 375 13 375 13 337.5 -0.5 c 128,-1,9
 300 -14 300 -14 258 -14 c 0,10,11
 218 -14 218 -14 182 -1.5 c 128,-1,12
 146 11 146 11 118.5 34 c 128,-1,13
 91 57 91 57 75 88.5 c 128,-1,14
 59 120 59 120 59 158 c 2,15,-1
 59 1008 l 1,16,17
 60 1043 60 1043 74.5 1074.5 c 128,-1,18
 89 1106 89 1106 114 1130 c 128,-1,19
 139 1154 139 1154 173.5 1168 c 128,-1,20
 208 1182 208 1182 249 1182 c 0,21,22
 269 1182 269 1182 286.5 1175.5 c 128,-1,23
 304 1169 304 1169 307 1169 c 1,24,-1
 307 1323 l 2,25,26
 307 1396 307 1396 304 1464 c 1,27,-1
 57 1396 l 1,28,-1
 57 1516 l 1,29,-1
 295 1583 l 1,30,31
 288 1662 288 1662 273 1724.5 c 128,-1,32
 258 1787 258 1787 230.5 1830 c 128,-1,33
 203 1873 203 1873 160.5 1895.5 c 128,-1,34
 118 1918 118 1918 57 1918 c 1,35,-1
 57 2052 l 1,36,37
 159 2052 159 2052 229 2022.5 c 128,-1,38
 299 1993 299 1993 344 1938 c 128,-1,39
 389 1883 389 1883 413 1804 c 128,-1,40
 437 1725 437 1725 448 1625 c 1,41,-1
 559 1656 l 1,42,-1
 559 1536 l 1,0,-1
258 1046 m 0,43,44
 229 1046 229 1046 221.5 1027 c 128,-1,45
 214 1008 214 1008 214 983 c 2,46,-1
 214 164 l 2,47,48
 214 147 214 147 227.5 135 c 128,-1,49
 241 123 241 123 258 123 c 0,50,51
 287 123 287 123 297 141.5 c 128,-1,52
 307 160 307 160 307 183 c 2,53,-1
 307 1032 l 1,54,55
 304 1032 304 1032 290.5 1039 c 128,-1,56
 277 1046 277 1046 258 1046 c 0,43,44
EndSplineSet
Validated: 1
EndChar

StartChar: thorn
Encoding: 254 254 88
Width: 508
Flags: W
HStem: 260 124<220 289.429> 1373 115<220 288.914>
VStem: 64 156<-280 260 384 1373 1488 1814> 308 150<395.347 1361.14>
LayerCount: 2
Fore
SplineSet
220 1814 m 1,0,-1
 220 1488 l 1,1,-1
 259 1488 l 2,2,3
 299 1488 299 1488 335 1477.5 c 128,-1,4
 371 1467 371 1467 398.5 1446 c 128,-1,5
 426 1425 426 1425 442.5 1394.5 c 128,-1,6
 459 1364 459 1364 459 1324 c 2,7,-1
 459 700 l 2,8,9
 459 624 459 624 458.5 565.5 c 128,-1,10
 458 507 458 507 458 470 c 2,11,-1
 458 435 l 2,12,13
 458 386 458 386 437.5 353 c 128,-1,14
 417 320 417 320 383.5 300 c 128,-1,15
 350 280 350 280 306 271 c 128,-1,16
 262 262 262 262 216 260 c 1,17,-1
 216 -280 l 1,18,-1
 64 -280 l 1,19,-1
 63 1814 l 1,20,-1
 220 1814 l 1,0,-1
308 1324 m 2,21,22
 308 1350 308 1350 289.5 1361.5 c 128,-1,23
 271 1373 271 1373 220 1373 c 1,24,-1
 220 384 l 1,25,26
 272 384 272 384 290 395 c 128,-1,27
 308 406 308 406 308 431 c 2,28,-1
 308 1324 l 2,21,22
EndSplineSet
Validated: 1
EndChar

StartChar: afii61352
Encoding: 8470 8470 89
Width: 1089
Flags: W
HStem: -24 115<778.387 867.756> 0 21G<64 220 333.968 493> 1686 110<785.607 861.31> 2028 20G<64 220.151 346 493>
VStem: 64 156<0 1142 1931.49 2048> 346 147<0 129.934 858 2048> 617 161<91.1868 1674.14> 868 161<91.4453 1674.14>
LayerCount: 2
Fore
SplineSet
493 0 m 1,0,-1
 336 0 l 1,1,-1
 220 1142 l 1,2,-1
 220 0 l 1,3,-1
 64 0 l 1,4,-1
 64 2048 l 1,5,-1
 218 2048 l 1,6,-1
 346 858 l 1,7,-1
 346 2048 l 1,8,-1
 493 2048 l 1,9,-1
 493 0 l 1,0,-1
1029 151 m 2,10,11
 1029 115 1029 115 1012 83.5 c 128,-1,12
 995 52 995 52 967 28 c 128,-1,13
 939 4 939 4 902.5 -10 c 128,-1,14
 866 -24 866 -24 826 -24 c 0,15,16
 784 -24 784 -24 746 -10 c 128,-1,17
 708 4 708 4 679.5 28.5 c 128,-1,18
 651 53 651 53 634 86 c 128,-1,19
 617 119 617 119 617 157 c 2,20,-1
 617 1617 l 2,21,22
 617 1654 617 1654 634 1686.5 c 128,-1,23
 651 1719 651 1719 679.5 1743.5 c 128,-1,24
 708 1768 708 1768 746 1782 c 128,-1,25
 784 1796 784 1796 826 1796 c 0,26,27
 866 1796 866 1796 902.5 1783 c 128,-1,28
 939 1770 939 1770 967 1746.5 c 128,-1,29
 995 1723 995 1723 1012 1690.5 c 128,-1,30
 1029 1658 1029 1658 1029 1620 c 2,31,-1
 1029 151 l 2,10,11
868 1645 m 2,32,33
 868 1663 868 1663 855.5 1674.5 c 128,-1,34
 843 1686 843 1686 826 1686 c 0,35,36
 806 1686 806 1686 792 1674.5 c 128,-1,37
 778 1663 778 1663 778 1645 c 2,38,-1
 778 127 l 2,39,40
 778 118 778 118 790 104.5 c 128,-1,41
 802 91 802 91 826 91 c 0,42,43
 843 91 843 91 855.5 101.5 c 128,-1,44
 868 112 868 112 868 127 c 2,45,-1
 868 1645 l 2,32,33
EndSplineSet
Validated: 1
EndChar

StartChar: ae
Encoding: 230 230 93
Width: 685
Flags: W
HStem: 0 118<468 661> 386 121<230 328> 874 124<468 612> 1653 115<468 661>
VStem: 329 139<118 386 507 874 998 1464>
LayerCount: 2
Fore
SplineSet
661 1653 m 1,0,-1
 468 1653 l 1,1,-1
 468 998 l 1,2,-1
 612 998 l 1,3,-1
 612 874 l 1,4,-1
 468 874 l 1,5,-1
 468 118 l 1,6,-1
 661 118 l 1,7,-1
 661 0 l 1,8,-1
 326 0 l 1,9,-1
 329 386 l 1,10,-1
 214 386 l 1,11,-1
 162 0 l 1,12,-1
 13 0 l 1,13,-1
 256 1768 l 1,14,-1
 661 1768 l 1,15,-1
 661 1653 l 1,0,-1
328 507 m 1,16,-1
 336 1464 l 1,17,-1
 230 507 l 1,18,-1
 328 507 l 1,16,-1
EndSplineSet
Validated: 1
EndChar

StartChar: Lslash
Encoding: 321 321 95
Width: 403
Flags: W
HStem: 0 129<239 407> 2028 20G<84 239>
VStem: 84 323<0 129 1028 1058> 84 155<129 892 1058 2048>
LayerCount: 2
Fore
SplineSet
239 2048 m 1,0,-1
 239 1058 l 1,1,-1
 407 1092 l 1,2,-1
 407 956 l 1,3,-1
 239 923 l 1,4,-1
 239 129 l 1,5,-1
 407 129 l 1,6,-1
 407 0 l 1,7,-1
 84 0 l 1,8,-1
 84 892 l 1,9,-1
 -17 872 l 1,10,-1
 -17 1008 l 1,11,-1
 84 1028 l 1,12,-1
 84 2048 l 1,13,-1
 239 2048 l 1,0,-1
EndSplineSet
Validated: 1
EndChar

StartChar: lslash
Encoding: 322 322 96
Width: 364
Flags: W
HStem: 0 118<216 363> 1748 20G<64 216> 1748 20G<64 216>
VStem: 64 299<0 118 934 967> 64 152<118 798 967 1768>
LayerCount: 2
Fore
SplineSet
216 1768 m 1,0,-1
 216 967 l 1,1,-1
 363 1001 l 1,2,-1
 363 865 l 1,3,-1
 216 832 l 1,4,-1
 216 118 l 1,5,-1
 363 118 l 1,6,-1
 363 0 l 1,7,-1
 64 0 l 1,8,-1
 64 798 l 1,9,-1
 -11 781 l 1,10,-1
 -11 917 l 1,11,-1
 64 934 l 1,12,-1
 64 1768 l 1,13,-1
 216 1768 l 1,0,-1
EndSplineSet
Validated: 1
EndChar

StartChar: onequarter
Encoding: 188 188 105
Width: 1305
Flags: W
HStem: 0 21G<484 642.148 1100 1256> 423 134<38 186 344 475 962 1100> 1911 136<38 186>
VStem: 186 158<557 1911> 1100 156<0 417 546 925>
LayerCount: 2
Fore
SplineSet
1256 925 m 1,0,-1
 1256 0 l 1,1,-1
 1100 0 l 1,2,-1
 1100 417 l 1,3,-1
 802 417 l 1,4,-1
 970 1625 l 1,5,-1
 1124 1625 l 1,6,-1
 962 546 l 1,7,-1
 1100 546 l 1,8,-1
 1100 925 l 1,9,-1
 1256 925 l 1,0,-1
860 2048 m 1,10,-1
 640 0 l 1,11,-1
 484 0 l 1,12,-1
 704 2048 l 1,13,-1
 860 2048 l 1,10,-1
38 557 m 1,14,-1
 186 557 l 1,15,-1
 186 1911 l 1,16,-1
 38 1911 l 1,17,-1
 38 2047 l 1,18,-1
 344 2047 l 1,19,-1
 344 557 l 1,20,-1
 475 557 l 1,21,-1
 475 423 l 1,22,-1
 38 423 l 1,23,-1
 38 557 l 1,14,-1
EndSplineSet
Validated: 1
EndChar

StartChar: uni00B9
Encoding: 185 185 106
Width: 468
Flags: W
HStem: 0 134<15 164 322 452> 1488 136<15 164>
VStem: 164 158<134 1488>
LayerCount: 2
Fore
SplineSet
15 134 m 1,0,-1
 164 134 l 1,1,-1
 164 1488 l 1,2,-1
 15 1488 l 1,3,-1
 15 1624 l 1,4,-1
 322 1624 l 1,5,-1
 322 134 l 1,6,-1
 452 134 l 1,7,-1
 452 0 l 1,8,-1
 15 0 l 1,9,-1
 15 134 l 1,0,-1
EndSplineSet
Validated: 1
EndChar

StartChar: threequarters
Encoding: 190 190 107
Width: 1264
Flags: W
HStem: 0 21G<462 619.148 1057 1212> 356 117<200.933 272.135> 417 129<918 1057> 1239 120<158 273.292> 1931 117<200.933 273.467>
VStem: 45 151<491.048 979 1565 1912.95> 280 155<481.767 1239 1359 1921.72> 1057 155<0 417 546 925>
LayerCount: 2
Fore
SplineSet
45 1898 m 2,0,1
 45 1929 45 1929 61 1956.5 c 128,-1,2
 77 1984 77 1984 103.5 2004.5 c 128,-1,3
 130 2025 130 2025 164.5 2036.5 c 128,-1,4
 199 2048 199 2048 237 2048 c 0,5,6
 277 2048 277 2048 313 2036.5 c 128,-1,7
 349 2025 349 2025 376 2004.5 c 128,-1,8
 403 1984 403 1984 419 1956 c 128,-1,9
 435 1928 435 1928 435 1896 c 2,10,-1
 435 1392 l 2,11,12
 435 1365 435 1365 428 1348 c 128,-1,13
 421 1331 421 1331 414 1320 c 1,14,15
 405 1308 405 1308 393 1299 c 1,16,17
 406 1294 406 1294 414 1282 c 0,18,19
 421 1271 421 1271 428 1253 c 128,-1,20
 435 1235 435 1235 435 1207 c 2,21,-1
 435 508 l 2,22,23
 435 476 435 476 419 448 c 128,-1,24
 403 420 403 420 376 399.5 c 128,-1,25
 349 379 349 379 313 367.5 c 128,-1,26
 277 356 277 356 237 356 c 0,27,28
 199 356 199 356 164.5 367.5 c 128,-1,29
 130 379 130 379 103.5 399 c 128,-1,30
 77 419 77 419 61 446 c 128,-1,31
 45 473 45 473 45 505 c 2,32,-1
 45 979 l 1,33,-1
 196 979 l 1,34,-1
 196 531 l 2,35,36
 196 508 196 508 204 490.5 c 128,-1,37
 212 473 212 473 237 473 c 0,38,39
 256 473 256 473 265 481.5 c 128,-1,40
 274 490 274 490 277.5 502.5 c 128,-1,41
 281 515 281 515 280.5 530 c 128,-1,42
 280 545 280 545 280 557 c 2,43,-1
 280 1184 l 2,44,45
 280 1207 280 1207 273.5 1223 c 128,-1,46
 267 1239 267 1239 239 1239 c 2,47,-1
 158 1239 l 1,48,-1
 158 1359 l 1,49,-1
 239 1359 l 2,50,51
 267 1359 267 1359 273.5 1372 c 128,-1,52
 280 1385 280 1385 280 1407 c 2,53,-1
 280 1844 l 2,54,55
 280 1856 280 1856 281 1871 c 128,-1,56
 282 1886 282 1886 279 1899.5 c 128,-1,57
 276 1913 276 1913 266.5 1922 c 128,-1,58
 257 1931 257 1931 237 1931 c 0,59,60
 212 1931 212 1931 204 1913.5 c 128,-1,61
 196 1896 196 1896 196 1873 c 2,62,-1
 196 1565 l 1,63,-1
 45 1565 l 1,64,-1
 45 1898 l 2,0,1
1212 925 m 1,65,-1
 1212 0 l 1,66,-1
 1057 0 l 1,67,-1
 1057 417 l 1,68,-1
 759 417 l 1,69,-1
 927 1625 l 1,70,-1
 1081 1625 l 1,71,-1
 918 546 l 1,72,-1
 1057 546 l 1,73,-1
 1057 925 l 1,74,-1
 1212 925 l 1,65,-1
837 2048 m 1,75,-1
 617 0 l 1,76,-1
 462 0 l 1,77,-1
 682 2048 l 1,78,-1
 837 2048 l 1,75,-1
EndSplineSet
Validated: 1
EndChar

StartChar: uni00B3
Encoding: 179 179 108
Width: 511
Flags: W
HStem: -36 117<215.767 287.635> 847 120<174 288.807> 1539 117<215.767 288.725>
VStem: 60 151<99.0482 587 1173 1520.95> 295 156<89.7666 846.996 967.003 1529.72>
LayerCount: 2
Fore
SplineSet
60 1506 m 2,0,1
 60 1537 60 1537 76 1564.5 c 128,-1,2
 92 1592 92 1592 119 1612.5 c 128,-1,3
 146 1633 146 1633 180.5 1644.5 c 128,-1,4
 215 1656 215 1656 252 1656 c 0,5,6
 292 1656 292 1656 328 1644.5 c 128,-1,7
 364 1633 364 1633 391.5 1612.5 c 128,-1,8
 419 1592 419 1592 435 1564 c 128,-1,9
 451 1536 451 1536 451 1504 c 2,10,-1
 451 1000 l 2,11,12
 451 973 451 973 444 956 c 128,-1,13
 437 939 437 939 430 928 c 1,14,15
 419 916 419 916 409 907 c 1,16,17
 421 902 421 902 430 890 c 1,18,19
 437 879 437 879 444 861 c 128,-1,20
 451 843 451 843 451 815 c 2,21,-1
 451 116 l 2,22,23
 451 84 451 84 435 56 c 128,-1,24
 419 28 419 28 391.5 7.5 c 128,-1,25
 364 -13 364 -13 328 -24.5 c 128,-1,26
 292 -36 292 -36 252 -36 c 0,27,28
 215 -36 215 -36 180.5 -24.5 c 128,-1,29
 146 -13 146 -13 119 7 c 128,-1,30
 92 27 92 27 76 54 c 128,-1,31
 60 81 60 81 60 113 c 2,32,-1
 60 587 l 1,33,-1
 211 587 l 1,34,-1
 211 139 l 2,35,36
 211 116 211 116 219 98.5 c 128,-1,37
 227 81 227 81 252 81 c 0,38,39
 272 81 272 81 281 89.5 c 128,-1,40
 290 98 290 98 293 110.5 c 128,-1,41
 296 123 296 123 295.5 138 c 128,-1,42
 295 153 295 153 295 165 c 2,43,-1
 295 792 l 2,44,45
 295 815 295 815 289 831 c 128,-1,46
 283 847 283 847 255 847 c 2,47,-1
 174 847 l 1,48,-1
 174 967 l 1,49,-1
 255 967 l 2,50,51
 283 967 283 967 289 980 c 128,-1,52
 295 993 295 993 295 1015 c 2,53,-1
 295 1452 l 2,54,55
 295 1464 295 1464 296 1479 c 128,-1,56
 297 1494 297 1494 294 1507.5 c 128,-1,57
 291 1521 291 1521 282 1530 c 128,-1,58
 273 1539 273 1539 252 1539 c 0,59,60
 227 1539 227 1539 219 1521.5 c 128,-1,61
 211 1504 211 1504 211 1481 c 2,62,-1
 211 1173 l 1,63,-1
 60 1173 l 1,64,-1
 60 1506 l 2,0,1
EndSplineSet
Validated: 1
EndChar

StartChar: uni00B2
Encoding: 178 178 109
Width: 539
Flags: W
HStem: 0 141<232 486> 1518 137<224.438 324.206>
VStem: 60 156<1078 1504.59>
LayerCount: 2
Fore
SplineSet
60 1485 m 2,0,1
 60 1520 60 1520 75.5 1551 c 128,-1,2
 91 1582 91 1582 119 1605 c 128,-1,3
 147 1628 147 1628 186 1641.5 c 128,-1,4
 225 1655 225 1655 272 1655 c 0,5,6
 320 1655 320 1655 362 1639.5 c 128,-1,7
 404 1624 404 1624 434.5 1596 c 128,-1,8
 465 1568 465 1568 479.5 1529.5 c 128,-1,9
 494 1491 494 1491 486 1445 c 0,10,11
 420 1093 420 1093 371.5 846 c 128,-1,12
 323 599 323 599 293 442 c 1,13,-1
 232 141 l 1,14,-1
 486 141 l 1,15,-1
 486 0 l 1,16,-1
 62 0 l 1,17,18
 95 160 95 160 137 375 c 0,19,20
 174 561 174 561 223 825 c 128,-1,21
 272 1089 272 1089 330 1438 c 1,22,23
 339 1484 339 1484 318 1501 c 0,24,25
 298 1518 298 1518 272 1518 c 0,26,27
 248 1518 248 1518 232 1505 c 128,-1,28
 216 1492 216 1492 216 1473 c 2,29,-1
 216 1078 l 1,30,-1
 60 1078 l 1,31,-1
 60 1485 l 2,0,1
EndSplineSet
Validated: 33
EndChar

StartChar: brokenbar
Encoding: 166 166 110
Width: 295
Flags: W
HStem: 0 21G<70 225> 2028 20G<70 225>
VStem: 70 155<0 937 1033 2048>
LayerCount: 2
Fore
SplineSet
225 937 m 1,0,-1
 225 0 l 1,1,-1
 70 0 l 1,2,-1
 70 937 l 1,3,-1
 225 937 l 1,0,-1
225 2048 m 1,4,-1
 225 1033 l 1,5,-1
 70 1033 l 1,6,-1
 70 2048 l 1,7,-1
 225 2048 l 1,4,-1
EndSplineSet
Validated: 1
EndChar

StartChar: minus
Encoding: 8722 8722 111
Width: 567
Flags: W
HStem: 872 157<48 518>
VStem: 48 470<872 1029>
LayerCount: 2
Fore
SplineSet
518 872 m 1,0,-1
 48 872 l 1,1,-1
 48 1029 l 1,2,-1
 518 1029 l 1,3,-1
 518 872 l 1,0,-1
EndSplineSet
Validated: 1
EndChar

StartChar: multiply
Encoding: 215 215 112
Width: 463
Flags: W
VStem: 24 155<228 291.669 1384.86 1450> 290 150<1382.37 1450>
LayerCount: 2
Fore
SplineSet
440 228 m 1,0,-1
 290 228 l 1,1,-1
 232 533 l 1,2,-1
 179 228 l 1,3,-1
 24 228 l 1,4,-1
 160 832 l 1,5,-1
 24 1450 l 1,6,-1
 179 1450 l 1,7,-1
 232 1128 l 1,8,-1
 290 1450 l 1,9,-1
 440 1450 l 1,10,-1
 309 832 l 1,11,-1
 440 228 l 1,0,-1
EndSplineSet
Validated: 1
EndChar

StartChar: quotedbl
Encoding: 34 34 115
Width: 564
Flags: W
HStem: 1630 418<99 197 353 452>
VStem: 99 98<1630 1747.5> 353 99<1630 1752.29>
LayerCount: 2
Fore
SplineSet
501 2048 m 1,0,-1
 452 1630 l 1,1,-1
 353 1630 l 1,2,-1
 316 2048 l 1,3,-1
 501 2048 l 1,0,-1
248 2048 m 1,4,-1
 197 1630 l 1,5,-1
 99 1630 l 1,6,-1
 63 2048 l 1,7,-1
 248 2048 l 1,4,-1
EndSplineSet
Validated: 1
EndChar

StartChar: numbersign
Encoding: 35 35 116
Width: 634
Flags: W
HStem: 0 21G<41 197.509 267 424.509> 848 122<10 106 270 333 497 606> 1159 122<27 129 294 356 521 623> 2028 20G<188.67 346 415.618 573>
VStem: 0 634
LayerCount: 2
Fore
SplineSet
623 1159 m 1,0,-1
 511 1159 l 1,1,-1
 497 970 l 1,2,-1
 617 970 l 1,3,-1
 606 848 l 1,4,-1
 487 848 l 1,5,-1
 423 0 l 1,6,-1
 267 0 l 1,7,-1
 333 848 l 1,8,-1
 260 848 l 1,9,-1
 196 0 l 1,10,-1
 41 0 l 1,11,-1
 106 848 l 1,12,-1
 0 848 l 1,13,-1
 10 970 l 1,14,-1
 115 970 l 1,15,-1
 129 1159 l 1,16,-1
 15 1159 l 1,17,-1
 27 1282 l 1,18,-1
 139 1281 l 1,19,-1
 190 2048 l 1,20,-1
 346 2048 l 1,21,-1
 294 1281 l 1,22,-1
 364 1281 l 1,23,-1
 417 2048 l 1,24,-1
 573 2048 l 1,25,-1
 521 1281 l 1,26,-1
 634 1281 l 1,27,-1
 623 1159 l 1,0,-1
270 970 m 1,28,-1
 342 970 l 1,29,-1
 356 1159 l 1,30,-1
 284 1159 l 1,31,-1
 270 970 l 1,28,-1
EndSplineSet
Validated: 1
EndChar

StartChar: dollar
Encoding: 36 36 117
Width: 536
Flags: W
VStem: 60 157<138.409 857 1282.31 1921.56> 213 122<-279 -0.0651855 2048.16 2327> 316 159<138.409 872.07 1288 1922.59>
LayerCount: 2
Fore
SplineSet
213 -15 m 1,0,1
 181 -7 181 -7 152.5 8.5 c 128,-1,2
 124 24 124 24 104 47 c 256,3,4
 84 70 84 70 72 102 c 128,-1,5
 60 134 60 134 60 174 c 2,6,-1
 60 857 l 1,7,-1
 217 857 l 1,8,-1
 217 174 l 2,9,10
 217 151 217 151 231.5 138 c 128,-1,11
 246 125 246 125 270 125 c 0,12,13
 290 125 290 125 303 138 c 128,-1,14
 316 151 316 151 316 174 c 2,15,-1
 316 489 l 2,16,17
 316 612 316 612 305 701 c 128,-1,18
 294 790 294 790 276 856 c 128,-1,19
 258 922 258 922 235 970.5 c 128,-1,20
 212 1019 212 1019 188 1062.5 c 128,-1,21
 164 1106 164 1106 141 1149.5 c 128,-1,22
 118 1193 118 1193 100 1247.5 c 128,-1,23
 82 1302 82 1302 71 1374 c 128,-1,24
 60 1446 60 1446 60 1547 c 2,25,-1
 60 1889 l 2,26,27
 60 1960 60 1960 103 2002.5 c 128,-1,28
 146 2045 146 2045 213 2064 c 1,29,-1
 213 2327 l 1,30,-1
 335 2327 l 1,31,-1
 335 2061 l 1,32,33
 399 2041 399 2041 437 1999 c 0,34,35
 455 1978 455 1978 465 1951.5 c 128,-1,36
 475 1925 475 1925 475 1893 c 2,37,-1
 475 1288 l 1,38,-1
 316 1288 l 1,39,-1
 316 1891 l 2,40,41
 316 1910 316 1910 303 1923 c 128,-1,42
 290 1936 290 1936 270 1936 c 0,43,44
 248 1936 248 1936 232.5 1922 c 128,-1,45
 217 1908 217 1908 217 1889 c 2,46,-1
 217 1600 l 2,47,48
 217 1501 217 1501 228 1427.5 c 128,-1,49
 239 1354 239 1354 257 1296.5 c 128,-1,50
 275 1239 275 1239 298.5 1193.5 c 128,-1,51
 322 1148 322 1148 346 1105.5 c 128,-1,52
 370 1063 370 1063 393.5 1019.5 c 128,-1,53
 417 976 417 976 435 922 c 128,-1,54
 453 868 453 868 464 800 c 128,-1,55
 475 732 475 732 475 640 c 2,56,-1
 475 179 l 2,57,58
 475 97 475 97 439.5 50 c 128,-1,59
 404 3 404 3 335 -15 c 1,60,-1
 335 -279 l 1,61,-1
 213 -279 l 1,62,-1
 213 -15 l 1,0,1
EndSplineSet
Validated: 1
EndChar

StartChar: percent
Encoding: 37 37 118
Width: 1261
Flags: W
HStem: 0 21G<440 597.148> 246 115<953.06 1037.27> 806 115<216.508 299.797> 1126 110<953.06 1037.27> 1686 110<216.508 299.797> 2028 20G<656.861 815>
VStem: 56 160<921.187 1685.48> 307 161<931.829 1674.14> 794 159<361.187 1125.48> 1044 161<371.829 1114.14>
LayerCount: 2
Fore
SplineSet
1205 421 m 2,0,1
 1205 385 1205 385 1188.5 353.5 c 128,-1,2
 1172 322 1172 322 1144 298 c 128,-1,3
 1116 274 1116 274 1079 260 c 128,-1,4
 1042 246 1042 246 1001 246 c 0,5,6
 958 246 958 246 920.5 260 c 128,-1,7
 883 274 883 274 855 298.5 c 128,-1,8
 827 323 827 323 810.5 356 c 128,-1,9
 794 389 794 389 794 427 c 2,10,-1
 794 1057 l 2,11,12
 794 1094 794 1094 810.5 1126.5 c 128,-1,13
 827 1159 827 1159 855 1183.5 c 128,-1,14
 883 1208 883 1208 920.5 1222 c 128,-1,15
 958 1236 958 1236 1001 1236 c 0,16,17
 1042 1236 1042 1236 1079 1223 c 128,-1,18
 1116 1210 1116 1210 1144 1186.5 c 128,-1,19
 1172 1163 1172 1163 1188.5 1130.5 c 128,-1,20
 1205 1098 1205 1098 1205 1060 c 2,21,-1
 1205 421 l 2,0,1
1044 1085 m 2,22,23
 1044 1103 1044 1103 1031.5 1114.5 c 128,-1,24
 1019 1126 1019 1126 1001 1126 c 256,25,26
 983 1126 983 1126 968 1114.5 c 128,-1,27
 953 1103 953 1103 953 1085 c 2,28,-1
 953 398 l 2,29,30
 953 388 953 388 965 374.5 c 128,-1,31
 977 361 977 361 1001 361 c 0,32,33
 1019 361 1019 361 1031.5 371.5 c 128,-1,34
 1044 382 1044 382 1044 398 c 2,35,-1
 1044 1085 l 2,22,23
468 981 m 2,36,37
 468 945 468 945 451 913.5 c 128,-1,38
 434 882 434 882 406 858 c 128,-1,39
 378 834 378 834 340.5 820 c 128,-1,40
 303 806 303 806 263 806 c 0,41,42
 221 806 221 806 183 820 c 128,-1,43
 145 834 145 834 117 858.5 c 128,-1,44
 89 883 89 883 72.5 916 c 128,-1,45
 56 949 56 949 56 987 c 2,46,-1
 56 1617 l 2,47,48
 56 1654 56 1654 72.5 1686.5 c 128,-1,49
 89 1719 89 1719 117 1743.5 c 128,-1,50
 145 1768 145 1768 183 1782 c 128,-1,51
 221 1796 221 1796 263 1796 c 0,52,53
 303 1796 303 1796 340.5 1783 c 128,-1,54
 378 1770 378 1770 406 1746.5 c 128,-1,55
 434 1723 434 1723 451 1690.5 c 128,-1,56
 468 1658 468 1658 468 1620 c 2,57,-1
 468 981 l 2,36,37
307 1645 m 2,58,59
 307 1663 307 1663 294 1674.5 c 128,-1,60
 281 1686 281 1686 263 1686 c 256,61,62
 245 1686 245 1686 230.5 1674.5 c 128,-1,63
 216 1663 216 1663 216 1645 c 2,64,-1
 216 958 l 2,65,66
 216 948 216 948 227.5 934.5 c 128,-1,67
 239 921 239 921 263 921 c 0,68,69
 281 921 281 921 294 931.5 c 128,-1,70
 307 942 307 942 307 958 c 2,71,-1
 307 1645 l 2,58,59
815 2048 m 1,72,-1
 595 0 l 1,73,-1
 440 0 l 1,74,-1
 659 2048 l 1,75,-1
 815 2048 l 1,72,-1
EndSplineSet
Validated: 1
EndChar

StartChar: quotesingle
Encoding: 39 39 119
Width: 318
Flags: W
HStem: 1630 418<102 202>
VStem: 102 100<1630 1752.29>
LayerCount: 2
Fore
SplineSet
251 2048 m 1,0,-1
 202 1630 l 1,1,-1
 102 1630 l 1,2,-1
 66 2048 l 1,3,-1
 251 2048 l 1,0,-1
EndSplineSet
Validated: 1
EndChar

StartChar: parenleft
Encoding: 40 40 120
Width: 459
Flags: W
HStem: -127 134<344.68 413> 2044 137<343.295 413>
VStem: 84 155<278 1776.22>
LayerCount: 2
Fore
SplineSet
84 1033 m 256,0,1
 84 1109 84 1109 84.5 1198 c 128,-1,2
 85 1287 85 1287 89 1382 c 128,-1,3
 93 1477 93 1477 101.5 1573 c 128,-1,4
 110 1669 110 1669 125.5 1757.5 c 128,-1,5
 141 1846 141 1846 164.5 1923.5 c 128,-1,6
 188 2001 188 2001 222.5 2058 c 128,-1,7
 257 2115 257 2115 304 2148 c 128,-1,8
 351 2181 351 2181 413 2181 c 1,9,-1
 413 2044 l 1,10,11
 370 2044 370 2044 340.5 1995.5 c 128,-1,12
 311 1947 311 1947 291.5 1866 c 128,-1,13
 272 1785 272 1785 261.5 1680.5 c 128,-1,14
 251 1576 251 1576 246 1463.5 c 128,-1,15
 241 1351 241 1351 240 1239.5 c 128,-1,16
 239 1128 239 1128 239 1033 c 0,17,18
 239 939 239 939 240 826 c 128,-1,19
 241 713 241 713 246 599 c 128,-1,20
 251 485 251 485 262 378.5 c 128,-1,21
 273 272 273 272 292.5 189.5 c 128,-1,22
 312 107 312 107 341 57 c 128,-1,23
 370 7 370 7 413 7 c 1,24,-1
 413 -127 l 1,25,26
 351 -127 351 -127 304 -93.5 c 128,-1,27
 257 -60 257 -60 222 -2.5 c 128,-1,28
 187 55 187 55 163.5 133.5 c 128,-1,29
 140 212 140 212 124.5 301.5 c 128,-1,30
 109 391 109 391 101 488.5 c 128,-1,31
 93 586 93 586 89 681.5 c 128,-1,32
 85 777 85 777 84.5 867 c 128,-1,33
 84 957 84 957 84 1033 c 256,0,1
EndSplineSet
Validated: 1
EndChar

StartChar: asterisk
Encoding: 42 42 122
Width: 693
Flags: W
HStem: 1698 112<28 248 447 665> 2042 20G<195.965 242.062 452.835 499.386>
VStem: 28 637<1698 1810>
LayerCount: 2
Fore
SplineSet
465 1449 m 1,0,-1
 347 1641 l 1,1,-1
 231 1449 l 1,2,-1
 133 1506 l 1,3,-1
 248 1698 l 1,4,-1
 28 1698 l 1,5,-1
 28 1810 l 1,6,-1
 249 1810 l 1,7,-1
 133 2005 l 1,8,-1
 230 2062 l 1,9,-1
 347 1868 l 1,10,-1
 465 2062 l 1,11,-1
 563 2005 l 1,12,-1
 445 1812 l 1,13,-1
 665 1813 l 1,14,-1
 665 1698 l 1,15,-1
 447 1698 l 1,16,-1
 563 1506 l 1,17,-1
 465 1449 l 1,0,-1
EndSplineSet
Validated: 1
EndChar

StartChar: plus
Encoding: 43 43 123
Width: 778
Flags: W
HStem: 876 153<34 312 468 743>
VStem: 312 156<577 876 1029 1327>
LayerCount: 2
Fore
SplineSet
34 1029 m 1,0,-1
 312 1029 l 1,1,-1
 312 1327 l 1,2,-1
 468 1327 l 1,3,-1
 468 1029 l 1,4,-1
 743 1029 l 1,5,-1
 743 876 l 1,6,-1
 468 876 l 1,7,-1
 468 577 l 1,8,-1
 312 577 l 1,9,-1
 312 876 l 1,10,-1
 34 876 l 1,11,-1
 34 1029 l 1,0,-1
EndSplineSet
Validated: 1
EndChar

StartChar: comma
Encoding: 44 44 124
Width: 297
Flags: W
HStem: -206 420<43 189>
VStem: 43 213<124.133 214> 43 146<-206 -116.133>
LayerCount: 2
Fore
SplineSet
256 214 m 1,0,-1
 189 -206 l 1,1,-1
 43 -206 l 1,2,-1
 43 214 l 1,3,-1
 256 214 l 1,0,-1
EndSplineSet
Validated: 1
EndChar

StartChar: hyphen
Encoding: 45 45 125
Width: 804
Flags: W
HStem: 872 157<27 777>
LayerCount: 2
Fore
SplineSet
777 872 m 1,0,-1
 27 872 l 1,1,-1
 27 1029 l 1,2,-1
 777 1029 l 1,3,-1
 777 872 l 1,0,-1
EndSplineSet
Validated: 1
EndChar

StartChar: period
Encoding: 46 46 126
Width: 297
Flags: W
HStem: 0 214<45 258>
VStem: 45 213<0 214>
LayerCount: 2
Fore
SplineSet
258 214 m 1,0,-1
 258 0 l 1,1,-1
 45 0 l 1,2,-1
 45 214 l 1,3,-1
 258 214 l 1,0,-1
EndSplineSet
Validated: 1
EndChar

StartChar: slash
Encoding: 47 47 127
Width: 403
Flags: W
HStem: 0 21G<14 171.148> 2028 20G<231.852 389>
VStem: 14 375
LayerCount: 2
Fore
SplineSet
389 2048 m 1,0,-1
 169 0 l 1,1,-1
 14 0 l 1,2,-1
 234 2048 l 1,3,-1
 389 2048 l 1,0,-1
EndSplineSet
Validated: 1
EndChar

StartChar: two
Encoding: 50 50 128
Width: 486
Flags: W
HStem: 0 141<210 463> 1938 137<201.536 308.197>
VStem: 38 155<1498 1924.59>
LayerCount: 2
Fore
SplineSet
38 1905 m 2,0,1
 38 1940 38 1940 53.5 1971 c 128,-1,2
 69 2002 69 2002 97 2025 c 128,-1,3
 125 2048 125 2048 163.5 2061.5 c 128,-1,4
 202 2075 202 2075 249 2075 c 0,5,6
 297 2075 297 2075 339 2059.5 c 128,-1,7
 381 2044 381 2044 411 2016.5 c 128,-1,8
 441 1989 441 1989 455.5 1950 c 128,-1,9
 470 1911 470 1911 463 1865 c 2,10,-1
 210 141 l 1,11,-1
 463 141 l 1,12,-1
 463 0 l 1,13,-1
 39 0 l 1,14,-1
 308 1858 l 2,15,16
 311 1882 311 1882 307.5 1897.5 c 128,-1,17
 304 1913 304 1913 295.5 1922 c 128,-1,18
 287 1931 287 1931 274.5 1934.5 c 128,-1,19
 262 1938 262 1938 249 1938 c 0,20,21
 225 1938 225 1938 209 1925 c 128,-1,22
 193 1912 193 1912 193 1893 c 2,23,-1
 193 1498 l 1,24,-1
 38 1498 l 1,25,-1
 38 1905 l 2,0,1
EndSplineSet
Validated: 33
EndChar

StartChar: three
Encoding: 51 51 129
Width: 498
Flags: W
HStem: -36 117<214.933 286.135> 987 120<172 288.323> 1959 117<214.933 287.467>
VStem: 59 151<99.0482 727 1313 1940.95> 294 155<89.7666 986.996 1107 1949.72>
LayerCount: 2
Fore
SplineSet
59 1926 m 2,0,1
 59 1957 59 1957 75 1984.5 c 128,-1,2
 91 2012 91 2012 117.5 2032.5 c 128,-1,3
 144 2053 144 2053 178.5 2064.5 c 128,-1,4
 213 2076 213 2076 251 2076 c 0,5,6
 291 2076 291 2076 327 2064.5 c 128,-1,7
 363 2053 363 2053 390 2032.5 c 128,-1,8
 417 2012 417 2012 433 1984 c 128,-1,9
 449 1956 449 1956 449 1924 c 2,10,-1
 449 1140 l 2,11,12
 449 1113 449 1113 442 1096 c 128,-1,13
 435 1079 435 1079 428 1068 c 1,14,15
 419 1056 419 1056 407 1047 c 1,16,17
 420 1042 420 1042 428 1030 c 0,18,19
 435 1019 435 1019 442 1001 c 128,-1,20
 449 983 449 983 449 955 c 2,21,-1
 449 116 l 2,22,23
 449 84 449 84 433 56 c 128,-1,24
 417 28 417 28 390 7.5 c 128,-1,25
 363 -13 363 -13 327 -24.5 c 128,-1,26
 291 -36 291 -36 251 -36 c 0,27,28
 213 -36 213 -36 178.5 -24.5 c 128,-1,29
 144 -13 144 -13 117.5 7 c 128,-1,30
 91 27 91 27 75 54 c 128,-1,31
 59 81 59 81 59 113 c 2,32,-1
 59 727 l 1,33,-1
 210 727 l 1,34,-1
 210 139 l 2,35,36
 210 116 210 116 218 98.5 c 128,-1,37
 226 81 226 81 251 81 c 0,38,39
 270 81 270 81 279 89.5 c 128,-1,40
 288 98 288 98 291.5 110.5 c 128,-1,41
 295 123 295 123 294.5 138 c 128,-1,42
 294 153 294 153 294 165 c 2,43,-1
 294 932 l 2,44,45
 294 955 294 955 288.5 971 c 128,-1,46
 283 987 283 987 255 987 c 2,47,-1
 172 987 l 1,48,-1
 172 1107 l 1,49,-1
 255 1107 l 2,50,51
 283 1107 283 1107 288.5 1120 c 128,-1,52
 294 1133 294 1133 294 1155 c 2,53,-1
 294 1872 l 2,54,55
 294 1884 294 1884 295 1899 c 128,-1,56
 296 1914 296 1914 293 1927.5 c 128,-1,57
 290 1941 290 1941 280.5 1950 c 128,-1,58
 271 1959 271 1959 251 1959 c 0,59,60
 226 1959 226 1959 218 1941.5 c 128,-1,61
 210 1924 210 1924 210 1901 c 2,62,-1
 210 1313 l 1,63,-1
 59 1313 l 1,64,-1
 59 1926 l 2,0,1
EndSplineSet
Validated: 1
EndChar

StartChar: four
Encoding: 52 52 130
Width: 518
Flags: W
HStem: 0 21G<304 459> 417 129<165 304>
VStem: 304 155<0 417 546 1345>
LayerCount: 2
Fore
SplineSet
459 1345 m 1,0,-1
 459 0 l 1,1,-1
 304 0 l 1,2,-1
 304 417 l 1,3,-1
 6 417 l 1,4,-1
 174 2045 l 1,5,-1
 328 2045 l 1,6,-1
 165 546 l 1,7,-1
 304 546 l 1,8,-1
 304 1345 l 1,9,-1
 459 1345 l 1,0,-1
EndSplineSet
Validated: 1
EndChar

StartChar: five
Encoding: 53 53 131
Width: 524
Flags: W
HStem: -24 126<225.795 310.601> 1082 118<227.138 369> 1933 117<218 476>
VStem: 62 155<114.897 886 1000 1064.98 1151 1933> 318 158<114.897 1080.03>
LayerCount: 2
Fore
SplineSet
318 1001 m 2,0,1
 318 1028 318 1028 315 1044 c 128,-1,2
 312 1060 312 1060 306 1068.5 c 128,-1,3
 300 1077 300 1077 291.5 1079.5 c 128,-1,4
 283 1082 283 1082 273 1082 c 0,5,6
 249 1082 249 1082 233 1065.5 c 128,-1,7
 217 1049 217 1049 217 1000 c 1,8,-1
 62 1000 l 1,9,-1
 62 2050 l 1,10,-1
 476 2048 l 1,11,-1
 476 1933 l 1,12,-1
 218 1933 l 1,13,-1
 217 1151 l 1,14,15
 229 1164 229 1164 242 1175 c 1,16,17
 256 1184 256 1184 276.5 1192 c 128,-1,18
 297 1200 297 1200 329 1200 c 0,19,20
 409 1200 409 1200 442.5 1146.5 c 128,-1,21
 476 1093 476 1093 476 997 c 2,22,-1
 476 189 l 2,23,24
 476 135 476 135 461 94.5 c 128,-1,25
 446 54 446 54 418.5 28 c 128,-1,26
 391 2 391 2 353 -11 c 128,-1,27
 315 -24 315 -24 270 -24 c 0,28,29
 226 -24 226 -24 188 -11 c 128,-1,30
 150 2 150 2 122 29 c 128,-1,31
 94 56 94 56 78 97.5 c 128,-1,32
 62 139 62 139 62 197 c 2,33,-1
 62 886 l 1,34,-1
 217 886 l 1,35,-1
 217 164 l 2,36,37
 217 127 217 127 232.5 114.5 c 128,-1,38
 248 102 248 102 272 102 c 0,39,40
 291 102 291 102 304.5 114.5 c 128,-1,41
 318 127 318 127 318 164 c 2,42,-1
 318 1001 l 2,0,1
EndSplineSet
Validated: 1
EndChar

StartChar: seven
Encoding: 55 55 132
Width: 402
Flags: W
HStem: -1 21G<63 219.66> 1918 129<63 231>
VStem: 63 325<1789 1918>
LayerCount: 2
Fore
SplineSet
63 -1 m 1,0,-1
 231 1918 l 1,1,-1
 63 1918 l 1,2,-1
 63 2047 l 1,3,-1
 388 2047 l 1,4,-1
 218 -1 l 1,5,-1
 63 -1 l 1,0,-1
EndSplineSet
Validated: 1
EndChar

StartChar: colon
Encoding: 58 58 133
Width: 316
Flags: W
HStem: 343 214<48 260> 1110 216<48 260>
VStem: 48 212<343 557 1110 1326>
LayerCount: 2
Fore
SplineSet
260 1326 m 1,0,-1
 260 1110 l 1,1,-1
 48 1110 l 1,2,-1
 48 1326 l 1,3,-1
 260 1326 l 1,0,-1
260 557 m 1,4,-1
 260 343 l 1,5,-1
 48 343 l 1,6,-1
 48 557 l 1,7,-1
 260 557 l 1,4,-1
EndSplineSet
Validated: 1
EndChar

StartChar: semicolon
Encoding: 59 59 134
Width: 316
Flags: W
HStem: 1110 216<59 270>
VStem: 57 213<435.133 525 1110 1326> 57 146<105 194.867>
LayerCount: 2
Fore
SplineSet
270 1326 m 1,0,-1
 270 1110 l 1,1,-1
 59 1110 l 1,2,-1
 59 1326 l 1,3,-1
 270 1326 l 1,0,-1
270 525 m 1,4,-1
 203 105 l 1,5,-1
 57 105 l 1,6,-1
 57 525 l 1,7,-1
 270 525 l 1,4,-1
EndSplineSet
Validated: 1
EndChar

StartChar: equal
Encoding: 61 61 136
Width: 804
Flags: W
HStem: 617 156<27 777> 872 157<27 777>
LayerCount: 2
Fore
SplineSet
777 617 m 1,0,-1
 27 617 l 1,1,-1
 27 773 l 1,2,-1
 777 773 l 1,3,-1
 777 617 l 1,0,-1
777 872 m 1,4,-1
 27 872 l 1,5,-1
 27 1029 l 1,6,-1
 777 1029 l 1,7,-1
 777 872 l 1,4,-1
EndSplineSet
Validated: 1
EndChar

StartChar: greater
Encoding: 62 62 137
Width: 431
Flags: W
HStem: 0 21G<36 42.4573> 2028 20G<36 42.3946>
VStem: 36 329
LayerCount: 2
Fore
SplineSet
365 1019 m 1,0,-1
 36 0 l 1,1,-1
 36 455 l 1,2,-1
 207 1019 l 1,3,-1
 36 1620 l 1,4,-1
 36 2048 l 1,5,-1
 365 1019 l 1,0,-1
EndSplineSet
Validated: 1
EndChar

StartChar: question
Encoding: 63 63 138
Width: 504
Flags: W
HStem: 0 175<150 307> 1936 136<215.895 308.371>
VStem: 50 159<1288 1922.59> 148 159<0 175 293 975.037> 309 156<1208.25 1934.76>
LayerCount: 2
Fore
SplineSet
307 293 m 1,0,-1
 148 293 l 1,1,-1
 148 622 l 2,2,3
 148 713 148 713 155 782 c 128,-1,4
 162 851 162 851 173 906.5 c 128,-1,5
 184 962 184 962 199 1007.5 c 128,-1,6
 214 1053 214 1053 229 1097 c 256,7,8
 244 1141 244 1141 258.5 1188.5 c 128,-1,9
 273 1236 273 1236 284 1294.5 c 128,-1,10
 295 1353 295 1353 302 1427.5 c 128,-1,11
 309 1502 309 1502 309 1600 c 2,12,-1
 309 1889 l 2,13,14
 309 1908 309 1908 293 1922 c 128,-1,15
 277 1936 277 1936 255 1936 c 0,16,17
 235 1936 235 1936 222 1923 c 128,-1,18
 209 1910 209 1910 209 1891 c 2,19,-1
 209 1288 l 1,20,-1
 50 1288 l 1,21,-1
 50 1893 l 2,22,23
 50 1929 50 1929 65 1961 c 128,-1,24
 80 1993 80 1993 107 2018 c 128,-1,25
 134 2043 134 2043 172 2057.5 c 128,-1,26
 210 2072 210 2072 256 2072 c 256,27,28
 302 2072 302 2072 340 2057 c 128,-1,29
 378 2042 378 2042 406 2017 c 128,-1,30
 434 1992 434 1992 449.5 1959 c 128,-1,31
 465 1926 465 1926 465 1889 c 2,32,-1
 465 1547 l 2,33,34
 465 1453 465 1453 458 1385.5 c 128,-1,35
 451 1318 451 1318 440 1266 c 128,-1,36
 429 1214 429 1214 415 1172 c 128,-1,37
 401 1130 401 1130 386 1087 c 128,-1,38
 371 1044 371 1044 357 994.5 c 128,-1,39
 343 945 343 945 332 878.5 c 128,-1,40
 321 812 321 812 314 723 c 128,-1,41
 307 634 307 634 307 511 c 2,42,-1
 307 293 l 1,0,-1
307 175 m 1,43,-1
 307 0 l 1,44,-1
 150 0 l 1,45,-1
 150 175 l 1,46,-1
 307 175 l 1,43,-1
EndSplineSet
Validated: 1
EndChar

StartChar: at
Encoding: 64 64 139
Width: 1131
Flags: W
HStem: -229 148<488.36 864> 73 115<514.167 597.991 790.77 880.317> 1684 129<521.985 598.055> 1928 141<388.018 752.272>
VStem: 85 157<133.977 1791.79> 354 160<189.548 1681.93> 605 164.5<202.956 1681.93> 893 151<200.378 1793.09>
LayerCount: 2
Fore
SplineSet
769 371 m 2,0,1
 769 333 769 333 769.5 300 c 128,-1,2
 770 267 770 267 777 242 c 128,-1,3
 784 217 784 217 801 202.5 c 128,-1,4
 818 188 818 188 850 188 c 0,5,6
 866 188 866 188 875 200 c 128,-1,7
 884 212 884 212 888 235.5 c 128,-1,8
 892 259 892 259 892.5 293 c 128,-1,9
 893 327 893 327 893 371 c 2,10,-1
 893 1620 l 2,11,12
 893 1669 893 1669 883 1708.5 c 128,-1,13
 873 1748 873 1748 856.5 1779 c 128,-1,14
 840 1810 840 1810 817.5 1833 c 128,-1,15
 795 1856 795 1856 770 1872 c 0,16,17
 719 1906 719 1906 665 1916 c 1,18,19
 609 1928 609 1928 574 1928 c 0,20,21
 557 1928 557 1928 534 1925.5 c 128,-1,22
 511 1923 511 1923 483 1918 c 0,23,24
 426 1907 426 1907 373 1875 c 0,25,26
 346 1858 346 1858 322 1835.5 c 128,-1,27
 298 1813 298 1813 280.5 1782 c 128,-1,28
 263 1751 263 1751 252.5 1711 c 128,-1,29
 242 1671 242 1671 242 1620 c 2,30,-1
 242 339 l 2,31,32
 242 234 242 234 272.5 162 c 128,-1,33
 303 90 303 90 353 43 c 128,-1,34
 403 -4 403 -4 468.5 -29.5 c 128,-1,35
 534 -55 534 -55 604.5 -67 c 128,-1,36
 675 -79 675 -79 745 -81 c 128,-1,37
 815 -83 815 -83 875 -83 c 1,38,-1
 864 -232 l 1,39,40
 783 -235 783 -235 694 -229 c 128,-1,41
 605 -223 605 -223 518 -201 c 128,-1,42
 431 -179 431 -179 353 -138 c 128,-1,43
 275 -97 275 -97 215 -30.5 c 128,-1,44
 155 36 155 36 120 131 c 128,-1,45
 85 226 85 226 85 356 c 2,46,-1
 85 1602 l 2,47,48
 85 1713 85 1713 121 1800 c 128,-1,49
 157 1887 157 1887 220.5 1946.5 c 128,-1,50
 284 2006 284 2006 371.5 2037.5 c 128,-1,51
 459 2069 459 2069 563 2069 c 0,52,53
 611 2069 611 2069 667 2058.5 c 128,-1,54
 723 2048 723 2048 778 2025.5 c 128,-1,55
 833 2003 833 2003 883.5 1967 c 128,-1,56
 934 1931 934 1931 971.5 1879.5 c 128,-1,57
 1009 1828 1009 1828 1029 1760.5 c 128,-1,58
 1049 1693 1049 1693 1044 1607 c 1,59,-1
 1044 371 l 2,60,61
 1044 300 1044 300 1039 244.5 c 128,-1,62
 1034 189 1034 189 1014.5 150.5 c 128,-1,63
 995 112 995 112 956.5 91.5 c 128,-1,64
 918 71 918 71 850 71 c 0,65,66
 808 71 808 71 780 89.5 c 128,-1,67
 752 108 752 108 735 132 c 1,68,69
 715 158 715 158 706 192 c 1,70,71
 697 154 697 154 679 132 c 1,72,73
 664 109 664 109 636.5 91 c 128,-1,74
 609 73 609 73 561 73 c 0,75,76
 455 73 455 73 404 125 c 1,77,78
 354 178 354 178 354 253 c 2,79,-1
 354 1634 l 2,80,81
 354 1671 354 1671 370.5 1703.5 c 128,-1,82
 387 1736 387 1736 415 1760.5 c 128,-1,83
 443 1785 443 1785 481 1799 c 128,-1,84
 519 1813 519 1813 561 1813 c 0,85,86
 601 1813 601 1813 638.5 1799.5 c 128,-1,87
 676 1786 676 1786 704 1762.5 c 128,-1,88
 732 1739 732 1739 749 1707 c 128,-1,89
 766 1675 766 1675 766 1637 c 2,90,-1
 769 371 l 2,0,1
605 1662 m 2,91,92
 605 1680 605 1680 592.5 1682 c 128,-1,93
 580 1684 580 1684 561 1684 c 0,94,95
 543 1684 543 1684 528.5 1682 c 128,-1,96
 514 1680 514 1680 514 1662 c 2,97,-1
 514 224 l 2,98,99
 514 214 514 214 526 201 c 128,-1,100
 538 188 538 188 561 188 c 0,101,102
 580 188 580 188 592.5 198.5 c 128,-1,103
 605 209 605 209 605 224 c 2,104,-1
 605 1662 l 2,91,92
EndSplineSet
Validated: 33
EndChar

StartChar: backslash
Encoding: 92 92 140
Width: 377
Flags: W
HStem: 0 21G<218.852 377> 2028 20G<1 159.148>
VStem: 1 376
LayerCount: 2
Fore
SplineSet
157 2048 m 1,0,-1
 377 0 l 1,1,-1
 221 0 l 1,2,-1
 1 2048 l 1,3,-1
 157 2048 l 1,0,-1
EndSplineSet
Validated: 1
EndChar

StartChar: asciicircum
Encoding: 94 94 141
Width: 379
Flags: W
HStem: 899 403<105 154 225 274>
VStem: 36 307
LayerCount: 2
Fore
SplineSet
274 1302 m 1,0,-1
 343 899 l 1,1,-1
 225 899 l 1,2,-1
 189 1176 l 1,3,-1
 154 899 l 1,4,-1
 36 899 l 1,5,-1
 105 1302 l 1,6,-1
 274 1302 l 1,0,-1
EndSplineSet
Validated: 1
EndChar

StartChar: underscore
Encoding: 95 95 142
Width: 776
Flags: W
HStem: -157 157<13 763>
LayerCount: 2
Fore
SplineSet
763 -157 m 1,0,-1
 13 -157 l 1,1,-1
 13 0 l 1,2,-1
 763 0 l 1,3,-1
 763 -157 l 1,0,-1
EndSplineSet
Validated: 1
EndChar

StartChar: grave
Encoding: 96 96 143
Width: 379
Flags: W
HStem: 98 476
VStem: -18 338
LayerCount: 2
Fore
SplineSet
166 574 m 1,0,-1
 320 98 l 1,1,-1
 203 98 l 1,2,-1
 -18 574 l 1,3,-1
 166 574 l 1,0,-1
EndSplineSet
Validated: 1
EndChar

StartChar: braceleft
Encoding: 123 123 144
Width: 405
Flags: W
HStem: -127 134<220 393> 2044 137<220 393>
VStem: 64 329<-127 7 2044 2181> 64 156<7 2044>
LayerCount: 2
Fore
SplineSet
393 2181 m 1,0,-1
 393 2044 l 1,1,-1
 220 2044 l 1,2,-1
 220 7 l 1,3,-1
 393 7 l 1,4,-1
 393 -127 l 1,5,-1
 64 -127 l 1,6,-1
 64 2181 l 1,7,-1
 393 2181 l 1,0,-1
EndSplineSet
Validated: 1
EndChar

StartChar: bar
Encoding: 124 124 145
Width: 287
Flags: W
VStem: 67 156<-140 2188>
LayerCount: 2
Fore
SplineSet
223 2188 m 1,0,-1
 223 -140 l 1,1,-1
 67 -140 l 1,2,-1
 67 2188 l 1,3,-1
 223 2188 l 1,0,-1
EndSplineSet
Validated: 1
EndChar

StartChar: braceright
Encoding: 125 125 146
Width: 456
Flags: W
HStem: -127 134<-1 169> 2044 137<-1 169>
VStem: -1 329<-127 7 2044 2181> 169 159<7 2044>
LayerCount: 2
Fore
SplineSet
328 2181 m 1,0,-1
 328 -127 l 1,1,-1
 -1 -127 l 1,2,-1
 -1 7 l 1,3,-1
 169 7 l 1,4,-1
 169 2044 l 1,5,-1
 -1 2044 l 1,6,-1
 -1 2181 l 1,7,-1
 328 2181 l 1,0,-1
EndSplineSet
Validated: 1
EndChar

StartChar: dagger
Encoding: 8224 8224 151
Width: 407
Flags: W
HStem: 1169 115<0 130 279 405>
VStem: 130 147<158 1169 1284 1539>
LayerCount: 2
Fore
SplineSet
133 1284 m 1,0,-1
 133 1539 l 1,1,-1
 279 1539 l 1,2,-1
 279 1284 l 1,3,-1
 405 1284 l 1,4,-1
 405 1169 l 1,5,-1
 277 1169 l 1,6,-1
 277 158 l 1,7,-1
 130 158 l 1,8,-1
 130 1169 l 1,9,-1
 0 1169 l 1,10,-1
 0 1284 l 1,11,-1
 133 1284 l 1,0,-1
EndSplineSet
Validated: 1
EndChar

StartChar: cent
Encoding: 162 162 153
Width: 500
Flags: W
VStem: 60 156<98.0967 1668.17> 225 66<-180 -14.8961 1786.28 1961> 300 152<98.0967 829 1032 1678.83>
LayerCount: 2
Fore
SplineSet
291 1961 m 1,0,-1
 291 1793 l 1,1,2
 323 1788 323 1788 351.5 1775 c 128,-1,3
 380 1762 380 1762 402 1742.5 c 128,-1,4
 424 1723 424 1723 437.5 1698 c 128,-1,5
 451 1673 451 1673 452 1645 c 1,6,-1
 452 1032 l 1,7,-1
 300 1032 l 1,8,-1
 300 1642 l 1,9,10
 297 1658 297 1658 284.5 1668.5 c 128,-1,11
 272 1679 272 1679 260 1679 c 0,12,13
 241 1679 241 1679 228.5 1668.5 c 128,-1,14
 216 1658 216 1658 216 1642 c 2,15,-1
 216 127 l 2,16,17
 216 118 216 118 228.5 108 c 128,-1,18
 241 98 241 98 260 98 c 0,19,20
 272 98 272 98 284.5 108 c 128,-1,21
 297 118 297 118 300 127 c 1,22,-1
 300 829 l 1,23,-1
 452 829 l 1,24,-1
 452 127 l 1,25,26
 451 99 451 99 437.5 74 c 128,-1,27
 424 49 424 49 402 29.5 c 128,-1,28
 380 10 380 10 351.5 -3.5 c 128,-1,29
 323 -17 323 -17 291 -21 c 1,30,-1
 291 -180 l 1,31,-1
 225 -180 l 1,32,-1
 225 -21 l 1,33,34
 190 -17 190 -17 160.5 -3.5 c 128,-1,35
 131 10 131 10 109.5 29.5 c 128,-1,36
 88 49 88 49 74.5 74 c 128,-1,37
 61 99 61 99 60 127 c 1,38,-1
 60 1642 l 1,39,40
 61 1670 61 1670 74.5 1695.5 c 128,-1,41
 88 1721 88 1721 109.5 1741 c 128,-1,42
 131 1761 131 1761 160.5 1774.5 c 128,-1,43
 190 1788 190 1788 225 1793 c 1,44,-1
 225 1961 l 1,45,-1
 291 1961 l 1,0,-1
EndSplineSet
Validated: 1
EndChar

StartChar: sterling
Encoding: 163 163 154
Width: 637
Flags: W
HStem: 0 123<204 589> 1002 124<42 169 325 589> 1952 123<332.892 433.765>
VStem: 169 156<239.151 1002 1126 1937.56> 434 158<1534 1950.52>
LayerCount: 2
Fore
SplineSet
42 1126 m 1,0,-1
 169 1126 l 1,1,-1
 169 1903 l 2,2,3
 169 1938 169 1938 186 1969.5 c 128,-1,4
 203 2001 203 2001 231.5 2024.5 c 128,-1,5
 260 2048 260 2048 298 2061.5 c 128,-1,6
 336 2075 336 2075 378 2075 c 0,7,8
 422 2075 422 2075 461 2061 c 128,-1,9
 500 2047 500 2047 529 2023 c 128,-1,10
 558 1999 558 1999 575 1967.5 c 128,-1,11
 592 1936 592 1936 592 1901 c 2,12,-1
 592 1534 l 1,13,-1
 434 1534 l 1,14,-1
 434 1905 l 2,15,16
 434 1924 434 1924 417 1938 c 128,-1,17
 400 1952 400 1952 378 1952 c 0,18,19
 354 1952 354 1952 339.5 1938 c 128,-1,20
 325 1924 325 1924 325 1905 c 2,21,-1
 325 1126 l 1,22,-1
 589 1126 l 1,23,-1
 589 1002 l 1,24,-1
 325 1002 l 1,25,-1
 325 445 l 2,26,27
 325 352 325 352 306 290 c 128,-1,28
 287 228 287 228 265 192 c 0,29,30
 238 146 238 146 204 123 c 1,31,-1
 589 123 l 1,32,-1
 589 0 l 1,33,-1
 21 0 l 1,34,-1
 21 123 l 1,35,36
 62 149 62 149 95 192 c 0,37,38
 123 228 123 228 146 289.5 c 128,-1,39
 169 351 169 351 169 444 c 2,40,-1
 169 1002 l 1,41,-1
 42 1002 l 1,42,-1
 42 1126 l 1,0,-1
EndSplineSet
Validated: 1
EndChar

StartChar: section
Encoding: 167 167 155
Width: 479
Flags: W
HStem: -13 118<204.645 287.468> 1985 118<189.539 272.346>
VStem: 28 141<873.887 1268.33 1698.45 1978.57> 48 149<115.83 489 1614.51 1941.48> 280 151<149.525 480.193 1616 1974.17> 295 154<110.806 436.892 842.368 1280.06>
LayerCount: 2
Fore
SplineSet
28 1084 m 0,0,1
 28 1169 28 1169 44 1225 c 128,-1,2
 60 1281 60 1281 84 1315 c 128,-1,3
 108 1349 108 1349 136.5 1366 c 128,-1,4
 165 1383 165 1383 190 1390 c 1,5,6
 161 1442 161 1442 132.5 1496 c 128,-1,7
 104 1550 104 1550 81 1614.5 c 128,-1,8
 58 1679 58 1679 43.5 1759.5 c 128,-1,9
 29 1840 29 1840 29 1945 c 0,10,11
 29 1983 29 1983 47.5 2012.5 c 128,-1,12
 66 2042 66 2042 95.5 2062 c 128,-1,13
 125 2082 125 2082 160.5 2092.5 c 128,-1,14
 196 2103 196 2103 231 2103 c 0,15,16
 268 2103 268 2103 304 2093 c 128,-1,17
 340 2083 340 2083 368 2063 c 128,-1,18
 396 2043 396 2043 413.5 2014 c 128,-1,19
 431 1985 431 1985 431 1947 c 2,20,-1
 431 1616 l 1,21,-1
 280 1616 l 1,22,-1
 280 1945 l 2,23,24
 280 1964 280 1964 266 1974.5 c 128,-1,25
 252 1985 252 1985 231 1985 c 256,26,27
 210 1985 210 1985 196 1974.5 c 128,-1,28
 182 1964 182 1964 182 1945 c 0,29,30
 182 1832 182 1832 201.5 1747 c 128,-1,31
 221 1662 221 1662 251 1592 c 128,-1,32
 281 1522 281 1522 315.5 1461.5 c 128,-1,33
 350 1401 350 1401 380 1337.5 c 128,-1,34
 410 1274 410 1274 429.5 1201.5 c 128,-1,35
 449 1129 449 1129 449 1035 c 0,36,37
 449 951 449 951 433.5 895 c 128,-1,38
 418 839 418 839 394.5 804.5 c 128,-1,39
 371 770 371 770 342.5 752.5 c 128,-1,40
 314 735 314 735 288 728 c 1,41,42
 316 676 316 676 344.5 617.5 c 128,-1,43
 373 559 373 559 396.5 489 c 128,-1,44
 420 419 420 419 434.5 334.5 c 128,-1,45
 449 250 449 250 449 146 c 0,46,47
 449 108 449 108 430.5 78 c 128,-1,48
 412 48 412 48 383 28 c 128,-1,49
 354 8 354 8 318 -2.5 c 128,-1,50
 282 -13 282 -13 246 -13 c 256,51,52
 210 -13 210 -13 174.5 -2.5 c 128,-1,53
 139 8 139 8 111 27.5 c 128,-1,54
 83 47 83 47 65.5 76 c 128,-1,55
 48 105 48 105 48 143 c 2,56,-1
 48 489 l 1,57,-1
 197 489 l 1,58,-1
 197 146 l 2,59,60
 197 126 197 126 211 115.5 c 128,-1,61
 225 105 225 105 246 105 c 256,62,63
 267 105 267 105 281 115.5 c 128,-1,64
 295 126 295 126 295 146 c 0,65,66
 295 259 295 259 275 346 c 128,-1,67
 255 433 255 433 225.5 506 c 128,-1,68
 196 579 196 579 161.5 643 c 128,-1,69
 127 707 127 707 97.5 773.5 c 128,-1,70
 68 840 68 840 48 915 c 128,-1,71
 28 990 28 990 28 1084 c 0,0,1
169 1095 m 0,72,73
 169 1015 169 1015 186.5 953.5 c 128,-1,74
 204 892 204 892 231 834 c 1,75,76
 241 836 241 836 254.5 844.5 c 128,-1,77
 268 853 268 853 280 874 c 128,-1,78
 292 895 292 895 300 930.5 c 128,-1,79
 308 966 308 966 308 1023 c 0,80,81
 308 1104 308 1104 291 1167.5 c 128,-1,82
 274 1231 274 1231 246 1289 c 1,83,84
 237 1287 237 1287 223.5 1277 c 128,-1,85
 210 1267 210 1267 198 1245.5 c 128,-1,86
 186 1224 186 1224 177.5 1187.5 c 128,-1,87
 169 1151 169 1151 169 1095 c 0,72,73
EndSplineSet
Validated: 1
EndChar

StartChar: bullet
Encoding: 8226 8226 156
Width: 532
Flags: W
HStem: 619 908<130.92 401.937>
VStem: 60 412<688.406 1458.41>
LayerCount: 2
Fore
SplineSet
472 794 m 2,0,1
 472 758 472 758 455 726 c 128,-1,2
 438 694 438 694 410 670 c 128,-1,3
 382 646 382 646 344.5 632.5 c 128,-1,4
 307 619 307 619 267 619 c 0,5,6
 225 619 225 619 187 633 c 128,-1,7
 149 647 149 647 121 672 c 128,-1,8
 93 697 93 697 76.5 730 c 128,-1,9
 60 763 60 763 60 801 c 2,10,-1
 60 1348 l 2,11,12
 60 1385 60 1385 76.5 1417.5 c 128,-1,13
 93 1450 93 1450 121 1474.5 c 128,-1,14
 149 1499 149 1499 187 1513 c 128,-1,15
 225 1527 225 1527 267 1527 c 0,16,17
 307 1527 307 1527 344.5 1514 c 128,-1,18
 382 1501 382 1501 410 1477.5 c 128,-1,19
 438 1454 438 1454 455 1422 c 128,-1,20
 472 1390 472 1390 472 1351 c 2,21,-1
 472 794 l 2,0,1
EndSplineSet
Validated: 1
EndChar

StartChar: paragraph
Encoding: 182 182 157
Width: 755
Flags: W
HStem: 0 21G<325 487 531 690> 2028 20G<255.5 690>
VStem: 64 626<1014.71 1980.26> 325 162<0 959> 531 159<0 960>
LayerCount: 2
Fore
SplineSet
64 1861 m 2,0,1
 64 1905 64 1905 81 1939.5 c 128,-1,2
 98 1974 98 1974 127.5 1998 c 128,-1,3
 157 2022 157 2022 195.5 2035 c 128,-1,4
 234 2048 234 2048 277 2048 c 2,5,-1
 690 2048 l 1,6,-1
 690 0 l 1,7,-1
 531 0 l 1,8,-1
 531 960 l 1,9,-1
 487 960 l 1,10,-1
 487 0 l 1,11,-1
 325 0 l 1,12,-1
 325 959 l 1,13,14
 261 959 261 959 212 968 c 128,-1,15
 163 977 163 977 130 998 c 128,-1,16
 97 1019 97 1019 80.5 1052.5 c 128,-1,17
 64 1086 64 1086 64 1135 c 2,18,-1
 64 1861 l 2,0,1
EndSplineSet
Validated: 1
EndChar

StartChar: trademark
Encoding: 8482 8482 158
Width: 1114
Flags: W
HStem: 1912 136<28 160 318 451>
VStem: 160 158<907 1912> 487 158<907 1519 1975.23 2048> 741 70<907 998.392> 904 157<907 1519 1973.52 2048>
LayerCount: 2
Fore
SplineSet
902 2048 m 1,0,-1
 1061 2048 l 1,1,-1
 1061 907 l 1,2,-1
 904 907 l 1,3,-1
 904 1519 l 1,4,-1
 811 907 l 1,5,-1
 741 907 l 1,6,-1
 645 1519 l 1,7,-1
 645 907 l 1,8,-1
 487 907 l 1,9,-1
 487 2048 l 1,10,-1
 647 2048 l 1,11,-1
 776 1383 l 1,12,-1
 902 2048 l 1,0,-1
451 2048 m 1,13,-1
 451 1912 l 1,14,-1
 318 1912 l 1,15,-1
 318 907 l 1,16,-1
 160 907 l 1,17,-1
 160 1912 l 1,18,-1
 28 1912 l 1,19,-1
 28 2048 l 1,20,-1
 451 2048 l 1,13,-1
EndSplineSet
Validated: 1
EndChar

StartChar: acute
Encoding: 180 180 159
Width: 379
Flags: W
HStem: 98 476
VStem: 141 338
LayerCount: 2
Fore
SplineSet
479 574 m 1,0,-1
 258 98 l 1,1,-1
 141 98 l 1,2,-1
 295 574 l 1,3,-1
 479 574 l 1,0,-1
EndSplineSet
Validated: 1
EndChar

StartChar: dieresis
Encoding: 168 168 160
Width: 682
Flags: W
HStem: 88 185<134 302 370 536>
VStem: 134 168<88 273> 370 166<88 273>
LayerCount: 2
Fore
SplineSet
536 273 m 1,0,-1
 536 88 l 1,1,-1
 370 88 l 1,2,-1
 370 273 l 1,3,-1
 536 273 l 1,0,-1
302 273 m 1,4,-1
 302 88 l 1,5,-1
 134 88 l 1,6,-1
 134 273 l 1,7,-1
 302 273 l 1,4,-1
EndSplineSet
Validated: 1
EndChar

StartChar: infinity
Encoding: 8734 8734 162
Width: 864
Flags: W
HStem: 720 140<141.474 315.039 542.768 714.249> 1124 140<141.161 315.039 542.768 715.179>
VStem: 17 108<874.324 1110.03> 731 115<874.092 1110.39>
LayerCount: 2
Fore
SplineSet
846 993 m 0,0,1
 846 939 846 939 834 889.5 c 128,-1,2
 822 840 822 840 798 802.5 c 128,-1,3
 774 765 774 765 738.5 742.5 c 128,-1,4
 703 720 703 720 655 720 c 0,5,6
 602 720 602 720 561.5 750 c 128,-1,7
 521 780 521 780 486 825 c 0,8,9
 472 842 472 842 459.5 861 c 128,-1,10
 447 880 447 880 434 900 c 1,11,12
 421 880 421 880 408 861 c 128,-1,13
 395 842 395 842 381 825 c 0,14,15
 346 780 346 780 304.5 750 c 128,-1,16
 263 720 263 720 209 720 c 0,17,18
 160 720 160 720 124 742.5 c 128,-1,19
 88 765 88 765 64 802.5 c 128,-1,20
 40 840 40 840 28.5 889.5 c 128,-1,21
 17 939 17 939 17 993 c 0,22,23
 17 1046 17 1046 28.5 1095 c 128,-1,24
 40 1144 40 1144 64 1181.5 c 128,-1,25
 88 1219 88 1219 124 1241.5 c 128,-1,26
 160 1264 160 1264 209 1264 c 0,27,28
 263 1264 263 1264 304.5 1234 c 128,-1,29
 346 1204 346 1204 381 1159 c 0,30,31
 395 1141 395 1141 408 1122.5 c 128,-1,32
 421 1104 421 1104 434 1084 c 1,33,34
 447 1104 447 1104 459.5 1122.5 c 128,-1,35
 472 1141 472 1141 486 1159 c 0,36,37
 521 1204 521 1204 561.5 1234 c 128,-1,38
 602 1264 602 1264 655 1264 c 0,39,40
 703 1264 703 1264 738.5 1241.5 c 128,-1,41
 774 1219 774 1219 798 1181.5 c 128,-1,42
 822 1144 822 1144 834 1095 c 128,-1,43
 846 1046 846 1046 846 993 c 0,0,1
363 1019 m 2,44,45
 333 1064 333 1064 300 1094 c 128,-1,46
 267 1124 267 1124 225 1124 c 0,47,48
 194 1124 194 1124 174.5 1113.5 c 128,-1,49
 155 1103 155 1103 144 1085 c 128,-1,50
 133 1067 133 1067 129 1043 c 128,-1,51
 125 1019 125 1019 125 993 c 0,52,53
 125 966 125 966 129 942 c 128,-1,54
 133 918 133 918 144 900 c 128,-1,55
 155 882 155 882 174.5 871 c 128,-1,56
 194 860 194 860 225 860 c 0,57,58
 267 860 267 860 300 890 c 128,-1,59
 333 920 333 920 363 965 c 2,60,-1
 381 991 l 1,61,-1
 363 1019 l 2,44,45
475 991 m 1,62,-1
 493 965 l 2,63,64
 523 920 523 920 556 890 c 128,-1,65
 589 860 589 860 631 860 c 0,66,67
 662 860 662 860 681.5 871 c 128,-1,68
 701 882 701 882 712 900 c 128,-1,69
 723 918 723 918 727 942 c 128,-1,70
 731 966 731 966 731 993 c 0,71,72
 731 1019 731 1019 727 1043 c 128,-1,73
 723 1067 723 1067 712 1085 c 128,-1,74
 701 1103 701 1103 681.5 1113.5 c 128,-1,75
 662 1124 662 1124 631 1124 c 0,76,77
 589 1124 589 1124 556 1094 c 128,-1,78
 523 1064 523 1064 493 1019 c 2,79,-1
 475 991 l 1,62,-1
EndSplineSet
Validated: 1
EndChar

StartChar: lessequal
Encoding: 8804 8804 164
Width: 494
Flags: W
HStem: 283 169<27 465>
VStem: 18 448
LayerCount: 2
Fore
SplineSet
466 1558 m 1,0,-1
 466 1256 l 1,1,-1
 245 1025 l 1,2,-1
 466 819 l 1,3,-1
 466 511 l 1,4,-1
 18 1025 l 1,5,-1
 466 1558 l 1,0,-1
27 452 m 1,6,-1
 465 452 l 1,7,-1
 465 283 l 1,8,-1
 27 283 l 1,9,-1
 27 452 l 1,6,-1
EndSplineSet
Validated: 1
EndChar

StartChar: greaterequal
Encoding: 8805 8805 165
Width: 494
Flags: W
HStem: 283 169<29 468>
VStem: 28 448
LayerCount: 2
Fore
SplineSet
476 1025 m 1,0,-1
 28 511 l 1,1,-1
 28 819 l 1,2,-1
 249 1025 l 1,3,-1
 28 1256 l 1,4,-1
 28 1558 l 1,5,-1
 476 1025 l 1,0,-1
468 283 m 1,6,-1
 29 283 l 1,7,-1
 29 452 l 1,8,-1
 468 452 l 1,9,-1
 468 283 l 1,6,-1
EndSplineSet
Validated: 1
EndChar

StartChar: yen
Encoding: 165 165 166
Width: 517
Flags: W
HStem: 0 21G<179 335> 522 129<8 179 335 507> 739 128<8 169 343 507> 2028 20G<18 182.793 333.207 491>
VStem: 18 163<1935.88 2048> 179 156<0 522 651 739> 335 156<1933.6 2048>
LayerCount: 2
Fore
SplineSet
507 739 m 1,0,-1
 335 739 l 1,1,-1
 335 651 l 1,2,-1
 507 651 l 1,3,-1
 507 522 l 1,4,-1
 335 522 l 1,5,-1
 335 0 l 1,6,-1
 179 0 l 1,7,-1
 179 522 l 1,8,-1
 8 522 l 1,9,-1
 8 651 l 1,10,-1
 179 651 l 1,11,-1
 179 739 l 1,12,-1
 8 739 l 1,13,-1
 8 867 l 1,14,-1
 169 867 l 1,15,-1
 18 2048 l 1,16,-1
 181 2048 l 1,17,-1
 258 1189 l 1,18,-1
 335 2048 l 1,19,-1
 491 2048 l 1,20,-1
 343 867 l 1,21,-1
 507 867 l 1,22,-1
 507 739 l 1,0,-1
EndSplineSet
Validated: 8388609
EndChar

StartChar: uni00B5
Encoding: 181 181 167
AltUni2: 0003bc.ffffffff.0 0003bc.ffffffff.0
Width: 514
Flags: W
HStem: -24 119<217.173 296.959> 1748 20G<62 217 297 452> 1748 20G<62 217 297 452>
VStem: 62 155<-130 15 95.0024 1768> 297 155<95.1731 1768>
LayerCount: 2
Fore
SplineSet
62 1768 m 1,0,-1
 217 1768 l 1,1,-1
 217 130 l 2,2,3
 217 115 217 115 229 105 c 128,-1,4
 241 95 241 95 256 95 c 0,5,6
 272 95 272 95 284.5 105 c 128,-1,7
 297 115 297 115 297 130 c 2,8,-1
 297 1768 l 1,9,-1
 452 1768 l 1,10,-1
 452 125 l 2,11,12
 452 93 452 93 437.5 66 c 128,-1,13
 423 39 423 39 399.5 19 c 128,-1,14
 376 -1 376 -1 346 -12.5 c 128,-1,15
 316 -24 316 -24 284 -24 c 0,16,17
 273 -24 273 -24 261 -17.5 c 128,-1,18
 249 -11 249 -11 239 -4 c 0,19,20
 228 3 228 3 217 15 c 1,21,-1
 217 -130 l 1,22,-1
 62 -130 l 1,23,-1
 62 1768 l 1,0,-1
EndSplineSet
Validated: 1
EndChar

StartChar: partialdiff
Encoding: 8706 8706 168
Width: 521
Flags: W
HStem: -1 121<211.019 293.98> 960 135<226.726 302> 2027 20G<302 459>
VStem: 42 161<133.409 950.713> 302 157<133.41 960 1095 2047>
LayerCount: 2
Fore
SplineSet
42 918 m 2,0,1
 42 1016 42 1016 108.5 1055.5 c 128,-1,2
 175 1095 175 1095 302 1095 c 1,3,-1
 302 2047 l 1,4,-1
 459 2047 l 1,5,-1
 459 186 l 2,6,7
 459 142 459 142 443 107.5 c 128,-1,8
 427 73 427 73 399 49 c 128,-1,9
 371 25 371 25 332.5 12 c 128,-1,10
 294 -1 294 -1 249 -1 c 0,11,12
 205 -1 205 -1 167.5 11.5 c 128,-1,13
 130 24 130 24 102 48 c 128,-1,14
 74 72 74 72 58 106.5 c 128,-1,15
 42 141 42 141 42 185 c 2,16,-1
 42 918 l 2,0,1
203 172 m 2,17,18
 203 146 203 146 217.5 133 c 128,-1,19
 232 120 232 120 252 120 c 256,20,21
 272 120 272 120 287 133 c 128,-1,22
 302 146 302 146 302 174 c 2,23,-1
 302 960 l 1,24,25
 249 960 249 960 226 951 c 128,-1,26
 203 942 203 942 203 910 c 2,27,-1
 203 172 l 2,17,18
EndSplineSet
Validated: 1
EndChar

StartChar: summation
Encoding: 8721 8721 169
Width: 421
Flags: W
HStem: 0 130<200 409> 1019 139<262 410> 1912 136<200 409>
LayerCount: 2
Fore
SplineSet
409 1912 m 1,0,-1
 200 1912 l 1,1,-1
 262 1158 l 1,2,-1
 410 1158 l 1,3,-1
 410 1019 l 1,4,-1
 262 1019 l 1,5,-1
 200 130 l 1,6,-1
 409 130 l 1,7,-1
 409 0 l 1,8,-1
 45 0 l 1,9,-1
 118 1084 l 1,10,-1
 45 2048 l 1,11,-1
 409 2048 l 1,12,-1
 409 1912 l 1,0,-1
EndSplineSet
Validated: 1
EndChar

StartChar: product
Encoding: 8719 8719 170
Width: 1714
Flags: W
HStem: 413 143<614.399 1097.87> 1177 124<854 934> 1723 115<854 934> 1928 143<613.999 1097.87>
VStem: 28 153<995.177 1487.89> 699 151<637 1177 1301 1723> 934 150<1308.22 1715.26> 1533 153<995.57 1487.89>
LayerCount: 2
Fore
SplineSet
1084 1338 m 2,0,1
 1084 1294 1084 1294 1065 1264.5 c 128,-1,2
 1046 1235 1046 1235 1013.5 1216 c 128,-1,3
 981 1197 981 1197 938.5 1188 c 128,-1,4
 896 1179 896 1179 850 1177 c 1,5,-1
 850 637 l 1,6,-1
 699 637 l 1,7,-1
 699 1838 l 1,8,-1
 893 1838 l 2,9,10
 932 1838 932 1838 967 1826.5 c 128,-1,11
 1002 1815 1002 1815 1028 1794.5 c 128,-1,12
 1054 1774 1054 1774 1069 1746.5 c 128,-1,13
 1084 1719 1084 1719 1084 1688 c 2,14,-1
 1084 1338 l 2,0,1
934 1688 m 2,15,16
 934 1708 934 1708 913.5 1715.5 c 128,-1,17
 893 1723 893 1723 854 1723 c 1,18,-1
 854 1301 l 1,19,20
 897 1301 897 1301 915.5 1308 c 128,-1,21
 934 1315 934 1315 934 1334 c 2,22,-1
 934 1688 l 2,15,16
28 1242 m 256,23,24
 28 1356 28 1356 57.5 1462 c 128,-1,25
 87 1568 87 1568 141 1660 c 128,-1,26
 195 1752 195 1752 271 1827.5 c 128,-1,27
 347 1903 347 1903 439 1957 c 128,-1,28
 531 2011 531 2011 637 2041 c 128,-1,29
 743 2071 743 2071 857 2071 c 256,30,31
 971 2071 971 2071 1077 2041 c 128,-1,32
 1183 2011 1183 2011 1275 1957 c 128,-1,33
 1367 1903 1367 1903 1442.5 1827.5 c 128,-1,34
 1518 1752 1518 1752 1572 1660 c 128,-1,35
 1626 1568 1626 1568 1656 1462 c 128,-1,36
 1686 1356 1686 1356 1686 1242 c 256,37,38
 1686 1128 1686 1128 1656 1022 c 128,-1,39
 1626 916 1626 916 1572 824 c 128,-1,40
 1518 732 1518 732 1442.5 656 c 128,-1,41
 1367 580 1367 580 1275 526 c 128,-1,42
 1183 472 1183 472 1077 442.5 c 128,-1,43
 971 413 971 413 857 413 c 256,44,45
 743 413 743 413 637 442.5 c 128,-1,46
 531 472 531 472 439 526 c 128,-1,47
 347 580 347 580 271 656 c 128,-1,48
 195 732 195 732 141 824 c 128,-1,49
 87 916 87 916 57.5 1022 c 128,-1,50
 28 1128 28 1128 28 1242 c 256,23,24
181 1242 m 0,51,52
 181 1100 181 1100 233.5 975 c 128,-1,53
 286 850 286 850 377 757 c 128,-1,54
 468 664 468 664 591.5 610 c 128,-1,55
 715 556 715 556 857 556 c 0,56,57
 951 556 951 556 1038 580.5 c 128,-1,58
 1125 605 1125 605 1200 649.5 c 128,-1,59
 1275 694 1275 694 1336.5 756.5 c 128,-1,60
 1398 819 1398 819 1441.5 895.5 c 128,-1,61
 1485 972 1485 972 1509 1059.5 c 128,-1,62
 1533 1147 1533 1147 1533 1242 c 0,63,64
 1533 1336 1533 1336 1509 1423.5 c 128,-1,65
 1485 1511 1485 1511 1441.5 1587 c 128,-1,66
 1398 1663 1398 1663 1336.5 1726 c 128,-1,67
 1275 1789 1275 1789 1200 1834 c 128,-1,68
 1125 1879 1125 1879 1038 1903.5 c 128,-1,69
 951 1928 951 1928 857 1928 c 0,70,71
 762 1928 762 1928 675 1903.5 c 128,-1,72
 588 1879 588 1879 513 1834 c 128,-1,73
 438 1789 438 1789 377 1726 c 128,-1,74
 316 1663 316 1663 272.5 1587 c 128,-1,75
 229 1511 229 1511 205 1423.5 c 128,-1,76
 181 1336 181 1336 181 1242 c 0,51,52
EndSplineSet
Validated: 1
EndChar

StartChar: pi
Encoding: 960 960 171
Width: 340
Flags: W
HStem: 0 21G<92 248>
VStem: 92 156<0 1764>
LayerCount: 2
Fore
SplineSet
248 1764 m 1,0,-1
 248 0 l 1,1,-1
 92 0 l 1,2,-1
 92 1764 l 1,3,-1
 248 1764 l 1,0,-1
EndSplineSet
Validated: 1
EndChar

StartChar: integral
Encoding: 8747 8747 172
Width: 504
Flags: W
HStem: 0 21G<28 179.746> 882 123<265 393> 1653 115<322 515>
VStem: 28 497
LayerCount: 2
Fore
SplineSet
515 1653 m 1,0,-1
 322 1653 l 1,1,-1
 265 1005 l 1,2,-1
 405 1005 l 1,3,-1
 393 882 l 1,4,-1
 255 882 l 1,5,-1
 178 0 l 1,6,-1
 28 0 l 1,7,-1
 182 1768 l 1,8,-1
 525 1768 l 1,9,-1
 515 1653 l 1,0,-1
EndSplineSet
Validated: 1
EndChar

StartChar: Omega
Encoding: 937 937 175
AltUni2: 002126.ffffffff.0 002126.ffffffff.0
Width: 596
Flags: W
HStem: 0 125<35 151 451 563> 1953 119<254.901 347.769>
VStem: 35 239<0 125> 81 160<180.258 1942.69> 328 235<0 125> 361 160<181.711 1942.69>
LayerCount: 2
Fore
SplineSet
301 1953 m 256,0,1
 276 1953 276 1953 263.5 1943 c 128,-1,2
 251 1933 251 1933 246 1915 c 128,-1,3
 241 1897 241 1897 241 1872 c 128,-1,4
 241 1847 241 1847 241 1817 c 2,5,-1
 241 491 l 2,6,7
 241 393 241 393 246 324.5 c 128,-1,8
 251 256 251 256 257 211 c 0,9,10
 264 159 264 159 274 125 c 1,11,-1
 274 0 l 1,12,-1
 35 0 l 1,13,-1
 35 125 l 1,14,-1
 151 125 l 1,15,16
 131 159 131 159 116 211 c 0,17,18
 102 256 102 256 91.5 324.5 c 128,-1,19
 81 393 81 393 81 490 c 2,20,-1
 81 1817 l 2,21,22
 81 1860 81 1860 88 1905.5 c 128,-1,23
 95 1951 95 1951 117.5 1988 c 128,-1,24
 140 2025 140 2025 183.5 2048.5 c 128,-1,25
 227 2072 227 2072 301 2072 c 0,26,27
 374 2072 374 2072 418 2048.5 c 128,-1,28
 462 2025 462 2025 484.5 1988 c 128,-1,29
 507 1951 507 1951 514 1905.5 c 128,-1,30
 521 1860 521 1860 521 1817 c 2,31,-1
 521 490 l 2,32,33
 521 393 521 393 510 324.5 c 128,-1,34
 499 256 499 256 486 211 c 0,35,36
 470 159 470 159 451 125 c 1,37,-1
 563 125 l 1,38,-1
 563 0 l 1,39,-1
 328 0 l 1,40,-1
 328 125 l 1,41,42
 337 159 337 159 344 211 c 0,43,44
 350 256 350 256 355.5 324.5 c 128,-1,45
 361 393 361 393 361 491 c 2,46,-1
 361 1817 l 2,47,48
 361 1847 361 1847 361 1872 c 128,-1,49
 361 1897 361 1897 356 1915 c 128,-1,50
 351 1933 351 1933 338.5 1943 c 128,-1,51
 326 1953 326 1953 301 1953 c 256,0,1
EndSplineSet
Validated: 1
EndChar

StartChar: logicalnot
Encoding: 172 172 178
Width: 1170
Flags: W
HStem: 1233 117<175 1142>
VStem: 28 147<840 1233>
LayerCount: 2
Fore
SplineSet
1142 1348 m 1,0,-1
 1142 1233 l 1,1,-1
 175 1233 l 1,2,-1
 175 840 l 1,3,-1
 28 840 l 1,4,-1
 28 1350 l 1,5,-1
 1142 1348 l 1,0,-1
EndSplineSet
Validated: 1
EndChar

StartChar: radical
Encoding: 8730 8730 179
Width: 623
Flags: W
HStem: 0 21G<259.636 488.084> 939 94<0 151> 2028 20G<433.216 598>
VStem: 434 164<1783.49 2048>
LayerCount: 2
Fore
SplineSet
298 1033 m 1,0,-1
 368 364 l 1,1,-1
 434 2048 l 1,2,-1
 598 2048 l 1,3,-1
 487 0 l 1,4,-1
 262 0 l 1,5,-1
 151 939 l 1,6,-1
 0 939 l 1,7,-1
 0 1033 l 1,8,-1
 298 1033 l 1,0,-1
EndSplineSet
Validated: 1
EndChar

StartChar: florin
Encoding: 402 402 180
Width: 511
Flags: W
HStem: 0 21G<28 179.746> 882 123<265 393> 1653 115<322 515>
VStem: 28 497
LayerCount: 2
Fore
SplineSet
515 1653 m 1,0,-1
 322 1653 l 1,1,-1
 265 1005 l 1,2,-1
 405 1005 l 1,3,-1
 393 882 l 1,4,-1
 255 882 l 1,5,-1
 178 0 l 1,6,-1
 28 0 l 1,7,-1
 182 1768 l 1,8,-1
 525 1768 l 1,9,-1
 515 1653 l 1,0,-1
EndSplineSet
Validated: 1
EndChar

StartChar: approxequal
Encoding: 8776 8776 181
Width: 815
Flags: W
HStem: 697 135<221.699 706.011> 749 133<108.353 566.456> 924 134<222.711 705.774> 976 133<108.353 356.56>
VStem: 28 80<697 748.262 924 975.262> 707 78<832.002 882 1058 1109>
LayerCount: 2
Fore
SplineSet
28 924 m 1,0,1
 28 963 28 963 33.5 997 c 128,-1,2
 39 1031 39 1031 52 1055.5 c 128,-1,3
 65 1080 65 1080 87.5 1094.5 c 128,-1,4
 110 1109 110 1109 143 1109 c 0,5,6
 162 1109 162 1109 202.5 1105 c 128,-1,7
 243 1101 243 1101 295 1095.5 c 128,-1,8
 347 1090 347 1090 404.5 1083.5 c 128,-1,9
 462 1077 462 1077 515 1071.5 c 128,-1,10
 568 1066 568 1066 610 1062 c 128,-1,11
 652 1058 652 1058 673 1058 c 0,12,13
 685 1058 685 1058 692 1066 c 128,-1,14
 699 1074 699 1074 701 1084 c 1,15,16
 705 1094 705 1094 707 1109 c 1,17,-1
 785 1109 l 1,18,19
 790 1055 790 1055 778 1016 c 0,20,21
 773 998 773 998 765 981.5 c 128,-1,22
 757 965 757 965 743.5 952.5 c 128,-1,23
 730 940 730 940 711 932 c 128,-1,24
 692 924 692 924 666 924 c 0,25,26
 647 924 647 924 605 928 c 128,-1,27
 563 932 563 932 509 937.5 c 128,-1,28
 455 943 455 943 396 950 c 128,-1,29
 337 957 337 957 284.5 962.5 c 128,-1,30
 232 968 232 968 192.5 972 c 128,-1,31
 153 976 153 976 139 976 c 0,32,33
 127 976 127 976 121 967.5 c 128,-1,34
 115 959 115 959 112 949 c 1,35,36
 108 940 108 940 108 924 c 1,37,-1
 28 924 l 1,0,1
28 697 m 1,38,39
 28 736 28 736 33.5 770 c 128,-1,40
 39 804 39 804 52 829 c 128,-1,41
 65 854 65 854 87.5 868 c 128,-1,42
 110 882 110 882 143 882 c 0,43,44
 162 882 162 882 202.5 878.5 c 128,-1,45
 243 875 243 875 295 869 c 128,-1,46
 347 863 347 863 404.5 857 c 128,-1,47
 462 851 462 851 515 845 c 128,-1,48
 568 839 568 839 610 835.5 c 128,-1,49
 652 832 652 832 673 832 c 0,50,51
 685 832 685 832 692 839.5 c 128,-1,52
 699 847 699 847 701 857 c 1,53,54
 705 867 705 867 707 882 c 1,55,-1
 785 882 l 1,56,57
 787 828 787 828 774 790 c 0,58,59
 768 772 768 772 759 755.5 c 128,-1,60
 750 739 750 739 736.5 726 c 128,-1,61
 723 713 723 713 704 705 c 128,-1,62
 685 697 685 697 659 697 c 0,63,64
 640 697 640 697 598 701 c 128,-1,65
 556 705 556 705 503.5 710.5 c 128,-1,66
 451 716 451 716 393 723 c 128,-1,67
 335 730 335 730 283.5 735.5 c 128,-1,68
 232 741 232 741 193 745 c 128,-1,69
 154 749 154 749 139 749 c 0,70,71
 127 749 127 749 121 740.5 c 128,-1,72
 115 732 115 732 112 722 c 1,73,74
 108 713 108 713 108 697 c 1,75,-1
 28 697 l 1,38,39
EndSplineSet
Validated: 33
EndChar

StartChar: Delta
Encoding: 916 916 182
AltUni2: 002206.ffffffff.0 002206.ffffffff.0
Width: 507
Flags: W
HStem: 0 133<181 323> 2028 20G<141.877 365.123>
VStem: 143 221<1792.69 2048>
LayerCount: 2
Fore
SplineSet
479 0 m 1,0,-1
 28 0 l 1,1,-1
 143 2048 l 1,2,-1
 364 2048 l 1,3,-1
 479 0 l 1,0,-1
323 133 m 1,4,-1
 252 1715 l 1,5,-1
 181 133 l 1,6,-1
 323 133 l 1,4,-1
EndSplineSet
Validated: 1
EndChar

StartChar: guillemotleft
Encoding: 171 171 183
Width: 668
Flags: W
VStem: 48 599
LayerCount: 2
Fore
SplineSet
647 1698 m 1,0,-1
 647 1368 l 1,1,-1
 476 1025 l 1,2,-1
 647 707 l 1,3,-1
 647 350 l 1,4,-1
 318 1025 l 1,5,-1
 647 1698 l 1,0,-1
377 1698 m 1,6,-1
 377 1368 l 1,7,-1
 206 1025 l 1,8,-1
 377 707 l 1,9,-1
 377 350 l 1,10,-1
 48 1025 l 1,11,-1
 377 1698 l 1,6,-1
EndSplineSet
Validated: 1
EndChar

StartChar: endash
Encoding: 8211 8211 186
Width: 804
Flags: W
HStem: 872 157<27 777>
LayerCount: 2
Fore
SplineSet
777 872 m 1,0,-1
 27 872 l 1,1,-1
 27 1029 l 1,2,-1
 777 1029 l 1,3,-1
 777 872 l 1,0,-1
EndSplineSet
Validated: 1
EndChar

StartChar: emdash
Encoding: 8212 8212 187
Width: 804
Flags: W
HStem: 872 157<27 777>
LayerCount: 2
Fore
SplineSet
777 872 m 1,0,-1
 27 872 l 1,1,-1
 27 1029 l 1,2,-1
 777 1029 l 1,3,-1
 777 872 l 1,0,-1
EndSplineSet
Validated: 1
EndChar

StartChar: quotedblleft
Encoding: 8220 8220 188
Width: 568
Flags: W
HStem: 1631 419<94 193 349 447>
VStem: 8 185<1631 1700.85> 94 99<1980.15 2050> 263 185<1631 1700.85> 349 98<1980.15 2050>
LayerCount: 2
Fore
SplineSet
263 1631 m 1,0,-1
 349 2050 l 1,1,-1
 447 2050 l 1,2,-1
 448 1631 l 1,3,-1
 263 1631 l 1,0,-1
8 1631 m 1,4,-1
 94 2050 l 1,5,-1
 193 2050 l 1,6,-1
 193 1631 l 1,7,-1
 8 1631 l 1,4,-1
EndSplineSet
Validated: 1
EndChar

StartChar: quotedblright
Encoding: 8221 8221 189
Width: 568
Flags: W
HStem: 1630 418<27 126 281 379>
VStem: 25 185<1976.66 2048> 27 99<1630 1701.34> 280 185<1978.32 2048> 281 98<1630 1699.68>
LayerCount: 2
Fore
SplineSet
210 2048 m 1,0,-1
 126 1630 l 1,1,-1
 27 1630 l 1,2,-1
 25 2048 l 1,3,-1
 210 2048 l 1,0,-1
465 2048 m 1,4,-1
 379 1630 l 1,5,-1
 281 1630 l 1,6,-1
 280 2048 l 1,7,-1
 465 2048 l 1,4,-1
EndSplineSet
Validated: 1
EndChar

StartChar: quoteleft
Encoding: 8216 8216 190
Width: 568
Flags: W
HStem: 1631 419<94 193>
VStem: 8 185<1631 1700.85> 94 99<1980.15 2050>
LayerCount: 2
Fore
SplineSet
8 1631 m 1,0,-1
 94 2050 l 1,1,-1
 193 2050 l 1,2,-1
 193 1631 l 1,3,-1
 8 1631 l 1,0,-1
EndSplineSet
Validated: 1
EndChar

StartChar: quoteright
Encoding: 8217 8217 191
Width: 568
Flags: W
HStem: 1630 418<281 379>
VStem: 280 185<1978.32 2048> 281 98<1630 1699.68>
LayerCount: 2
Fore
SplineSet
465 2048 m 1,0,-1
 379 1630 l 1,1,-1
 281 1630 l 1,2,-1
 280 2048 l 1,3,-1
 465 2048 l 1,0,-1
EndSplineSet
Validated: 1
EndChar

StartChar: divide
Encoding: 247 247 192
Width: 652
Flags: W
HStem: 483 214<228 441> 773 157<28 624> 998 216<228 441>
VStem: 228 213<483 697 998 1214>
LayerCount: 2
Fore
SplineSet
624 773 m 1,0,-1
 28 773 l 1,1,-1
 28 930 l 1,2,-1
 624 930 l 1,3,-1
 624 773 l 1,0,-1
441 1214 m 1,4,-1
 441 998 l 1,5,-1
 228 998 l 1,6,-1
 228 1214 l 1,7,-1
 441 1214 l 1,4,-1
441 697 m 1,8,-1
 441 483 l 1,9,-1
 228 483 l 1,10,-1
 228 697 l 1,11,-1
 441 697 l 1,8,-1
EndSplineSet
Validated: 1
EndChar

StartChar: lozenge
Encoding: 9674 9674 193
Width: 532
Flags: W
HStem: -24 91<176.51 351.448> 2053 20G<246 287>
VStem: 60 101<81.9082 729.957> 60 76<587.043 1145> 181 33<724.25 884.899> 240.5 71<732.469 1238> 260.5 22.5<735.58 806.761> 283 18<739.793 749> 336 14<764 820.55> 367 105<81.5386 710.076> 393 79<607.924 1156>
LayerCount: 2
Fore
SplineSet
472 151 m 2,0,1
 472 115 472 115 455 83.5 c 128,-1,2
 438 52 438 52 410 28 c 128,-1,3
 382 4 382 4 344.5 -10 c 128,-1,4
 307 -24 307 -24 267 -24 c 0,5,6
 225 -24 225 -24 187 -10 c 128,-1,7
 149 4 149 4 121 28.5 c 128,-1,8
 93 53 93 53 76.5 86 c 128,-1,9
 60 119 60 119 60 157 c 2,10,-1
 60 1896 l 2,11,12
 60 1933 60 1933 76.5 1965.5 c 128,-1,13
 93 1998 93 1998 121 2022 c 128,-1,14
 149 2046 149 2046 187 2059.5 c 128,-1,15
 225 2073 225 2073 267 2073 c 0,16,17
 307 2073 307 2073 344.5 2060 c 128,-1,18
 382 2047 382 2047 410 2023.5 c 128,-1,19
 438 2000 438 2000 455 1968 c 128,-1,20
 472 1936 472 1936 472 1898 c 2,21,-1
 472 151 l 2,0,1
393 1156 m 1,22,23
 391 1148 391 1148 388 1115 c 128,-1,24
 385 1082 385 1082 381 1038 c 128,-1,25
 377 994 377 994 372.5 945.5 c 128,-1,26
 368 897 368 897 362.5 856.5 c 128,-1,27
 357 816 357 816 350 789.5 c 128,-1,28
 343 763 343 763 336 764 c 1,29,30
 340 836 340 836 340 903 c 128,-1,31
 340 970 340 970 337.5 1026.5 c 128,-1,32
 335 1083 335 1083 331 1127 c 128,-1,33
 327 1171 327 1171 323 1198 c 2,34,-1
 318 1238 l 1,35,-1
 316 1184 l 2,36,37
 315 1130 315 1130 311.5 1051.5 c 128,-1,38
 308 973 308 973 301 880 c 0,39,40
 293 786 293 786 283 711 c 1,41,42
 269 749 269 749 260.5 795.5 c 128,-1,43
 252 842 252 842 247 891.5 c 128,-1,44
 242 941 242 941 240.5 990 c 128,-1,45
 239 1039 239 1039 239 1082 c 128,-1,46
 239 1125 239 1125 240.5 1159.5 c 128,-1,47
 242 1194 242 1194 244 1215 c 1,48,-1
 245 1242 l 1,49,50
 228 1208 228 1208 220 1153 c 128,-1,51
 212 1098 212 1098 210 1025.5 c 128,-1,52
 208 953 208 953 209.5 866 c 128,-1,53
 211 779 211 779 214 680 c 1,54,55
 193 718 193 718 181 781 c 128,-1,56
 169 844 169 844 161.5 912.5 c 128,-1,57
 154 981 154 981 149 1044 c 128,-1,58
 144 1107 144 1107 136 1145 c 1,59,-1
 161 172 l 2,60,61
 161 151 161 151 167 132 c 128,-1,62
 173 113 173 113 185.5 98.5 c 128,-1,63
 198 84 198 84 218 75.5 c 128,-1,64
 238 67 238 67 267 67 c 0,65,66
 295 67 295 67 313.5 76 c 128,-1,67
 332 85 332 85 343.5 99 c 128,-1,68
 355 113 355 113 360 130 c 128,-1,69
 365 147 365 147 367 162 c 1,70,-1
 393 1156 l 1,22,23
EndSplineSet
Validated: 33
EndChar

StartChar: fraction
Encoding: 8260 8260 196
Width: 377
Flags: W
HStem: 0 21G<1 159.148> 2028 20G<218.852 377>
VStem: 1 376
LayerCount: 2
Fore
SplineSet
377 2048 m 1,0,-1
 157 0 l 1,1,-1
 1 0 l 1,2,-1
 221 2048 l 1,3,-1
 377 2048 l 1,0,-1
EndSplineSet
Validated: 1
EndChar

StartChar: currency
Encoding: 164 164 197
Width: 609
Flags: W
HStem: 983 115<256.126 340.546> 1862 111<256.371 340.49> 2028 20G<95.0563 135.364 472.922 512.243>
VStem: 113 143<1107.44 1858.5> 347 144<1109.84 1850.14>
LayerCount: 2
Fore
SplineSet
487 931 m 1,0,-1
 413 1011 l 1,1,2
 363 983 363 983 304 983 c 0,3,4
 243 983 243 983 193 1011 c 1,5,-1
 119 930 l 1,6,-1
 34 1002 l 1,7,-1
 125 1107 l 1,8,9
 120 1121 120 1121 116.5 1135 c 128,-1,10
 113 1149 113 1149 113 1163 c 2,11,-1
 113 1793 l 2,12,13
 113 1811 113 1811 117 1827 c 128,-1,14
 121 1843 121 1843 129 1859 c 1,15,16
 127 1865 127 1865 112 1884 c 128,-1,17
 97 1903 97 1903 80 1924 c 0,18,19
 60 1948 60 1948 34 1977 c 1,20,-1
 119 2048 l 1,21,-1
 200 1949 l 1,22,23
 224 1960 224 1960 249.5 1966.5 c 128,-1,24
 275 1973 275 1973 304 1973 c 256,25,26
 333 1973 333 1973 358 1966.5 c 128,-1,27
 383 1960 383 1960 407 1949 c 1,28,-1
 489 2051 l 1,29,-1
 575 1977 l 1,30,-1
 476 1858 l 1,31,32
 491 1831 491 1831 491 1796 c 2,33,-1
 491 1158 l 2,34,35
 491 1136 491 1136 480 1109 c 1,36,-1
 574 1002 l 1,37,-1
 487 931 l 1,0,-1
347 1821 m 2,38,39
 347 1839 347 1839 334.5 1850.5 c 128,-1,40
 322 1862 322 1862 304 1862 c 256,41,42
 286 1862 286 1862 271 1850.5 c 128,-1,43
 256 1839 256 1839 256 1821 c 2,44,-1
 256 1134 l 2,45,46
 256 1124 256 1124 268 1111 c 128,-1,47
 280 1098 280 1098 304 1098 c 0,48,49
 322 1098 322 1098 334.5 1108 c 128,-1,50
 347 1118 347 1118 347 1134 c 2,51,-1
 347 1821 l 2,38,39
EndSplineSet
Validated: 1
EndChar

StartChar: guilsinglleft
Encoding: 8249 8249 198
Width: 398
Flags: W
VStem: 23 329
LayerCount: 2
Fore
SplineSet
352 1698 m 1,0,-1
 352 1368 l 1,1,-1
 181 1025 l 1,2,-1
 352 707 l 1,3,-1
 352 350 l 1,4,-1
 23 1025 l 1,5,-1
 352 1698 l 1,0,-1
EndSplineSet
Validated: 1
EndChar

StartChar: daggerdbl
Encoding: 8225 8225 202
Width: 766
Flags: W
HStem: 0 21G<307 462> 610 152<28 307 462 738> 1456 151<28 307 462 738> 2028 20G<307 462>
VStem: 307 155<0 610 762 1456 1607 2048>
LayerCount: 2
Fore
SplineSet
28 762 m 1,0,-1
 307 762 l 1,1,-1
 307 1456 l 1,2,-1
 28 1456 l 1,3,-1
 28 1607 l 1,4,-1
 307 1607 l 1,5,-1
 307 2048 l 1,6,-1
 462 2048 l 1,7,-1
 462 1607 l 1,8,-1
 738 1607 l 1,9,-1
 738 1456 l 1,10,-1
 462 1456 l 1,11,-1
 462 762 l 1,12,-1
 738 762 l 1,13,-1
 738 610 l 1,14,-1
 462 610 l 1,15,-1
 462 0 l 1,16,-1
 307 0 l 1,17,-1
 307 610 l 1,18,-1
 28 610 l 1,19,-1
 28 762 l 1,0,-1
EndSplineSet
Validated: 1
EndChar

StartChar: periodcentered
Encoding: 183 183 203
Width: 277
Flags: W
HStem: 903 214<25 237>
VStem: 25 212<903 1117>
LayerCount: 2
Fore
SplineSet
237 1117 m 1,0,-1
 237 903 l 1,1,-1
 25 903 l 1,2,-1
 25 1117 l 1,3,-1
 237 1117 l 1,0,-1
EndSplineSet
Validated: 1
EndChar

StartChar: quotesinglbase
Encoding: 8218 8218 204
Width: 568
Flags: W
HStem: 0 419<94 193>
VStem: 8 185<0 69.8463> 94 99<349.154 419>
LayerCount: 2
Fore
SplineSet
8 0 m 1,0,-1
 94 419 l 1,1,-1
 193 419 l 1,2,-1
 193 0 l 1,3,-1
 8 0 l 1,0,-1
EndSplineSet
Validated: 1
EndChar

StartChar: quotedblbase
Encoding: 8222 8222 205
Width: 568
Flags: W
HStem: 0 419<281 379>
VStem: 280 185<349.154 419> 281 98<0 69.8463>
LayerCount: 2
Fore
SplineSet
465 419 m 1,0,-1
 379 0 l 1,1,-1
 281 0 l 1,2,-1
 280 419 l 1,3,-1
 465 419 l 1,0,-1
EndSplineSet
Validated: 1
EndChar

StartChar: apple
Encoding: 65550 -1 208
Width: 532
Flags: W
HStem: -24 91<176.51 351.448> 2053 20G<246 287>
VStem: 60 101<81.9082 729.957> 60 76<587.043 1145> 181 33<724.25 884.899> 240.5 71<732.469 1238> 260.5 22.5<735.58 806.761> 283 18<739.793 749> 336 14<764 820.55> 367 105<81.5386 710.076> 393 79<607.924 1156>
LayerCount: 2
Fore
SplineSet
472 151 m 2,0,1
 472 115 472 115 455 83.5 c 128,-1,2
 438 52 438 52 410 28 c 128,-1,3
 382 4 382 4 344.5 -10 c 128,-1,4
 307 -24 307 -24 267 -24 c 0,5,6
 225 -24 225 -24 187 -10 c 128,-1,7
 149 4 149 4 121 28.5 c 128,-1,8
 93 53 93 53 76.5 86 c 128,-1,9
 60 119 60 119 60 157 c 2,10,-1
 60 1896 l 2,11,12
 60 1933 60 1933 76.5 1965.5 c 128,-1,13
 93 1998 93 1998 121 2022 c 128,-1,14
 149 2046 149 2046 187 2059.5 c 128,-1,15
 225 2073 225 2073 267 2073 c 0,16,17
 307 2073 307 2073 344.5 2060 c 128,-1,18
 382 2047 382 2047 410 2023.5 c 128,-1,19
 438 2000 438 2000 455 1968 c 128,-1,20
 472 1936 472 1936 472 1898 c 2,21,-1
 472 151 l 2,0,1
393 1156 m 1,22,23
 391 1148 391 1148 388 1115 c 128,-1,24
 385 1082 385 1082 381 1038 c 128,-1,25
 377 994 377 994 372.5 945.5 c 128,-1,26
 368 897 368 897 362.5 856.5 c 128,-1,27
 357 816 357 816 350 789.5 c 128,-1,28
 343 763 343 763 336 764 c 1,29,30
 340 836 340 836 340 903 c 128,-1,31
 340 970 340 970 337.5 1026.5 c 128,-1,32
 335 1083 335 1083 331 1127 c 128,-1,33
 327 1171 327 1171 323 1198 c 2,34,-1
 318 1238 l 1,35,-1
 316 1184 l 2,36,37
 315 1130 315 1130 311.5 1051.5 c 128,-1,38
 308 973 308 973 301 880 c 0,39,40
 293 786 293 786 283 711 c 1,41,42
 269 749 269 749 260.5 795.5 c 128,-1,43
 252 842 252 842 247 891.5 c 128,-1,44
 242 941 242 941 240.5 990 c 128,-1,45
 239 1039 239 1039 239 1082 c 128,-1,46
 239 1125 239 1125 240.5 1159.5 c 128,-1,47
 242 1194 242 1194 244 1215 c 1,48,-1
 245 1242 l 1,49,50
 228 1208 228 1208 220 1153 c 128,-1,51
 212 1098 212 1098 210 1025.5 c 128,-1,52
 208 953 208 953 209.5 866 c 128,-1,53
 211 779 211 779 214 680 c 1,54,55
 193 718 193 718 181 781 c 128,-1,56
 169 844 169 844 161.5 912.5 c 128,-1,57
 154 981 154 981 149 1044 c 128,-1,58
 144 1107 144 1107 136 1145 c 1,59,-1
 161 172 l 2,60,61
 161 151 161 151 167 132 c 128,-1,62
 173 113 173 113 185.5 98.5 c 128,-1,63
 198 84 198 84 218 75.5 c 128,-1,64
 238 67 238 67 267 67 c 0,65,66
 295 67 295 67 313.5 76 c 128,-1,67
 332 85 332 85 343.5 99 c 128,-1,68
 355 113 355 113 360 130 c 128,-1,69
 365 147 365 147 367 162 c 1,70,-1
 393 1156 l 1,22,23
EndSplineSet
Validated: 33
EndChar

StartChar: dotlessi
Encoding: 305 305 209
Width: 340
Flags: W
HStem: 0 21G<92 248> 1748 20G<92 248> 1748 20G<92 248>
VStem: 92 156<0 1768>
LayerCount: 2
Fore
SplineSet
248 1768 m 1,0,-1
 248 0 l 1,1,-1
 92 0 l 1,2,-1
 92 1768 l 1,3,-1
 248 1768 l 1,0,-1
EndSplineSet
Validated: 1
EndChar

StartChar: circumflex
Encoding: 710 710 210
Width: 379
Flags: W
HStem: 98 402<105 154 225 274>
VStem: 36 307
LayerCount: 2
Fore
SplineSet
274 500 m 1,0,-1
 343 98 l 1,1,-1
 225 98 l 1,2,-1
 189 375 l 1,3,-1
 154 98 l 1,4,-1
 36 98 l 1,5,-1
 105 500 l 1,6,-1
 274 500 l 1,0,-1
EndSplineSet
Validated: 1
EndChar

StartChar: tilde
Encoding: 732 732 211
Width: 379
Flags: W
HStem: 118 134<144.815 330.759> 169 133<74.542 249.312>
VStem: -18 92<118 167.923> 332 90.5<252.282 302>
LayerCount: 2
Fore
SplineSet
-18 118 m 1,0,1
 -18 157 -18 157 -11.5 190.5 c 128,-1,2
 -5 224 -5 224 9.5 249 c 128,-1,3
 24 274 24 274 47 288 c 128,-1,4
 70 302 70 302 104 302 c 0,5,6
 132 302 132 302 154 294 c 128,-1,7
 176 286 176 286 197 277 c 128,-1,8
 218 268 218 268 241.5 260 c 128,-1,9
 265 252 265 252 297 252 c 0,10,11
 308 252 308 252 315 259.5 c 128,-1,12
 322 267 322 267 326 277 c 256,13,14
 330 287 330 287 332 302 c 1,15,-1
 424 302 l 1,16,17
 425 276 425 276 422.5 253 c 128,-1,18
 420 230 420 230 413 210 c 0,19,20
 407 192 407 192 398 175.5 c 128,-1,21
 389 159 389 159 375 146.5 c 128,-1,22
 361 134 361 134 342 126 c 128,-1,23
 323 118 323 118 297 118 c 0,24,25
 268 118 268 118 243 126 c 128,-1,26
 218 134 218 134 195 143.5 c 128,-1,27
 172 153 172 153 150 161 c 128,-1,28
 128 169 128 169 105 169 c 0,29,30
 94 169 94 169 87.5 161 c 128,-1,31
 81 153 81 153 78 143 c 1,32,33
 74 134 74 134 74 118 c 1,34,-1
 -18 118 l 1,0,1
EndSplineSet
Validated: 1
EndChar

StartChar: macron
Encoding: 175 175 212
Width: 379
Flags: W
HStem: 101 122<0 380>
VStem: 0 380<101 223>
LayerCount: 2
Fore
SplineSet
380 101 m 1,0,-1
 0 101 l 1,1,-1
 0 223 l 1,2,-1
 380 223 l 1,3,-1
 380 101 l 1,0,-1
EndSplineSet
Validated: 1
EndChar

StartChar: breve
Encoding: 728 728 213
Width: 379
Flags: W
HStem: 98 133<99.908 282.725>
VStem: -32 117<242.378 358> 297 117<242.378 358>
LayerCount: 2
Fore
SplineSet
193 98 m 0,0,1
 73 98 73 98 20.5 159 c 128,-1,2
 -32 220 -32 220 -32 358 c 1,3,-1
 85 358 l 1,4,5
 85 316 85 316 93 291 c 128,-1,6
 101 266 101 266 115 252.5 c 128,-1,7
 129 239 129 239 148 235 c 128,-1,8
 167 231 167 231 190 231 c 0,9,10
 214 231 214 231 233.5 235 c 128,-1,11
 253 239 253 239 267 252.5 c 128,-1,12
 281 266 281 266 289 291 c 128,-1,13
 297 316 297 316 297 358 c 1,14,-1
 414 358 l 1,15,16
 414 220 414 220 361.5 159 c 128,-1,17
 309 98 309 98 193 98 c 0,0,1
EndSplineSet
Validated: 1
EndChar

StartChar: dotaccent
Encoding: 729 729 214
Width: 295
Flags: W
HStem: 115 215<64 276>
VStem: 64 212<115 330>
LayerCount: 2
Fore
SplineSet
276 330 m 1,0,-1
 276 115 l 1,1,-1
 64 115 l 1,2,-1
 64 330 l 1,3,-1
 276 330 l 1,0,-1
EndSplineSet
Validated: 1
EndChar

StartChar: ring
Encoding: 730 730 215
Width: 379
Flags: W
HStem: 77 91<143.659 265.531> 314 91<143.659 265.393>
VStem: 38 92<181.661 300.789> 279 91<181.661 300.65>
LayerCount: 2
Fore
SplineSet
38 239 m 0,0,1
 38 275 38 275 50.5 305 c 128,-1,2
 63 335 63 335 85.5 357.5 c 128,-1,3
 108 380 108 380 138.5 392.5 c 128,-1,4
 169 405 169 405 204 405 c 0,5,6
 276 405 276 405 323 358 c 256,7,8
 370 311 370 311 370 239 c 0,9,10
 370 205 370 205 357.5 175.5 c 128,-1,11
 345 146 345 146 322.5 124 c 128,-1,12
 300 102 300 102 270 89.5 c 128,-1,13
 240 77 240 77 204 77 c 0,14,15
 169 77 169 77 138.5 89.5 c 128,-1,16
 108 102 108 102 85.5 124 c 128,-1,17
 63 146 63 146 50.5 175.5 c 128,-1,18
 38 205 38 205 38 239 c 0,0,1
130 241 m 0,19,20
 130 210 130 210 151 189 c 128,-1,21
 172 168 172 168 204 168 c 0,22,23
 237 168 237 168 258 189 c 128,-1,24
 279 210 279 210 279 241 c 0,25,26
 279 273 279 273 258 293.5 c 128,-1,27
 237 314 237 314 204 314 c 0,28,29
 172 314 172 314 151 293.5 c 128,-1,30
 130 273 130 273 130 241 c 0,19,20
EndSplineSet
Validated: 1
EndChar

StartChar: cedilla
Encoding: 184 184 216
Width: 379
Flags: W
HStem: -475 475<150 273>
VStem: 83 190<-475 -373.364> 150 123<-101.636 0>
LayerCount: 2
Fore
SplineSet
83 -475 m 1,0,-1
 150 0 l 1,1,-1
 273 0 l 1,2,-1
 273 -475 l 1,3,-1
 83 -475 l 1,0,-1
EndSplineSet
Validated: 1
EndChar

StartChar: hungarumlaut
Encoding: 733 733 217
Width: 758
Flags: W
HStem: 98 476
VStem: 55 567
LayerCount: 2
Fore
SplineSet
393 574 m 1,0,-1
 172 98 l 1,1,-1
 55 98 l 1,2,-1
 209 574 l 1,3,-1
 393 574 l 1,0,-1
622 574 m 1,4,-1
 342 98 l 1,5,-1
 225 98 l 1,6,-1
 438 574 l 1,7,-1
 622 574 l 1,4,-1
EndSplineSet
Validated: 1
EndChar

StartChar: ogonek
Encoding: 731 731 218
Width: 379
Flags: W
HStem: -329 98<195.725 386.551> -20 20G<115.5 216>
VStem: 73 99<-214.137 -45.5928>
LayerCount: 2
Fore
SplineSet
259 -329 m 0,0,1
 215 -329 215 -329 180.5 -315 c 128,-1,2
 146 -301 146 -301 122 -277 c 128,-1,3
 98 -253 98 -253 85.5 -220.5 c 128,-1,4
 73 -188 73 -188 73 -151 c 0,5,6
 73 -85 73 -85 158 0 c 1,7,-1
 216 0 l 1,8,9
 209 -11 209 -11 203.5 -22.5 c 128,-1,10
 198 -34 198 -34 193 -46 c 0,11,12
 185 -66 185 -66 178.5 -90.5 c 128,-1,13
 172 -115 172 -115 172 -139 c 0,14,15
 172 -184 172 -184 195 -207.5 c 128,-1,16
 218 -231 218 -231 267 -231 c 0,17,18
 295 -231 295 -231 318.5 -224 c 128,-1,19
 342 -217 342 -217 361 -209 c 0,20,21
 372 -204 372 -204 382 -198.5 c 128,-1,22
 392 -193 392 -193 402 -186 c 1,23,-1
 402 -270 l 1,24,25
 385 -287 385 -287 365 -300 c 0,26,27
 347 -311 347 -311 321 -320 c 128,-1,28
 295 -329 295 -329 259 -329 c 0,0,1
EndSplineSet
Validated: 1
EndChar

StartChar: caron
Encoding: 711 711 219
Width: 379
Flags: W
HStem: 98 402<106 155 227 274>
VStem: 38 306
LayerCount: 2
Fore
SplineSet
106 98 m 1,0,-1
 38 500 l 1,1,-1
 155 500 l 1,2,-1
 190 224 l 1,3,-1
 227 500 l 1,4,-1
 344 500 l 1,5,-1
 274 98 l 1,6,-1
 106 98 l 1,0,-1
EndSplineSet
Validated: 1
EndChar

StartChar: Euro
Encoding: 8364 8364 357
Width: 626
Flags: W
HStem: -24 126<319.241 432.571> 1012 123<-14 164 319 550> 1198 124<-11 164 319 581> 1938 137<327.848 432.883>
VStem: 164 155<103.538 1012 1135 1198 1322 1924.59> 433 156<103.898 722 1568 1936.93>
LayerCount: 2
Fore
SplineSet
581 1198 m 1,0,-1
 319 1198 l 1,1,-1
 319 1135 l 1,2,-1
 564 1135 l 1,3,-1
 550 1012 l 1,4,-1
 319 1012 l 1,5,-1
 319 148 l 2,6,7
 319 129 319 129 336 115.5 c 128,-1,8
 353 102 353 102 377 102 c 0,9,10
 399 102 399 102 416 115.5 c 128,-1,11
 433 129 433 129 433 148 c 2,12,-1
 433 722 l 1,13,-1
 589 722 l 1,14,-1
 589 148 l 2,15,16
 589 111 589 111 573.5 79.5 c 128,-1,17
 558 48 558 48 530.5 25 c 128,-1,18
 503 2 503 2 464 -11 c 128,-1,19
 425 -24 425 -24 377 -24 c 0,20,21
 332 -24 332 -24 293.5 -10.5 c 128,-1,22
 255 3 255 3 226 26.5 c 128,-1,23
 197 50 197 50 180.5 82 c 128,-1,24
 164 114 164 114 164 151 c 2,25,-1
 164 1012 l 1,26,-1
 -14 1012 l 1,27,-1
 -14 1135 l 1,28,-1
 164 1135 l 1,29,-1
 164 1198 l 1,30,-1
 -11 1198 l 1,31,-1
 -11 1322 l 1,32,-1
 164 1322 l 1,33,-1
 164 1900 l 2,34,35
 164 1937 164 1937 179.5 1969 c 128,-1,36
 195 2001 195 2001 223.5 2024.5 c 128,-1,37
 252 2048 252 2048 291 2061.5 c 128,-1,38
 330 2075 330 2075 378 2075 c 0,39,40
 424 2075 424 2075 463 2061.5 c 128,-1,41
 502 2048 502 2048 530 2025 c 128,-1,42
 558 2002 558 2002 573.5 1971 c 128,-1,43
 589 1940 589 1940 589 1905 c 2,44,-1
 589 1568 l 1,45,-1
 433 1568 l 1,46,-1
 433 1893 l 2,47,48
 433 1912 433 1912 416.5 1925 c 128,-1,49
 400 1938 400 1938 378 1938 c 0,50,51
 351 1938 351 1938 335 1925 c 128,-1,52
 319 1912 319 1912 319 1893 c 2,53,-1
 319 1322 l 1,54,-1
 595 1322 l 1,55,-1
 581 1198 l 1,0,-1
EndSplineSet
Validated: 1
EndChar

StartChar: Dcroat
Encoding: 272 272 380
Width: 550
Flags: W
HStem: 0 132<220 325.779> 1030 122<-1 291> 1912 136<220 326.295>
VStem: 64 156<132 1912> 333 157<150.283 1892.72>
LayerCount: 2
Fore
SplineSet
291 1030 m 1,0,-1
 -1 1030 l 1,1,-1
 -1 1152 l 1,2,-1
 291 1152 l 1,3,-1
 291 1030 l 1,0,-1
333 1866 m 2,4,5
 333 1884 333 1884 326.5 1893 c 128,-1,6
 320 1902 320 1902 306 1906.5 c 128,-1,7
 292 1911 292 1911 271 1911.5 c 128,-1,8
 250 1912 250 1912 220 1912 c 1,9,-1
 220 132 l 1,10,11
 248 132 248 132 269 132.5 c 128,-1,12
 290 133 290 133 304.5 137 c 128,-1,13
 319 141 319 141 326 150 c 128,-1,14
 333 159 333 159 333 175 c 2,15,-1
 333 1866 l 2,4,5
490 175 m 2,16,17
 490 139 490 139 473.5 107.5 c 128,-1,18
 457 76 457 76 429 52 c 128,-1,19
 401 28 401 28 362.5 14 c 128,-1,20
 324 0 324 0 281 0 c 2,21,-1
 64 0 l 1,22,-1
 64 2048 l 1,23,-1
 281 2048 l 2,24,25
 323 2048 323 2048 361 2035 c 128,-1,26
 399 2022 399 2022 427.5 1998.5 c 128,-1,27
 456 1975 456 1975 473 1943.5 c 128,-1,28
 490 1912 490 1912 490 1876 c 2,29,-1
 490 175 l 2,16,17
EndSplineSet
Validated: 5
EndChar

StartChar: dcroat
Encoding: 273 273 391
Width: 515
Flags: W
HStem: 0 21G<64 111> 2.5 116.5<220 278.855> 872 127<0 264> 1662 104<220 278.855> 1748 20G<64 111> 1748 20G<64 111>
VStem: 0 264<872 999> 64 156<119 1662> 300 155<125.707 1655.29>
LayerCount: 2
Fore
SplineSet
264 872 m 1,0,-1
 0 872 l 1,1,-1
 0 999 l 1,2,-1
 264 999 l 1,3,-1
 264 872 l 1,0,-1
300 1627 m 2,4,5
 300 1649 300 1649 279.5 1655.5 c 128,-1,6
 259 1662 259 1662 220 1662 c 1,7,-1
 220 119 l 1,8,9
 259 119 259 119 279.5 125.5 c 128,-1,10
 300 132 300 132 300 155 c 2,11,-1
 300 1627 l 2,4,5
455 157 m 2,12,13
 455 98 455 98 429.5 66 c 128,-1,14
 404 34 404 34 354 19.5 c 128,-1,15
 304 5 304 5 231 2.5 c 128,-1,16
 158 0 158 0 64 0 c 1,17,-1
 64 1768 l 1,18,19
 158 1768 158 1768 231 1766 c 128,-1,20
 304 1764 304 1764 354 1750 c 128,-1,21
 404 1736 404 1736 429.5 1705.5 c 128,-1,22
 455 1675 455 1675 455 1618 c 2,23,-1
 455 157 l 2,12,13
EndSplineSet
Validated: 5
EndChar

StartChar: Eng
Encoding: 330 330 425
Width: 557
Flags: W
HStem: -556 126<235.456 328.297> 0 21G<64 220 333.968 493> 2028 20G<64 220.151 346 493>
VStem: 64 156<-419.168 -80 0 1142 1931.49 2048> 336 157<-416.077 444 858 2048>
LayerCount: 2
Fore
SplineSet
493 -381 m 2,0,1
 493 -418 493 -418 476.5 -450 c 128,-1,2
 460 -482 460 -482 432 -505.5 c 128,-1,3
 404 -529 404 -529 366 -542.5 c 128,-1,4
 328 -556 328 -556 285 -556 c 0,5,6
 241 -556 241 -556 202 -542.5 c 128,-1,7
 163 -529 163 -529 133.5 -505.5 c 128,-1,8
 104 -482 104 -482 87 -451 c 128,-1,9
 70 -420 70 -420 70 -384 c 2,10,-1
 70 -80 l 1,11,-1
 226 -80 l 1,12,-1
 226 -384 l 2,13,14
 226 -409 226 -409 243.5 -419.5 c 128,-1,15
 261 -430 261 -430 285 -430 c 0,16,17
 307 -430 307 -430 321.5 -416.5 c 128,-1,18
 336 -403 336 -403 336 -384 c 2,19,-1
 336 444 l 1,20,-1
 493 444 l 1,21,-1
 493 -381 l 2,0,1
493 0 m 1,22,-1
 336 0 l 1,23,-1
 220 1142 l 1,24,-1
 220 0 l 1,25,-1
 64 0 l 1,26,-1
 64 2048 l 1,27,-1
 218 2048 l 1,28,-1
 346 858 l 1,29,-1
 346 2048 l 1,30,-1
 493 2048 l 1,31,-1
 493 0 l 1,22,-1
EndSplineSet
Validated: 5
EndChar

StartChar: eng
Encoding: 331 331 426
Width: 524
Flags: W
HStem: -562 119<220.085 295.632> 0 21G<64 216 316.646 459> 1748 20G<64 205.434 319 459> 1748 20G<64 205.434 319 459>
VStem: 64 152<0 994 1764.92 1768> 302 157<-433.718 423> 319 140<0 45.3332 741 1768>
LayerCount: 2
Fore
SplineSet
459 0 m 1,0,-1
 319 0 l 1,1,-1
 202 994 l 1,2,-1
 216 0 l 1,3,-1
 64 0 l 1,4,-1
 64 1768 l 1,5,-1
 203 1768 l 1,6,-1
 328 741 l 1,7,-1
 319 1768 l 1,8,-1
 459 1768 l 1,9,-1
 459 0 l 1,0,-1
459 -411 m 2,10,11
 459 -442 459 -442 443 -469.5 c 128,-1,12
 427 -497 427 -497 400 -517.5 c 128,-1,13
 373 -538 373 -538 337.5 -550 c 128,-1,14
 302 -562 302 -562 263 -562 c 256,15,16
 224 -562 224 -562 188.5 -550 c 128,-1,17
 153 -538 153 -538 126 -517.5 c 128,-1,18
 99 -497 99 -497 83 -469.5 c 128,-1,19
 67 -442 67 -442 67 -411 c 2,20,-1
 67 -106 l 1,21,-1
 218 -106 l 1,22,-1
 220 -411 l 2,23,24
 220 -425 220 -425 233 -434 c 128,-1,25
 246 -443 246 -443 263 -443 c 0,26,27
 279 -443 279 -443 290.5 -434 c 128,-1,28
 302 -425 302 -425 302 -411 c 2,29,-1
 302 423 l 1,30,-1
 459 423 l 1,31,-1
 459 -411 l 2,10,11
EndSplineSet
Validated: 5
EndChar

